<svg width="39" height="40" viewBox="0 0 39 40" fill="none" xmlns="http://www.w3.org/2000/svg">
<path d="M5.0625 36.0418H33.9375" stroke="#f7f7f5" stroke-width="2" stroke-linecap="round" stroke-linejoin="round"/>
<path d="M9.2333 14.1927H6.66667C5.78437 14.1927 5.0625 14.9146 5.0625 15.7969V29.6248C5.0625 30.5071 5.78437 31.229 6.66667 31.229H9.2333C10.1156 31.229 10.8375 30.5071 10.8375 29.6248V15.7969C10.8375 14.9146 10.1156 14.1927 9.2333 14.1927Z" stroke="#f7f7f5" stroke-width="2" stroke-linecap="round" stroke-linejoin="round"/>
<path d="M20.783 9.07559H18.2165C17.3342 9.07559 16.6123 9.79747 16.6123 10.6798V29.625C16.6123 30.5073 17.3342 31.2291 18.2165 31.2291H20.783C21.6653 31.2291 22.3871 30.5073 22.3871 29.625V10.6798C22.3871 9.79747 21.6653 9.07559 20.783 9.07559Z" stroke="#f7f7f5" stroke-width="2" stroke-linecap="round" stroke-linejoin="round"/>
<path d="M32.3329 3.95818H29.7663C28.884 3.95818 28.1621 4.68005 28.1621 5.56234V29.6248C28.1621 30.5071 28.884 31.229 29.7663 31.229H32.3329C33.2152 31.229 33.9371 30.5071 33.9371 29.6248V5.56234C33.9371 4.68005 33.2152 3.95818 32.3329 3.95818Z" stroke="#f7f7f5" stroke-width="2" stroke-linecap="round" stroke-linejoin="round"/>
</svg>
