<svg width="35" height="40" viewBox="0 0 35 40" fill="none" xmlns="http://www.w3.org/2000/svg">
<path d="M7.94969 34.1812C9.46014 32.5602 11.7627 32.6891 13.0889 34.4575L14.9493 36.9442C16.4414 38.9151 18.8544 38.9151 20.3464 36.9442L22.2069 34.4575C23.5331 32.6891 25.8356 32.5602 27.3461 34.1812C30.6248 37.681 33.2958 36.5205 33.2958 31.6208V10.8613C33.3142 3.43802 31.5827 1.57759 24.6199 1.57759H10.6943C3.73149 1.57759 2 3.43802 2 10.8613V31.6024C2 36.5205 4.68934 37.6626 7.94969 34.1812Z" stroke="#f7f7f5" stroke-width="2.05933" stroke-linecap="round" stroke-linejoin="round"/>
<path d="M11.3887 13.1667H24.2245" stroke="#f7f7f5" stroke-width="2.05933" stroke-linecap="round" stroke-linejoin="round"/>
<path d="M12.1309 18.1558H23.1829" stroke="#f7f7f5" stroke-width="2.05933" stroke-linecap="round" stroke-linejoin="round"/>
<path d="M13.3447 22.9016H21.9511" stroke="#f7f7f5" stroke-width="2.05933" stroke-linecap="round" stroke-linejoin="round"/>
</svg>
