<svg width="41" height="40" viewBox="0 0 41 40" fill="none" xmlns="http://www.w3.org/2000/svg">
<path d="M5.31055 36.5923H35.1772" stroke="white" stroke-width="2.48889" stroke-linecap="round" stroke-linejoin="round"/>
<path d="M9.62459 13.9929H6.96981C6.05721 13.9929 5.31055 14.7396 5.31055 15.6522V29.955C5.31055 30.8676 6.05721 31.6142 6.96981 31.6142H9.62459C10.5372 31.6142 11.2838 30.8676 11.2838 29.955V15.6522C11.2838 14.7396 10.5372 13.9929 9.62459 13.9929Z" stroke="white" stroke-width="2.48889" stroke-linecap="round" stroke-linejoin="round"/>
<path d="M21.5717 8.70007H18.9171C18.0045 8.70007 17.2578 9.44674 17.2578 10.3593V29.9552C17.2578 30.8678 18.0045 31.6144 18.9171 31.6144H21.5717C22.4843 31.6144 23.231 30.8678 23.231 29.9552V10.3593C23.231 9.44674 22.4843 8.70007 21.5717 8.70007Z" stroke="white" stroke-width="2.48889" stroke-linecap="round" stroke-linejoin="round"/>
<path d="M33.5182 3.40686H30.8634C29.9508 3.40686 29.2041 4.15353 29.2041 5.06612V29.955C29.2041 30.8676 29.9508 31.6143 30.8634 31.6143H33.5182C34.4308 31.6143 35.1774 30.8676 35.1774 29.955V5.06612C35.1774 4.15353 34.4308 3.40686 33.5182 3.40686Z" stroke="white" stroke-width="2.48889" stroke-linecap="round" stroke-linejoin="round"/>
</svg>
