<svg width="52" height="52" viewBox="0 0 52 52" fill="none" xmlns="http://www.w3.org/2000/svg">
<g clip-path="url(#clip0_532_865)">
<path d="M25.3116 19.7449C22.029 19.7449 19.3584 22.4155 19.3584 25.698C19.3584 28.9806 22.029 31.6512 25.3116 31.6512C26.8484 31.6512 28.251 31.0658 29.3083 30.1062C29.4634 29.9403 29.6223 29.7781 29.7849 29.6196C30.705 28.5713 31.2647 27.1992 31.2647 25.698C31.2647 22.4155 28.5941 19.7449 25.3116 19.7449Z" fill="#454545"/>
<path d="M16.3588 25.698C16.3588 20.7612 20.3752 16.7449 25.312 16.7449C30.2488 16.7449 34.2651 20.7612 34.2651 25.698C34.2651 26.0215 34.2474 26.3409 34.2138 26.6556C35.2713 26.2011 36.393 25.8689 37.5611 25.6756C37.5489 18.9315 32.0589 13.4486 25.312 13.4486C18.5576 13.4486 13.0625 18.9436 13.0625 25.698C13.0625 32.4524 18.5576 37.9475 25.312 37.9475C25.386 37.9475 25.4591 37.9442 25.5328 37.9429C25.7029 36.7712 26.013 35.6444 26.4455 34.5798C26.0742 34.6269 25.6959 34.6513 25.312 34.6513C20.3752 34.6512 16.3588 30.6348 16.3588 25.698Z" fill="#454545"/>
<path d="M39.9466 51.6103C46.3238 51.6103 51.5121 46.422 51.5121 40.0448C51.5121 33.6675 46.3238 28.4792 39.9466 28.4792C36.8573 28.4792 34.047 29.6967 31.9703 31.6771C31.7977 31.8691 31.6169 32.0535 31.4286 32.2299C29.5373 34.2897 28.3809 37.0346 28.3809 40.0448C28.3809 46.422 33.5692 51.6103 39.9466 51.6103ZM38.4537 32.1447H41.4537V38.5448H45.147V41.5448H38.4537V32.1447Z" fill="#FF4E4E"/>
<path d="M25.408 40.9458C25.3755 40.946 25.3433 40.9475 25.3108 40.9475C16.9022 40.9475 10.0613 34.1066 10.0613 25.698C10.0613 17.2894 16.9022 10.4486 25.3108 10.4486C33.6509 10.4486 40.4474 17.1787 40.5576 25.4931C44.3665 25.6515 47.8019 27.2792 50.311 29.8234V20.6256L46.5262 20.0417C46.0085 17.9861 45.1981 16.0313 44.1074 14.2073L46.3721 11.1163L39.605 4.3492L36.514 6.6139C34.6902 5.5232 32.7353 4.7127 30.6796 4.1951L30.0958 0.4104H20.5258L19.9419 4.1952C17.8863 4.7129 15.9315 5.5233 14.1075 6.614L11.0165 4.3493L4.24945 11.1164L6.51414 14.2074C5.42345 16.0313 4.61295 17.9862 4.09535 20.0418L0.310547 20.6256V30.1956L4.09535 30.7795C4.61305 32.8352 5.42345 34.79 6.51414 36.6139L4.24945 39.7049L11.0165 46.472L14.1075 44.2073C15.9314 45.298 17.8863 46.1085 19.9419 46.6261L20.5258 50.4109H29.7236C27.2436 47.9653 25.6346 44.6396 25.408 40.9458Z" fill="#454545"/>
</g>
<defs>
<clipPath id="clip0_532_865">
<rect width="51.2" height="51.2" fill="white" transform="translate(0.310547 0.4104)"/>
</clipPath>
</defs>
</svg>
