<svg width="46" height="45" viewBox="0 0 46 45" fill="none" xmlns="http://www.w3.org/2000/svg">
<g clip-path="url(#clip0_532_1364)">
<path d="M22.0946 16.9932C19.2095 16.9932 16.8623 19.3404 16.8623 22.2254C16.8623 25.1105 19.2095 27.4577 22.0946 27.4577C23.4453 27.4577 24.6781 26.9432 25.6073 26.0998C25.7437 25.954 25.8833 25.8114 26.0262 25.6721C26.8349 24.7507 27.3268 23.5448 27.3268 22.2254C27.3268 19.3404 24.9796 16.9932 22.0946 16.9932Z" fill="black"/>
<path d="M14.2262 22.2254C14.2262 17.8864 17.7563 14.3565 22.0953 14.3565C26.4342 14.3565 29.9642 17.8864 29.9642 22.2254C29.9642 22.5097 29.9486 22.7905 29.9191 23.0671C30.8485 22.6676 31.8344 22.3756 32.8611 22.2057C32.8503 16.2783 28.0252 11.4594 22.0953 11.4594C16.1588 11.4594 11.3291 16.2889 11.3291 22.2254C11.3291 28.1619 16.1588 32.9916 22.0953 32.9916C22.1603 32.9916 22.2245 32.9887 22.2893 32.9875C22.4388 31.9577 22.7114 30.9674 23.0915 30.0317C22.7652 30.0731 22.4327 30.0945 22.0953 30.0945C17.7563 30.0944 14.2262 26.5644 14.2262 22.2254Z" fill="black"/>
<path d="M34.9572 45C40.5621 45 45.1221 40.44 45.1221 34.835C45.1221 29.23 40.5621 24.6699 34.9572 24.6699C32.242 24.6699 29.772 25.74 27.9467 27.4806C27.795 27.6493 27.6361 27.8114 27.4706 27.9664C25.8084 29.7768 24.792 32.1893 24.792 34.835C24.792 40.44 29.352 45 34.9572 45ZM33.645 27.8916H36.2818V33.5166H39.5278V36.1534H33.645V27.8916Z" fill="#FF4E4E"/>
<path d="M22.1804 35.6268C22.1518 35.627 22.1235 35.6283 22.095 35.6283C14.7046 35.6283 8.69211 29.6158 8.69211 22.2254C8.69211 14.8351 14.7046 8.82263 22.095 8.82263C29.4251 8.82263 35.3986 14.7378 35.4955 22.0453C38.8431 22.1846 41.8625 23.6151 44.0678 25.8513V17.7673L40.7413 17.2541C40.2863 15.4474 39.574 13.7293 38.6154 12.1262L40.6059 9.40948L34.6582 3.46183L31.9415 5.45229C30.3386 4.49367 28.6204 3.78132 26.8137 3.3264L26.3005 0H17.8894L17.3762 3.32648C15.5695 3.78149 13.8515 4.49376 12.2483 5.45238L9.53164 3.46192L3.58399 9.40957L5.57445 12.1263C4.61583 13.7293 3.90348 15.4475 3.44855 17.2542L0.12207 17.7673V26.1784L3.44855 26.6916C3.90356 28.4983 4.61583 30.2164 5.57445 31.8195L3.58399 34.5362L9.53164 40.4838L12.2483 38.4934C13.8514 39.452 15.5695 40.1643 17.3762 40.6193L17.8894 43.9457H25.9734C23.7937 41.7963 22.3796 38.8733 22.1804 35.6268Z" fill="black"/>
</g>
<defs>
<clipPath id="clip0_532_1364">
<rect width="45" height="45" fill="white" transform="translate(0.12207)"/>
</clipPath>
</defs>
</svg>
