<svg width="100" height="29" viewBox="0 0 100 29" fill="none" xmlns="http://www.w3.org/2000/svg">
<g clip-path="url(#clip0_532_1523)">
<path d="M13.895 1.36508C17.5808 1.36508 20.7202 2.6566 23.3033 5.23964C23.9291 5.945 24.2172 6.76958 24.1576 7.73325C24.098 8.69693 23.7404 9.48177 23.0747 10.1176C22.4091 10.7435 21.5647 11.0813 20.5315 11.1111C19.4982 11.1508 18.6538 10.813 17.9882 10.1176C16.8457 9.08438 15.4747 8.56777 13.895 8.56777C13.0406 8.56777 12.2459 8.7466 11.4908 9.09432C10.7358 9.44203 10.0701 9.90897 9.49393 10.4752C8.91771 11.0515 8.47065 11.7072 8.13287 12.4423C7.80502 13.1775 7.63613 13.9524 7.63613 14.7671C7.63613 15.6215 7.80502 16.4162 8.13287 17.1713C8.46071 17.9263 8.92765 18.5919 9.5138 19.1682C10.0999 19.7444 10.7656 20.1914 11.5107 20.5292C12.2459 20.8571 13.0406 21.0061 13.895 20.9763C15.5144 20.9763 16.8854 20.4796 17.9882 19.4861C18.6538 18.7509 19.4982 18.3833 20.5315 18.3833C21.5647 18.3833 22.4091 18.7509 23.0747 19.4861C23.4026 19.7841 23.6609 20.1318 23.8497 20.5392C24.0384 20.9465 24.1378 21.3737 24.1576 21.8108C24.1775 22.2579 24.108 22.6851 23.9689 23.1123C23.8199 23.5395 23.6013 23.917 23.3033 24.2448C22.0117 25.5363 20.5911 26.51 19.0412 27.1756C17.4914 27.8412 15.7727 28.1691 13.895 28.1691C12.0472 28.1691 10.3185 27.8114 8.68921 27.0862C7.05991 26.3709 5.64918 25.3973 4.4272 24.1753C3.20522 22.9533 2.24155 21.5326 1.51632 19.9133C0.801011 18.2939 0.443359 16.5752 0.443359 14.7671C0.443359 12.9987 0.801011 11.2998 1.52625 9.67053C2.24155 8.05117 3.22509 6.62056 4.45701 5.40853C5.68892 4.18655 7.11952 3.21295 8.74882 2.47778C10.3682 1.7426 12.0869 1.36508 13.895 1.36508Z" fill="white"/>
<path d="M30.3366 28.1691C29.3431 28.1691 28.5086 27.8511 27.843 27.1955C27.1774 26.5497 26.8098 25.6953 26.7402 24.6224V14.3796C26.78 12.6112 27.1575 10.9422 27.8728 9.37249C28.5881 7.8028 29.5518 6.44174 30.7539 5.27938C31.956 4.11701 33.3568 3.19308 34.9662 2.50758C36.5657 1.82208 38.2745 1.44456 40.0826 1.36508C41.1158 1.36508 41.9702 1.7128 42.6557 2.41817C43.3412 3.12353 43.7187 3.96799 43.7883 4.96147C43.7883 5.95493 43.4406 6.79939 42.7352 7.48489C42.0298 8.17038 41.1655 8.52804 40.1323 8.56777C39.2779 8.56777 38.4931 8.72673 37.748 9.03471C37.0128 9.35262 36.367 9.77982 35.8107 10.3362C35.2543 10.8925 34.8172 11.5482 34.4794 12.3032C34.1516 13.0583 33.9827 13.8829 33.9827 14.7671V24.8409C33.9131 25.8046 33.5455 26.5894 32.8998 27.2253C32.264 27.8511 31.4096 28.1691 30.3366 28.1691Z" fill="white"/>
<path d="M57.0717 1.36508C58.8799 1.36508 60.5986 1.7128 62.218 2.41817C63.8373 3.12353 65.2679 4.07727 66.48 5.29925C67.7019 6.52121 68.6656 7.94189 69.3909 9.56125C70.1062 11.1906 70.4737 12.9391 70.4737 14.8167C70.4737 16.6646 70.126 18.3833 69.4207 19.9928C68.7153 21.6022 67.7715 23.0129 66.5694 24.225C65.3673 25.4469 63.9565 26.4007 62.3372 27.106C60.7079 27.8114 58.9594 28.1591 57.0817 28.1591C55.2338 28.1591 53.5052 27.8313 51.8759 27.1657C50.2466 26.5 48.8358 25.5662 47.6139 24.374C46.3919 23.1719 45.4381 21.7611 44.7328 20.1418C44.0274 18.5224 43.6797 16.7441 43.6797 14.8267C43.6797 12.9788 44.0175 11.2601 44.703 9.65066C45.3885 8.04123 46.3223 6.64043 47.5244 5.43833C48.7266 4.23623 50.1472 3.28249 51.7865 2.55725C53.4356 1.84195 55.1941 1.44456 57.0717 1.36508ZM57.0717 8.61745C56.2174 8.61745 55.4325 8.7764 54.6874 9.08438C53.9522 9.4023 53.2965 9.82949 52.7203 10.3858C52.1441 10.9422 51.697 11.5979 51.3593 12.3529C51.0314 13.108 50.8625 13.9325 50.8625 14.8167C50.8625 15.6612 51.0314 16.4659 51.3593 17.221C51.6871 17.976 52.1441 18.6416 52.7203 19.2178C53.2965 19.7941 53.9423 20.2411 54.6874 20.5789C55.4226 20.9068 56.2174 21.0756 57.0717 21.0756C57.9162 21.0756 58.7209 20.9068 59.476 20.5789C60.231 20.2511 60.8867 19.7941 61.443 19.2178C61.9994 18.6416 62.4365 17.9859 62.7743 17.221C63.1022 16.4659 63.271 15.6612 63.271 14.8167C63.2015 13.1179 62.5855 11.6774 61.443 10.4951C60.3005 9.32282 58.8501 8.69693 57.0717 8.61745Z" fill="white"/>
<path d="M86.1899 1.36508C87.998 1.36508 89.7167 1.7128 91.3361 2.41817C92.9555 3.12353 94.3861 4.07727 95.5981 5.29925C96.8201 6.52121 97.7838 7.94189 98.509 9.56125C99.2243 11.1906 99.5919 12.9391 99.5919 14.8167C99.5919 16.6646 99.2442 18.3833 98.5388 19.9928C97.8335 21.6022 96.8897 23.0129 95.6875 24.225C94.4854 25.4469 93.0747 26.4007 91.4553 27.106C89.826 27.8114 88.0775 28.1591 86.1998 28.1591C84.352 28.1591 82.6233 27.8313 80.994 27.1657C79.3647 26.5 77.954 25.5662 76.732 24.374C75.51 23.1719 74.5563 21.7611 73.8509 20.1418C73.1456 18.5224 72.7979 16.7441 72.7979 14.8267C72.7979 12.9788 73.1356 11.2601 73.8211 9.65066C74.5066 8.04123 75.4405 6.64043 76.6426 5.43833C77.8447 4.23623 79.2654 3.28249 80.9046 2.55725C82.5538 1.84195 84.3122 1.44456 86.1899 1.36508ZM86.1899 8.61745C85.3355 8.61745 84.5507 8.7764 83.8056 9.08438C83.0704 9.4023 82.4147 9.82949 81.8385 10.3858C81.2623 10.9422 80.8152 11.5979 80.4774 12.3529C80.1496 13.108 79.9807 13.9325 79.9807 14.8167C79.9807 15.6612 80.1496 16.4659 80.4774 17.221C80.8053 17.976 81.2623 18.6416 81.8385 19.2178C82.4147 19.7941 83.0605 20.2411 83.8056 20.5789C84.5407 20.9068 85.3355 21.0756 86.1899 21.0756C87.0344 21.0756 87.8391 20.9068 88.5941 20.5789C89.3492 20.2511 90.0049 19.7941 90.5612 19.2178C91.1176 18.6416 91.5547 17.9859 91.8925 17.221C92.2203 16.4659 92.3892 15.6612 92.3892 14.8167C92.3197 13.1179 91.7037 11.6774 90.5612 10.4951C89.4187 9.32282 87.9682 8.69693 86.1899 8.61745Z" fill="white"/>
</g>
<defs>
<clipPath id="clip0_532_1523">
<rect width="99.3476" height="27.8173" fill="white" transform="translate(0.34375 0.858398)"/>
</clipPath>
</defs>
</svg>
