<svg width="242" height="34" viewBox="0 0 242 34" fill="none" xmlns="http://www.w3.org/2000/svg">
<path d="M40.2105 0.905412C40.2487 0.905182 40.287 0.904952 40.3264 0.904714C40.4491 0.904144 40.5718 0.903932 40.6945 0.903884C40.726 0.903869 40.726 0.903869 40.7581 0.903855C41.4181 0.903806 42.0683 0.914781 42.7228 1.00984C42.7452 1.01308 42.7676 1.01632 42.7907 1.01967C45.5982 1.42959 48.2533 2.53662 50.5252 4.40042C50.5721 4.43881 50.5721 4.43881 50.6199 4.47798C50.7884 4.61749 50.9518 4.7614 51.1118 4.9111C51.1553 4.95144 51.1991 4.99162 51.2439 5.0304C51.4572 5.21586 51.6529 5.41954 51.8503 5.6223C51.9124 5.68601 51.9746 5.74954 52.0369 5.81306C52.2297 6.01038 52.42 6.20761 52.5953 6.42173C52.6222 6.45317 52.6491 6.4846 52.6769 6.51699C54.7533 8.98335 56.0235 12.1115 56.4169 16.4957C56.4176 16.5288 56.4183 16.5619 56.419 16.5961C56.4661 19.288 55.869 21.8813 54.6971 24.2875C54.6837 24.3152 54.6702 24.3429 54.6564 24.3714C54.3473 25.0021 53.9853 25.6059 53.5825 26.1784C53.5648 26.2036 53.547 26.2288 53.5287 26.2548C53.3111 26.5628 53.0907 26.8668 52.85 27.1564C52.8357 27.1739 52.8213 27.1913 52.8065 27.2092C52.7588 27.2671 52.7109 27.3249 52.6629 27.3826C52.6487 27.3997 52.6345 27.4169 52.6199 27.4345C52.3411 27.7674 52.0458 28.0836 51.743 28.3936C51.6875 28.4505 51.6323 28.5076 51.577 28.5648C51.3865 28.7607 51.1939 28.9455 50.9817 29.1169C50.9104 29.1753 50.843 29.2364 50.776 29.3C50.5556 29.5024 50.3165 29.6814 50.0794 29.8624C50.056 29.8803 50.0326 29.8982 50.0085 29.9166C47.7054 31.6699 44.9363 32.6948 42.0858 32.9596C42.0552 32.9627 42.0245 32.9658 41.9929 32.969C40.9275 33.064 39.8015 33.0476 38.7419 32.8944C38.7195 32.8911 38.697 32.8879 38.6739 32.8845C35.5386 32.427 32.7238 31.0909 29.9773 28.6493C29.9188 28.5892 29.8579 28.534 29.795 28.4789C29.5868 28.295 29.3966 28.0944 29.2178 27.8808C29.1565 27.809 29.0937 27.739 29.0303 27.6691C28.8518 27.472 28.6822 27.2694 28.5191 27.0586C28.5031 27.0381 28.4871 27.0175 28.4705 26.9963C27.8901 26.2503 27.3758 25.4632 26.9343 24.623C26.9078 24.5726 26.881 24.5223 26.854 24.4721C26.4248 23.6737 26.0969 22.8346 25.8122 21.9728C25.8004 21.9394 25.7886 21.906 25.7765 21.8716C25.7485 21.7772 25.7485 21.7772 25.7485 21.6468C26.7625 21.6386 27.7764 21.6322 28.7905 21.6284C28.9102 21.628 29.0299 21.6275 29.1497 21.6271C29.1854 21.6269 29.1854 21.6269 29.2219 21.6268C29.6078 21.6252 29.9936 21.6224 30.3795 21.6191C30.7755 21.6157 31.1715 21.6137 31.5675 21.613C31.8118 21.6125 32.0561 21.611 32.3004 21.608C32.4878 21.6059 32.6752 21.6057 32.8627 21.6062C32.9395 21.6061 33.0163 21.6054 33.0931 21.604C33.6744 21.5941 33.6744 21.5941 33.8425 21.725C33.9086 21.8165 33.9533 21.9011 33.9968 22.0054C34.0238 22.0473 34.0519 22.0885 34.0812 22.1288C34.1053 22.164 34.1293 22.1993 34.154 22.2356C34.2903 22.4331 34.4407 22.611 34.6019 22.7878C34.6358 22.8284 34.6697 22.8692 34.7034 22.9101C34.9816 23.2359 35.287 23.5334 35.621 23.7985C35.6515 23.8237 35.682 23.849 35.7134 23.875C37.4723 25.3078 39.745 25.8801 41.9585 25.6242C43.5899 25.4128 45.1548 24.6844 46.3851 23.5703C46.4256 23.5343 46.4256 23.5343 46.4669 23.4975C46.8084 23.1895 47.1247 22.8625 47.4042 22.4944C47.4293 22.4624 47.4544 22.4303 47.4802 22.3974C48.1466 21.5398 48.6323 20.5454 48.9329 19.495C48.9399 19.4706 48.9469 19.4461 48.9541 19.4209C49.5611 17.245 49.2534 14.864 48.1875 12.8919C47.87 12.3264 47.4914 11.8091 47.062 11.3275C47.0133 11.2728 46.9652 11.2176 46.9175 11.162C46.7704 10.9911 46.6193 10.8384 46.4488 10.6926C46.4195 10.6662 46.3901 10.6398 46.3599 10.6126C45.2099 9.58311 43.755 8.88099 42.2451 8.63865C42.2136 8.63345 42.1821 8.62826 42.1497 8.62291C41.2769 8.4846 40.3775 8.49487 39.5063 8.63865C39.4757 8.64355 39.4452 8.64845 39.4137 8.6535C38.2601 8.84689 37.1203 9.32396 36.1624 10.0079C36.1241 10.0352 36.1241 10.0352 36.085 10.0629C35.7842 10.279 35.4994 10.5051 35.2344 10.766C35.1489 10.85 35.0612 10.9304 34.9721 11.0104C34.8366 11.1351 34.7185 11.267 34.6019 11.4098C34.5761 11.4398 34.5503 11.4699 34.5237 11.5009C34.3193 11.7404 34.1363 11.9915 33.9593 12.2529C33.9452 12.2733 33.9311 12.2938 33.9166 12.3149C33.8683 12.3869 33.8683 12.3869 33.8304 12.464C33.7217 12.6647 33.7217 12.6647 33.608 12.7081C33.5206 12.7183 33.4373 12.719 33.3494 12.7166C33.3164 12.7168 33.2833 12.7171 33.2493 12.7173C33.1385 12.7178 33.0278 12.7162 32.917 12.7146C32.8376 12.7145 32.7582 12.7145 32.6788 12.7147C32.5078 12.7148 32.3369 12.7139 32.1659 12.7123C31.9188 12.7099 31.6717 12.7091 31.4245 12.7088C31.0235 12.7081 30.6225 12.7062 30.2215 12.7034C29.832 12.7007 29.4425 12.6986 29.053 12.6974C29.029 12.6973 29.005 12.6972 28.9802 12.6972C28.8597 12.6968 28.7393 12.6964 28.6188 12.696C27.6195 12.693 26.6203 12.6878 25.6211 12.6813C25.6309 12.6296 25.6408 12.578 25.6507 12.5264C25.6562 12.4977 25.6617 12.4689 25.6673 12.4393C25.6915 12.3231 25.7248 12.2114 25.7612 12.0988C25.7722 12.0641 25.7722 12.0641 25.7834 12.0287C25.8073 11.9541 25.8316 11.8796 25.856 11.8051C25.8644 11.7793 25.8728 11.7535 25.8814 11.727C26.0447 11.2285 26.2344 10.7466 26.4491 10.2687C26.4725 10.2163 26.4725 10.2163 26.4964 10.1628C26.9356 9.18337 27.4736 8.2619 28.1051 7.39978C28.1198 7.37983 28.1344 7.35988 28.1494 7.33932C28.3955 7.00493 28.6544 6.68192 28.9212 6.36468C28.9464 6.33465 28.9464 6.33465 28.972 6.30401C29.0761 6.181 29.1848 6.06476 29.298 5.95047C29.3532 5.89393 29.4044 5.83498 29.4546 5.77377C29.6346 5.56072 29.8302 5.36575 30.0391 5.18274C30.1123 5.11692 30.1833 5.04894 30.2542 4.98054C30.4477 4.79445 30.648 4.62276 30.8586 4.45735C30.9312 4.40026 31.0022 4.3419 31.0721 4.28135C31.3434 4.04812 31.6323 3.84534 31.9267 3.64447C31.9467 3.63079 31.9668 3.61711 31.9874 3.60301C34.3901 1.96357 37.3018 0.91718 40.2105 0.905412Z" fill="#FF4E4E"/>
<path d="M24.1084 3.7414C24.156 3.8618 26.1367 4.9907 26.0011 5.14826C25.7958 5.38806 25.6054 5.6373 25.4191 5.89278C25.3656 5.96602 25.3117 6.03891 25.2578 6.11179C24.8561 6.65814 24.4895 7.23122 24.156 7.82364C24.1324 7.86501 24.1324 7.86501 24.1084 7.90722C23.6194 8.76989 23.2175 9.66002 22.86 10.5869C22.807 10.7216 22.7499 10.8539 22.691 10.986C22.67 10.986 22.649 10.986 22.6273 10.986C22.5882 10.9441 22.5882 10.9441 22.5437 10.8862C22.4561 10.7784 22.3634 10.6873 22.259 10.5968C22.2003 10.5459 22.1425 10.4944 22.085 10.442C21.664 10.0609 21.2064 9.73527 20.7165 9.45373C20.6936 9.44054 20.6707 9.42735 20.6471 9.41376C20.2682 9.19757 19.8814 9.02028 19.4745 8.8669C19.4512 8.858 19.428 8.8491 19.4041 8.83993C18.0987 8.34575 16.5768 8.20472 15.207 8.47568C15.1789 8.48075 15.1508 8.48583 15.1219 8.49106C13.8373 8.72488 12.6044 9.28463 11.5765 10.1058C11.548 10.1281 11.5194 10.1504 11.49 10.1734C10.9405 10.6115 10.4265 11.1268 10.016 11.7032C9.99289 11.7353 9.99289 11.7353 9.96929 11.768C9.42823 12.5209 8.98814 13.3536 8.7103 14.2462C8.70203 14.2727 8.69376 14.2992 8.68524 14.3266C8.01557 16.5296 8.28251 18.9132 9.32548 20.9461C9.633 21.5259 10.0234 22.0622 10.4578 22.5482C10.5153 22.6133 10.5703 22.6797 10.6251 22.7471C11.2092 23.4287 11.9744 23.9663 12.7548 24.3854C12.7807 24.3993 12.8067 24.4133 12.8334 24.4278C14.7739 25.4616 17.0796 25.6375 19.1626 24.9705C19.6453 24.8084 20.1094 24.5975 20.5573 24.3527C20.5778 24.3417 20.5984 24.3306 20.6196 24.3192C21.133 24.0413 21.6017 23.6954 22.0405 23.3067C22.0605 23.289 22.0805 23.2713 22.1011 23.2531C22.1406 23.2181 22.1799 23.1829 22.219 23.1476C22.2371 23.1315 22.2552 23.1154 22.2738 23.0989C22.2897 23.0845 22.3057 23.0701 22.3222 23.0553C22.3784 23.0115 22.4361 22.9813 22.4999 22.9509C22.5097 22.98 22.5194 23.0092 22.5294 23.0392C22.8384 23.9606 23.1894 24.8493 23.6146 25.722C23.6321 25.7581 23.6496 25.7941 23.6677 25.8312C24.2605 27.042 24.99 28.1796 25.8389 29.2191C25.8554 29.2393 25.8719 29.2595 25.8889 29.2804C25.9238 29.3222 25.9595 29.3633 25.9958 29.4038C26.0137 29.4239 26.0315 29.4439 26.0498 29.4646C26.0661 29.4824 26.0823 29.5001 26.099 29.5184C26.1094 29.5351 26.1198 29.5518 26.1305 29.569C26.0956 29.6761 26.0785 29.6913 25.9934 29.7556C25.9706 29.7729 25.9478 29.7901 25.9244 29.8079C25.8991 29.8266 25.8738 29.8452 25.8478 29.8645C25.8213 29.8842 25.7948 29.904 25.7675 29.9243C24.98 30.5053 24.1627 31.012 23.2961 31.4599C23.2662 31.4754 23.2363 31.4909 23.2055 31.5068C22.7273 31.7525 22.2391 31.9595 21.7356 32.1446C21.6982 32.1583 21.6608 32.1721 21.6223 32.1862C20.4935 32.5961 19.3291 32.8674 18.1389 33.0024C18.1038 33.0064 18.1038 33.0064 18.068 33.0105C17.5151 33.0721 16.9653 33.0968 16.4092 33.0961C16.3801 33.0961 16.351 33.0961 16.3209 33.0961C13.4712 33.0909 10.6661 32.2958 8.2326 30.7753C8.20837 30.7603 8.18414 30.7454 8.15917 30.73C7.2934 30.1956 6.49347 29.5499 5.74856 28.8518C5.72493 28.8298 5.72493 28.8298 5.70082 28.8074C5.38234 28.511 5.06457 28.211 4.78544 27.8749C4.71823 27.7952 4.64816 27.7186 4.57819 27.6415C4.4117 27.4543 4.25986 27.2578 4.10909 27.0573C4.05832 26.9904 4.00678 26.9241 3.95507 26.858C3.30742 26.0255 2.77304 25.1081 2.30911 24.1571C2.29435 24.1272 2.27959 24.0972 2.26438 24.0663C0.990313 21.4683 0.511536 18.4945 1.43719 12.0977C2.15983 9.86795 3.32343 7.65206 4.98362 5.99845C5.04669 5.93401 5.10526 5.86738 5.16338 5.79826C5.32074 5.61124 5.49095 5.44402 5.67354 5.28312C5.74907 5.21504 5.82271 5.14526 5.89623 5.07494C6.09536 4.8847 6.29904 4.7038 6.51288 4.53086C6.54398 4.50552 6.54398 4.50552 6.5757 4.47967C6.90662 4.21038 7.24341 3.95504 7.59567 3.71582C7.61627 3.70169 7.63687 3.68756 7.6581 3.673C11.3043 1.53411 18.6661 0.556413 24.1084 3.7414Z" fill="#FF4E4E"/>
<path d="M18.369 14.6553C18.8194 15.0441 19.1676 15.5056 19.3792 16.0718C19.3792 16.0934 19.3792 16.1149 19.3792 16.1371C25.4116 16.1371 31.444 16.1371 37.6592 16.1371C37.7065 15.9918 37.7065 15.9918 37.7547 15.8436C38.0887 15.0842 38.7536 14.4572 39.5082 14.1546C39.9036 14.0101 40.2884 13.9403 40.7085 13.9425C40.7632 13.9428 40.7632 13.9428 40.819 13.9431C41.6905 13.9559 42.4414 14.3292 43.0652 14.941C43.6675 15.5808 43.9793 16.4394 43.9744 17.3238C43.9507 18.2999 43.547 19.1141 42.8656 19.7848C42.26 20.3559 41.4074 20.6236 40.5951 20.6028C39.6919 20.5602 38.9002 20.1627 38.273 19.5013C38.0438 19.2336 37.8081 18.8985 37.7229 18.5496C31.6484 18.5496 25.574 18.5496 19.3155 18.5496C19.284 18.6464 19.284 18.6464 19.2518 18.7452C18.8848 19.5235 18.2276 20.1197 17.4336 20.4112C16.6292 20.6903 15.7295 20.6749 14.9556 20.3024C14.661 20.1533 14.3967 19.9875 14.1563 19.7558C14.141 19.7417 14.1258 19.7275 14.11 19.7129C13.4673 19.1144 13.1176 18.3034 13.0664 17.4159C13.0467 16.5363 13.3165 15.6826 13.9015 15.0286C13.9261 15.0008 13.9506 14.973 13.9759 14.9444C15.1132 13.718 17.0875 13.595 18.369 14.6553Z" fill="#FF4E4E"/>
<path d="M220.557 7.14095C221.718 7.14095 222.879 7.14095 224.076 7.14095C224.237 7.39916 224.237 7.39916 224.401 7.66258C224.484 7.79247 224.567 7.92223 224.65 8.05176C224.695 8.12236 224.74 8.19295 224.785 8.26355C224.808 8.29901 224.831 8.33448 224.854 8.37102C224.964 8.54232 225.074 8.71374 225.183 8.88515C225.227 8.95273 225.27 9.02031 225.313 9.08789C225.402 9.2271 225.491 9.36634 225.58 9.5056C225.863 9.9489 225.863 9.9489 226.149 10.3909C226.3 10.6248 226.45 10.86 226.599 11.0953C226.81 11.4276 227.023 11.7592 227.235 12.0908C227.322 12.2272 227.41 12.3637 227.497 12.5001C227.54 12.5678 227.583 12.6354 227.627 12.703C227.737 12.8761 227.848 13.0491 227.958 13.2222C228.242 13.6655 228.242 13.6655 228.527 14.1075C228.679 14.3414 228.828 14.5766 228.978 14.8119C229.189 15.1442 229.401 15.4758 229.613 15.8074C229.701 15.9438 229.788 16.0803 229.875 16.2168C229.918 16.2842 229.962 16.3516 230.005 16.4191C230.106 16.5767 230.206 16.7343 230.307 16.892C230.342 16.9476 230.378 17.0031 230.413 17.0586C230.458 17.128 230.502 17.1974 230.546 17.2668C230.656 17.4387 230.767 17.6092 230.883 17.777C230.918 17.8343 230.918 17.8343 230.918 17.8995C230.939 17.8995 230.961 17.8995 230.983 17.8995C230.992 17.8761 231 17.8527 231.009 17.8286C231.049 17.734 231.097 17.6538 231.152 17.5675C231.173 17.535 231.194 17.5024 231.216 17.4689C231.25 17.4168 231.25 17.4168 231.284 17.3636C231.308 17.3271 231.331 17.2905 231.355 17.2539C231.403 17.1791 231.451 17.1044 231.5 17.0297C231.601 16.8725 231.701 16.7146 231.802 16.5567C231.839 16.4977 231.877 16.4387 231.914 16.3797C231.951 16.3212 231.988 16.2627 232.026 16.2042C232.286 15.7944 232.547 15.3849 232.809 14.9759C233.026 14.636 233.243 14.2954 233.459 13.9547C233.72 13.5449 233.98 13.1354 234.242 12.7264C234.46 12.3864 234.676 12.0459 234.893 11.7052C235.153 11.2953 235.414 10.8857 235.676 10.4767C235.817 10.2561 235.958 10.0353 236.098 9.8143C236.261 9.55861 236.424 9.30328 236.587 9.04816C236.789 8.73305 236.99 8.4176 237.19 8.10181C237.271 7.97498 237.352 7.84824 237.432 7.72154C237.454 7.6885 237.475 7.65545 237.496 7.62141C237.537 7.55772 237.578 7.49405 237.618 7.4304C237.636 7.40195 237.654 7.37351 237.673 7.3442C237.689 7.31906 237.705 7.29392 237.722 7.26802C237.761 7.20668 237.761 7.20668 237.793 7.14095C238.954 7.14095 240.115 7.14095 241.311 7.14095C241.311 13.6499 241.311 20.1588 241.311 26.865C240.225 26.865 239.139 26.865 238.021 26.865C238.01 22.4648 237.999 18.0645 237.988 13.5309C237.784 13.8321 237.579 14.1334 237.369 14.4437C237.162 14.7488 236.955 15.0537 236.747 15.3587C236.482 15.749 236.217 16.1395 235.952 16.5303C235.642 16.9876 235.331 17.4446 235.02 17.9016C234.755 18.292 234.49 18.6825 234.225 19.0732C233.915 19.5306 233.604 19.9876 233.293 20.4445C233.248 20.5115 233.203 20.5784 233.157 20.6453C233.112 20.7121 233.066 20.779 233.021 20.8458C232.908 21.0119 232.795 21.1782 232.682 21.3447C232.626 21.4284 232.569 21.5121 232.513 21.5958C232.486 21.6361 232.458 21.6764 232.431 21.7168C232.393 21.7731 232.355 21.8294 232.317 21.8856C232.295 21.9178 232.274 21.95 232.251 21.9832C232.231 22.0127 232.21 22.0422 232.188 22.0726C232.17 22.1008 232.152 22.129 232.133 22.1581C232.034 22.2603 231.981 22.2572 231.841 22.2598C231.82 22.2604 231.798 22.261 231.776 22.2616C231.705 22.2633 231.634 22.2638 231.563 22.2641C231.513 22.2647 231.464 22.2653 231.414 22.266C231.31 22.2671 231.206 22.2675 231.102 22.2676C230.969 22.2677 230.837 22.2703 230.704 22.2735C230.601 22.2755 230.499 22.276 230.397 22.2759C230.348 22.2762 230.299 22.277 230.25 22.2785C229.869 22.2887 229.869 22.2887 229.724 22.1588C229.657 22.0676 229.603 21.9765 229.549 21.8769C229.512 21.821 229.473 21.7653 229.434 21.7102C229.396 21.6538 229.357 21.5973 229.319 21.5407C229.276 21.4778 229.234 21.4149 229.191 21.352C229.159 21.3043 229.159 21.3043 229.126 21.2556C229.021 21.1019 228.917 20.9484 228.812 20.795C228.792 20.7652 228.772 20.7354 228.751 20.7046C228.603 20.4887 228.456 20.2729 228.308 20.0572C228.152 19.8293 227.997 19.6011 227.842 19.3729C227.71 19.1805 227.579 18.9882 227.448 18.7961C227.275 18.543 227.102 18.2896 226.929 18.0362C226.798 17.8438 226.667 17.6515 226.535 17.4594C226.362 17.2063 226.19 16.953 226.017 16.6995C225.886 16.5071 225.755 16.3149 225.623 16.1227C225.368 15.7502 225.114 15.3772 224.86 15.0041C224.718 14.7956 224.576 14.587 224.434 14.3785C224.414 14.3495 224.394 14.3205 224.374 14.2906C224.317 14.2065 224.259 14.1224 224.202 14.0383C224.185 14.0134 224.168 13.9885 224.15 13.9629C224.134 13.9394 224.118 13.9159 224.102 13.8917C224.088 13.8715 224.074 13.8513 224.06 13.8305C223.99 13.73 223.919 13.6306 223.847 13.5309C223.837 17.9312 223.826 22.3314 223.815 26.865C222.74 26.865 221.664 26.865 220.557 26.865C220.557 20.3561 220.557 13.8471 220.557 7.14095Z" fill="#FF4E4E"/>
<path d="M110.104 7.14095C111.265 7.14095 112.426 7.14095 113.622 7.14095C113.741 7.33461 113.859 7.52826 113.981 7.72778C114.047 7.83219 114.114 7.93616 114.182 8.03954C114.218 8.09445 114.254 8.14938 114.29 8.20433C114.309 8.23269 114.327 8.26104 114.346 8.29026C114.451 8.45201 114.555 8.61459 114.659 8.77715C114.681 8.81139 114.703 8.84562 114.725 8.88089C114.77 8.95071 114.814 9.02053 114.859 9.09036C114.968 9.26109 115.077 9.43174 115.186 9.60239C115.23 9.67031 115.273 9.73823 115.317 9.80615C115.349 9.85658 115.349 9.85658 115.382 9.90803C116.62 11.8438 116.62 11.8438 116.685 11.9457C116.728 12.0134 116.772 12.0811 116.815 12.1488C116.926 12.3218 117.036 12.4949 117.147 12.668C117.43 13.1113 117.43 13.1113 117.716 13.5533C117.867 13.7872 118.017 14.0223 118.166 14.2577C118.377 14.59 118.59 14.9216 118.802 15.2531C118.889 15.3896 118.976 15.526 119.064 15.6625C119.107 15.7301 119.15 15.7978 119.194 15.8654C119.304 16.0384 119.415 16.2115 119.525 16.3846C119.72 16.6888 119.914 16.9931 120.11 17.2964C120.125 17.3186 120.139 17.3408 120.154 17.3636C120.245 17.505 120.338 17.645 120.434 17.7833C120.465 17.8343 120.465 17.8343 120.465 17.8995C120.486 17.8995 120.508 17.8995 120.53 17.8995C120.537 17.8782 120.544 17.8568 120.552 17.8348C120.609 17.7036 120.685 17.5878 120.762 17.4676C120.779 17.4408 120.796 17.414 120.814 17.3864C120.871 17.2965 120.928 17.2068 120.986 17.1171C121.028 17.0515 121.07 16.9859 121.112 16.9203C121.2 16.7824 121.288 16.6445 121.376 16.5066C121.498 16.317 121.619 16.1272 121.739 15.9373C121.767 15.8934 121.767 15.8934 121.796 15.8486C121.852 15.7607 121.908 15.6727 121.963 15.5848C122.224 15.175 122.485 14.7655 122.746 14.3565C122.964 14.0165 123.181 13.676 123.397 13.3353C123.657 12.9254 123.918 12.5159 124.18 12.107C124.398 11.767 124.614 11.4264 124.831 11.0858C125.091 10.6758 125.352 10.2663 125.614 9.85724C125.755 9.63668 125.896 9.41588 126.036 9.19486C126.199 8.93918 126.362 8.68385 126.525 8.42872C126.697 8.15994 126.869 7.89103 127.04 7.62183C127.059 7.59214 127.078 7.56245 127.097 7.53186C127.115 7.50422 127.133 7.47659 127.151 7.44812C127.166 7.42412 127.181 7.40011 127.197 7.37537C127.245 7.29787 127.292 7.21937 127.339 7.14095C128.49 7.14095 129.64 7.14095 130.826 7.14095C130.826 13.6499 130.826 20.1588 130.826 26.865C129.751 26.865 128.675 26.865 127.568 26.865C127.557 22.4648 127.546 18.0645 127.535 13.5309C127.188 14.0379 127.188 14.0379 126.843 14.5456C126.795 14.6155 126.748 14.6853 126.7 14.7551C126.677 14.79 126.653 14.8248 126.629 14.8608C126.559 14.9627 126.49 15.0646 126.421 15.1665C126.178 15.5231 125.936 15.8799 125.694 16.2368C125.384 16.6942 125.073 17.1512 124.763 17.6082C124.497 17.9986 124.232 18.3891 123.967 18.7798C123.657 19.2371 123.347 19.6942 123.036 20.1511C122.99 20.218 122.945 20.2849 122.899 20.3518C122.854 20.4189 122.808 20.4859 122.763 20.553C122.652 20.7165 122.541 20.88 122.43 21.0437C122.375 21.1246 122.321 21.2054 122.266 21.2862C122.24 21.3246 122.214 21.3629 122.188 21.4012C122.129 21.489 122.07 21.5764 122.009 21.6632C121.956 21.7396 121.909 21.8171 121.863 21.8981C121.764 22.0672 121.68 22.208 121.491 22.2775C121.355 22.2932 121.226 22.2949 121.089 22.2905C121.04 22.2903 120.991 22.2904 120.941 22.2906C120.838 22.2905 120.735 22.2889 120.632 22.2861C120.501 22.2826 120.37 22.2824 120.238 22.2833C120.136 22.2837 120.035 22.2827 119.933 22.2812C119.884 22.2806 119.836 22.2804 119.787 22.2805C119.412 22.2804 119.412 22.2804 119.278 22.1713C119.22 22.0973 119.173 22.0248 119.129 21.9422C119.103 21.9039 119.077 21.8659 119.05 21.8283C119.026 21.7916 119.002 21.7548 118.978 21.718C118.95 21.6753 118.922 21.6327 118.894 21.59C118.879 21.5678 118.864 21.5455 118.849 21.5226C118.768 21.4002 118.684 21.2789 118.601 21.1577C118.565 21.1049 118.529 21.0521 118.493 20.9992C118.474 20.9722 118.456 20.9452 118.437 20.9174C118.337 20.7722 118.238 20.6267 118.139 20.4812C118.119 20.4513 118.098 20.4214 118.077 20.3907C117.994 20.2687 117.911 20.1467 117.828 20.0248C117.599 19.6876 117.369 19.3506 117.138 19.014C116.983 18.786 116.827 18.5578 116.672 18.3296C116.541 18.1372 116.409 17.9449 116.278 17.7528C116.023 17.3803 115.769 17.0072 115.515 16.6342C115.302 16.3223 115.09 16.0104 114.877 15.6989C114.726 15.4783 114.575 15.2576 114.425 15.0367C114.404 15.0069 114.384 14.9772 114.363 14.9465C114.258 14.7917 114.152 14.6368 114.047 14.482C114.026 14.4506 114.004 14.4193 113.982 14.3871C113.942 14.3282 113.902 14.2694 113.862 14.2105C113.707 13.9831 113.551 13.7571 113.394 13.5309C113.384 17.9312 113.373 22.3314 113.362 26.865C112.287 26.865 111.211 26.865 110.104 26.865C110.104 20.3561 110.104 13.8471 110.104 7.14095Z" fill="#FF4E4E"/>
<path d="M96.4106 6.90604C96.4643 6.90576 96.4643 6.90576 96.5191 6.90548C96.5947 6.90517 96.6703 6.90496 96.7459 6.90483C96.8585 6.90452 96.9711 6.90351 97.0836 6.90248C97.7381 6.89936 98.3869 6.95481 99.0292 7.08382C99.0637 7.09064 99.0982 7.09746 99.1337 7.10448C99.5062 7.18104 99.8691 7.28446 100.231 7.40169C100.26 7.41104 100.289 7.42039 100.319 7.43003C101.775 7.90459 103.085 8.75744 104.167 9.83256C104.195 9.86067 104.224 9.88878 104.253 9.91775C104.446 10.1122 104.622 10.3163 104.792 10.5315C104.808 10.5513 104.824 10.5711 104.84 10.5916C105.912 11.9339 106.594 13.5623 106.845 15.2587C106.852 15.3053 106.852 15.3053 106.86 15.3528C107.023 16.4316 107.02 17.6056 106.845 18.6819C106.839 18.7175 106.833 18.7531 106.827 18.7897C106.666 19.7516 106.389 20.6725 105.965 21.5509C105.944 21.5949 105.944 21.5949 105.922 21.6399C105.541 22.4225 105.057 23.1518 104.468 23.7931C104.407 23.8589 104.349 23.926 104.291 23.9939C104.063 24.2545 103.818 24.4906 103.547 24.7058C103.487 24.7537 103.428 24.8027 103.371 24.8531C102.487 25.6237 101.396 26.1563 100.296 26.5389C100.266 26.5494 100.235 26.5599 100.204 26.5708C97.6132 27.4538 94.6511 27.1891 92.2084 25.9998C91.5698 25.6821 90.9784 25.2914 90.4235 24.8436C90.4063 24.8298 90.3891 24.8161 90.3714 24.8019C89.8784 24.4026 89.4053 23.9486 89.0224 23.4418C88.99 23.4007 88.9575 23.3598 88.925 23.3189C88.5221 22.8081 88.1833 22.2575 87.8821 21.6813C87.8698 21.6578 87.8575 21.6343 87.8448 21.6101C87.3469 20.6439 87.0409 19.5628 86.9046 18.4863C86.9018 18.4644 86.899 18.4425 86.8961 18.4199C86.8366 17.9415 86.8277 17.4662 86.8293 16.9846C86.8293 16.9464 86.8294 16.9083 86.8294 16.869C86.8309 16.3154 86.8436 15.773 86.9372 15.2261C86.9428 15.1916 86.9484 15.157 86.9541 15.1214C87.2572 13.2787 88.075 11.5038 89.3579 10.1374C89.4255 10.0645 89.4906 9.99083 89.5553 9.91546C89.6702 9.78359 89.7926 9.66239 89.9205 9.54322C89.9544 9.51156 89.9544 9.51156 89.989 9.47926C90.2003 9.28431 90.421 9.1055 90.6515 8.93397C90.6691 8.92077 90.6866 8.90757 90.7046 8.89397C92.3244 7.6773 94.3753 6.91452 96.4106 6.90604ZM91.94 11.8128C91.7926 11.9748 91.6598 12.1475 91.5313 12.3246C91.5176 12.3433 91.504 12.362 91.4899 12.3813C91.0934 12.9331 90.8054 13.5413 90.5864 14.1829C90.5774 14.2088 90.5683 14.2348 90.559 14.2616C89.8759 16.2604 90.0122 18.6969 90.9236 20.5994C91.6897 22.1502 92.9568 23.3301 94.6042 23.8921C94.9738 24.0126 95.3518 24.0924 95.7343 24.159C95.7585 24.1633 95.7827 24.1676 95.8076 24.1721C97.4932 24.4593 99.3859 24.0667 100.785 23.0852C102.31 21.9828 103.205 20.3047 103.509 18.4686C103.841 16.3559 103.508 14.072 102.236 12.315C102.041 12.0515 101.827 11.8104 101.599 11.5747C101.57 11.5429 101.57 11.5429 101.54 11.5104C100.463 10.3683 98.7524 9.80442 97.2213 9.75195C97.1822 9.75098 97.1431 9.75001 97.1028 9.74902C97.0701 9.74771 97.0374 9.74641 97.0036 9.74507C95.092 9.70211 93.253 10.4181 91.94 11.8128Z" fill="#FF4E4E"/>
<path d="M168.099 7.14095C175.946 7.14095 175.946 7.14095 176.717 7.27951C176.757 7.28656 176.797 7.2936 176.839 7.30087C177.192 7.36495 177.534 7.44984 177.873 7.56478C177.901 7.57414 177.929 7.5835 177.957 7.59314C178.805 7.88453 179.557 8.32998 180.219 8.93405C180.236 8.94898 180.252 8.96392 180.269 8.97931C181.22 9.85847 181.812 11.197 181.885 12.4893C181.887 12.559 181.888 12.6287 181.889 12.6985C181.889 12.7243 181.889 12.75 181.89 12.7765C181.895 13.3538 181.89 13.9124 181.751 14.4763C181.74 14.5181 181.74 14.5181 181.73 14.5608C181.364 16.0021 180.489 17.2391 179.211 18.0028C178.641 18.334 178.021 18.5527 177.385 18.7146C177.566 19.0353 177.752 19.3534 177.94 19.6702C177.968 19.7163 177.995 19.7623 178.023 19.8084C178.203 20.1124 178.385 20.4159 178.567 20.7191C178.747 21.0182 178.925 21.3183 179.103 21.6185C179.292 21.9388 179.483 22.2586 179.675 22.5777C179.787 22.7641 179.898 22.9508 180.009 23.1378C180.022 23.1594 180.035 23.1811 180.048 23.2033C180.074 23.2476 180.1 23.2919 180.127 23.3361C180.14 23.3582 180.153 23.3803 180.166 23.4031C180.179 23.4252 180.192 23.4473 180.206 23.4701C180.4 23.798 180.597 24.1242 180.795 24.4496C180.982 24.756 181.164 25.0649 181.345 25.3751C181.476 25.5999 181.608 25.8238 181.743 26.0459C181.756 26.0669 181.769 26.0878 181.782 26.1094C181.843 26.2102 181.905 26.3108 181.967 26.4112C181.989 26.447 182.011 26.4828 182.033 26.5196C182.053 26.551 182.072 26.5824 182.092 26.6147C182.142 26.702 182.142 26.702 182.207 26.865C180.916 26.865 179.626 26.865 178.297 26.865C178.146 26.5961 177.996 26.3271 177.841 26.05C177.672 25.76 177.672 25.76 177.503 25.4704C177.376 25.2529 177.251 25.0341 177.126 24.8152C176.958 24.5199 176.789 24.2251 176.619 23.9309C176.449 23.6366 176.28 23.3418 176.112 23.0465C175.951 22.7645 175.789 22.4832 175.625 22.203C175.461 21.9227 175.299 21.6415 175.138 21.3594C174.969 21.0615 174.798 20.7639 174.627 20.4669C174.61 20.4366 174.592 20.4062 174.574 20.375C174.547 20.3285 174.547 20.3285 174.52 20.281C174.491 20.2284 174.491 20.2284 174.462 20.1748C174.406 20.0772 174.341 19.9915 174.271 19.9033C173.812 19.2825 173.876 18.6231 173.9 17.8851C173.904 17.7173 173.906 17.5494 173.909 17.3815C173.913 17.0542 173.921 16.727 173.931 16.3999C173.962 16.399 173.994 16.3981 174.026 16.3972C174.144 16.394 174.263 16.3906 174.381 16.3873C174.432 16.3858 174.483 16.3844 174.534 16.383C175.666 16.352 176.788 16.2675 177.655 15.4497C178.283 14.7852 178.546 13.8943 178.536 12.9916C178.507 12.0891 178.237 11.2572 177.574 10.6232C176.026 9.30642 172.792 9.82616 171.357 9.8143C171.357 15.441 171.357 21.0678 171.357 26.865C170.282 26.865 169.206 26.865 168.099 26.865C168.099 20.3561 168.099 13.8471 168.099 7.14095Z" fill="#FF4E4E"/>
<path d="M206.773 7.13715C206.8 7.13718 206.828 7.13721 206.857 7.13724C206.889 7.1372 206.921 7.13715 206.954 7.13711C206.989 7.13723 207.024 7.13734 207.06 7.13746C207.116 7.13746 207.116 7.13746 207.172 7.13745C207.294 7.13747 207.417 7.13773 207.54 7.13798C207.624 7.13804 207.709 7.13809 207.794 7.13812C207.994 7.13823 208.195 7.13849 208.395 7.13882C208.624 7.13918 208.852 7.13936 209.08 7.13952C209.55 7.13986 210.019 7.14044 210.489 7.14116C210.714 7.75272 210.937 8.36514 211.155 8.97909C211.183 9.05776 211.211 9.13644 211.239 9.21511C211.297 9.3776 211.355 9.54011 211.413 9.70261C211.551 10.0898 211.689 10.4768 211.827 10.8639C211.84 10.9016 211.854 10.9393 211.868 10.9782C212.078 11.5662 212.288 12.1539 212.499 12.7416C212.712 13.3363 212.924 13.9314 213.137 14.5265C213.334 15.0805 213.533 15.6344 213.731 16.1882C213.943 16.7782 214.154 17.3685 214.364 17.9588C214.378 17.9966 214.391 18.0344 214.405 18.0734C214.515 18.3799 214.624 18.6864 214.733 18.9929C214.829 19.2609 214.924 19.5288 215.02 19.7968C215.034 19.8346 215.047 19.8724 215.061 19.9113C215.271 20.4992 215.481 21.0869 215.692 21.6745C215.891 22.2309 216.09 22.7875 216.289 23.3442C216.508 23.9577 216.727 24.571 216.946 25.1842C216.959 25.219 216.971 25.2537 216.984 25.2896C217.008 25.3572 217.033 25.4249 217.057 25.4926C217.08 25.5579 217.104 25.6232 217.127 25.6885C217.19 25.8637 217.253 26.0388 217.317 26.2137C217.33 26.2513 217.344 26.2889 217.358 26.3276C217.384 26.4002 217.411 26.4727 217.437 26.5453C217.449 26.5777 217.461 26.6101 217.473 26.6435C217.483 26.6722 217.494 26.7009 217.504 26.7305C217.527 26.8 217.527 26.8 217.527 26.8652C216.387 26.8652 215.247 26.8652 214.073 26.8652C213.923 26.4241 213.772 25.983 213.617 25.5286C213.537 25.2968 213.456 25.0651 213.375 24.8337C213.357 24.7825 213.339 24.7313 213.321 24.6801C213.312 24.6546 213.303 24.6291 213.294 24.6029C213.276 24.5528 213.259 24.5027 213.241 24.4526C213.193 24.3166 213.145 24.1807 213.097 24.045C213.086 24.0152 213.076 23.9854 213.065 23.9547C213.044 23.8971 213.024 23.8394 213.003 23.7819C212.994 23.7559 212.985 23.73 212.975 23.7032C212.967 23.6803 212.959 23.6574 212.95 23.6337C212.933 23.5724 212.933 23.5724 212.933 23.4746C210.868 23.4746 208.804 23.4746 206.677 23.4746C206.699 23.2959 206.726 23.1307 206.77 22.9578C206.776 22.9337 206.782 22.9096 206.788 22.8848C206.807 22.806 206.827 22.7273 206.847 22.6486C206.861 22.5936 206.875 22.5386 206.888 22.4836C206.917 22.3687 206.946 22.2539 206.975 22.1391C207.012 21.9918 207.049 21.8445 207.086 21.6971C207.114 21.5837 207.142 21.4703 207.171 21.357C207.184 21.3026 207.198 21.2483 207.212 21.1939C207.231 21.1182 207.25 21.0425 207.269 20.9668C207.274 20.9443 207.28 20.9218 207.286 20.8986C207.325 20.7436 207.325 20.7436 207.361 20.6709C208.867 20.6709 210.372 20.6709 211.923 20.6709C211.74 20.1545 211.557 19.6381 211.369 19.106C211.184 18.5734 211.184 18.5734 211.094 18.3113C210.89 17.7165 210.684 17.1229 210.473 16.5305C210.274 15.9719 210.079 15.4121 209.886 14.8515C209.635 14.1206 209.379 13.3916 209.12 12.6633C209.005 12.3389 208.89 12.014 208.777 11.6891C208.767 11.6629 208.758 11.6366 208.749 11.6096C208.699 11.4677 208.649 11.3257 208.599 11.1838C208.446 11.5861 208.302 11.9918 208.16 12.3983C207.932 13.0507 207.701 13.7019 207.467 14.3523C207.282 14.8676 207.099 15.3835 206.919 15.9008C206.687 16.5722 206.446 17.2406 206.205 17.9089C206.064 18.3002 205.923 18.6919 205.783 19.0836C205.757 19.1559 205.731 19.2283 205.705 19.3006C205.653 19.4458 205.601 19.5909 205.549 19.7361C205.433 20.0606 205.317 20.3852 205.201 20.7097C205.136 20.8897 205.072 21.0696 205.007 21.2496C204.981 21.3216 204.956 21.3936 204.93 21.4656C204.911 21.519 204.911 21.519 204.891 21.5736C203.943 24.2194 203.943 24.2194 202.995 26.8652C201.899 26.8652 200.802 26.8652 199.672 26.8652C199.745 26.5352 199.745 26.5352 199.791 26.4089C199.801 26.3801 199.812 26.3514 199.822 26.3217C199.839 26.276 199.839 26.276 199.856 26.2294C199.874 26.1799 199.874 26.1799 199.892 26.1295C199.931 26.0208 199.97 25.9122 200.01 25.8036C200.038 25.7265 200.066 25.6493 200.093 25.5722C200.144 25.4311 200.195 25.2901 200.246 25.1491C200.379 24.7813 200.51 24.413 200.641 24.0446C200.71 23.8536 200.778 23.6626 200.846 23.4716C200.859 23.4338 200.873 23.3961 200.887 23.3572C201.043 22.9204 201.199 22.4838 201.356 22.0473C201.555 21.4908 201.754 20.9342 201.953 20.3775C202.164 19.785 202.376 19.1928 202.588 18.6007C202.8 18.0106 203.011 17.4204 203.221 16.83C203.235 16.7922 203.248 16.7544 203.262 16.7155C203.358 16.4473 203.453 16.1792 203.549 15.911C203.658 15.6047 203.768 15.2984 203.877 14.9921C203.89 14.9543 203.904 14.9165 203.918 14.8775C204.128 14.2896 204.338 13.702 204.549 13.1144C204.748 12.558 204.947 12.0013 205.146 11.4446C205.421 10.6719 205.698 9.89938 205.975 9.12718C206.055 8.90225 206.136 8.67727 206.216 8.45227C206.271 8.29915 206.326 8.14605 206.381 7.99296C206.407 7.91996 206.433 7.84694 206.459 7.77391C206.495 7.6735 206.531 7.57314 206.567 7.47279C206.578 7.44279 206.589 7.41279 206.6 7.38189C206.614 7.3412 206.614 7.3412 206.629 7.29968C206.638 7.27601 206.646 7.25234 206.655 7.22794C206.685 7.15352 206.691 7.14235 206.773 7.13715Z" fill="#FF4E4E"/>
<path d="M75.0268 6.90048C75.0645 6.90062 75.1021 6.90076 75.1409 6.9009C75.6901 6.90331 76.2296 6.91701 76.772 7.01051C76.8243 7.01916 76.8243 7.01916 76.8777 7.02799C78.5513 7.30994 80.139 7.95902 81.4638 9.03182C81.4814 9.04599 81.499 9.06016 81.5171 9.07477C81.9858 9.45632 82.4359 9.88487 82.7997 10.3685C82.8158 10.3891 82.8318 10.4098 82.8484 10.4311C83.2705 10.9732 83.6148 11.5554 83.9136 12.1738C83.9354 12.2188 83.9354 12.2188 83.9576 12.2647C84.0232 12.4045 84.0777 12.5409 84.1216 12.6891C84.1303 12.7185 84.139 12.7479 84.148 12.7782C84.1547 12.8006 84.1613 12.8231 84.1681 12.8462C83.6646 12.8607 83.1611 12.8716 82.6574 12.8783C82.4234 12.8815 82.1896 12.8858 81.9558 12.893C81.7518 12.8992 81.5479 12.9031 81.3439 12.9045C81.2359 12.9053 81.1282 12.9075 81.0203 12.9117C80.3635 12.9363 80.3635 12.9363 80.1883 12.7864C80.0706 12.6394 79.9989 12.4784 79.9323 12.3035C79.8827 12.186 79.8125 12.0864 79.737 11.9843C79.7229 11.9651 79.7089 11.9459 79.6944 11.9262C79.5496 11.7303 79.3844 11.5543 79.2157 11.3791C79.1907 11.3517 79.1658 11.3243 79.1401 11.2961C78.1235 10.2134 76.5642 9.83431 75.135 9.77746C74.028 9.75714 72.9125 9.97896 71.9173 10.4663C71.8935 10.4779 71.8698 10.4894 71.8453 10.5013C70.7769 11.0282 69.8923 11.8782 69.3111 12.9177C69.2789 12.9753 69.2458 13.0324 69.2126 13.0895C68.1612 14.9367 68.0901 17.3817 68.6265 19.3992C68.9094 20.4175 69.4101 21.3558 70.1268 22.1331C70.1783 22.1897 70.2266 22.2468 70.2739 22.3068C71.1968 23.3724 72.7076 23.9515 74.0677 24.1264C74.1014 24.131 74.1014 24.131 74.1358 24.1357C74.4187 24.1696 74.7036 24.167 74.9881 24.1672C75.0295 24.1672 75.0295 24.1672 75.0717 24.1673C75.5041 24.1667 75.9236 24.1481 76.3484 24.0612C76.3772 24.0555 76.406 24.0497 76.4357 24.0437C76.8218 23.9642 77.1916 23.8582 77.554 23.7026C77.5766 23.6929 77.5993 23.6832 77.6227 23.6732C78.638 23.2314 79.4101 22.525 79.9839 21.5841C79.996 21.5647 80.0082 21.5453 80.0208 21.5253C80.0647 21.4527 80.0647 21.4527 80.0999 21.3703C80.2091 21.1452 80.2091 21.1452 80.3385 21.0975C80.4401 21.0868 80.5372 21.0867 80.6394 21.0901C80.6966 21.09 80.6966 21.09 80.755 21.0899C80.881 21.0901 81.0067 21.0927 81.1327 21.0952C81.22 21.0958 81.3074 21.0963 81.3948 21.0966C81.6011 21.0976 81.8074 21.1003 82.0137 21.1036C82.2487 21.1072 82.4837 21.109 82.7186 21.1107C83.2018 21.1141 83.685 21.1198 84.1681 21.1271C84.1526 21.1742 84.1369 21.2214 84.1213 21.2685C84.1083 21.3079 84.1083 21.3079 84.095 21.3481C83.7714 22.3005 83.1643 23.2145 82.484 23.9472C82.4173 24.0194 82.3526 24.0927 82.2886 24.1672C81.8419 24.6799 81.2875 25.1018 80.7144 25.4631C80.695 25.4754 80.6755 25.4877 80.6554 25.5004C79.2993 26.3501 77.8035 26.8169 76.2181 26.9954C76.1892 26.9988 76.1603 27.0022 76.1304 27.0057C75.2159 27.0985 74.2246 27.0811 73.3183 26.9302C73.2792 26.9237 73.2401 26.9172 73.1998 26.9106C71.4781 26.6148 69.839 25.9052 68.4962 24.7785C68.472 24.7586 68.472 24.7586 68.4473 24.7384C67.987 24.3602 67.5586 23.9453 67.1929 23.4744C67.1632 23.4384 67.1333 23.4026 67.1034 23.3668C65.8566 21.8646 65.1392 19.9331 64.9773 17.9973C64.9737 17.9594 64.9701 17.9214 64.9663 17.8823C64.7516 15.2075 65.4778 12.4978 67.2193 10.4317C67.2752 10.3667 67.3317 10.3024 67.3884 10.2381C67.4115 10.2113 67.4346 10.1845 67.4585 10.157C67.7855 9.78469 68.136 9.43209 68.5287 9.12962C68.5707 9.09653 68.6126 9.06342 68.6545 9.03029C69.8904 8.06077 71.3494 7.38925 72.8907 7.08386C72.9209 7.07778 72.9512 7.0717 72.9824 7.06543C73.6602 6.93935 74.3384 6.89555 75.0268 6.90048Z" fill="#FF4E4E"/>
<path d="M140.937 6.90604C140.971 6.90586 141.005 6.90567 141.041 6.90548C141.114 6.90517 141.186 6.90496 141.259 6.90483C141.367 6.90452 141.475 6.90351 141.584 6.90248C142.787 6.89652 144.07 7.09929 145.133 7.69423C145.197 7.72999 145.262 7.76447 145.327 7.7989C145.605 7.94871 145.86 8.11495 146.106 8.31454C146.123 8.32876 146.141 8.34297 146.159 8.35762C147.279 9.27205 147.92 10.5035 148.117 11.9299C148.127 12.0502 148.126 12.1712 148.126 12.292C146.943 12.292 145.76 12.292 144.542 12.292C144.509 12.1521 144.477 12.0122 144.444 11.8681C144.228 11.1376 143.758 10.5419 143.088 10.1718C142.121 9.6565 140.939 9.56128 139.886 9.84784C139.446 9.98192 139.052 10.1914 138.71 10.4989C138.689 10.5161 138.669 10.5333 138.648 10.5511C138.17 10.9865 137.995 11.6582 137.964 12.2817C137.941 12.9011 138.118 13.42 138.518 13.8915C139.422 14.8566 140.896 15.1539 142.12 15.4951C146.639 16.7563 146.639 16.7563 147.767 18.6493C148.076 19.2047 148.24 19.7822 148.321 20.4098C148.324 20.4338 148.327 20.4579 148.331 20.4827C148.498 21.9388 148.15 23.4387 147.236 24.6003C147.104 24.7633 146.966 24.9197 146.822 25.0718C146.797 25.0999 146.771 25.1279 146.744 25.1568C145.781 26.1635 144.43 26.7363 143.076 26.9627C143.029 26.9708 143.029 26.9708 142.981 26.9789C140.891 27.3189 138.492 26.9567 136.75 25.7067C136.583 25.5831 136.428 25.4509 136.277 25.3074C136.209 25.2427 136.139 25.1827 136.066 25.1228C135.905 24.9823 135.778 24.8162 135.647 24.648C135.61 24.6026 135.61 24.6026 135.573 24.5563C135.048 23.8831 134.734 23.0838 134.608 22.2416C134.604 22.216 134.6 22.1904 134.596 22.164C134.562 21.9014 134.572 21.659 134.572 21.3878C135.722 21.3878 136.873 21.3878 138.058 21.3878C138.101 21.603 138.144 21.8182 138.188 22.0399C138.329 22.4928 138.522 22.8915 138.84 23.2461C138.866 23.2757 138.893 23.3052 138.92 23.3357C139.571 24.0239 140.482 24.2651 141.405 24.2955C142.399 24.3151 143.474 24.1194 144.225 23.4213C144.771 22.8852 145.032 22.2208 145.041 21.4592C145.038 20.7613 144.825 20.2122 144.34 19.7048C144.152 19.5228 143.95 19.3723 143.727 19.2361C143.708 19.2243 143.689 19.2125 143.669 19.2003C142.747 18.6441 141.613 18.4229 140.584 18.1408C137.519 17.2998 137.519 17.2998 136.592 16.5954C136.565 16.5751 136.538 16.5549 136.51 16.534C135.442 15.7056 134.822 14.6564 134.65 13.3103C134.623 13.0566 134.625 12.8015 134.627 12.5467C134.627 12.5186 134.627 12.4905 134.627 12.4616C134.628 12.0508 134.638 11.6499 134.735 11.2487C134.741 11.2213 134.747 11.1939 134.754 11.1657C135.078 9.83823 135.907 8.67975 137.076 7.96471C138.235 7.27517 139.587 6.9119 140.937 6.90604Z" fill="#FF4E4E"/>
<path d="M185.985 7.14095C189.523 7.14095 193.06 7.14095 196.705 7.14095C196.705 8.0124 196.705 8.88384 196.705 9.7817C194.081 9.7817 191.458 9.7817 188.755 9.7817C188.755 14.537 188.755 19.2923 188.755 24.1917C191.378 24.1917 194.002 24.1917 196.705 24.1917C196.705 25.0739 196.705 25.9561 196.705 26.865C193.167 26.865 189.63 26.865 185.985 26.865C185.985 20.3561 185.985 13.8471 185.985 7.14095Z" fill="#FF4E4E"/>
<path d="M151.123 7.14095C155.66 7.14095 160.198 7.14095 164.873 7.14095C164.873 8.02316 164.873 8.90536 164.873 9.8143C163.152 9.8143 161.432 9.8143 159.66 9.8143C159.66 15.441 159.66 21.0678 159.66 26.865C158.584 26.865 157.509 26.865 156.401 26.865C156.401 21.2383 156.401 15.6115 156.401 9.8143C154.66 9.8143 152.918 9.8143 151.123 9.8143C151.123 8.93209 151.123 8.04989 151.123 7.14095Z" fill="#FF4E4E"/>
<path d="M190.322 15.5196C192.43 15.5196 194.537 15.5196 196.708 15.5196C196.708 16.4018 196.708 17.284 196.708 18.1929C194.601 18.1929 192.494 18.1929 190.322 18.1929C190.322 17.3107 190.322 16.4285 190.322 15.5196Z" fill="#FF4E4E"/>
</svg>
