<svg width="338" height="47" viewBox="0 0 338 47" fill="none" xmlns="http://www.w3.org/2000/svg">
<path d="M55.2029 0.86699C55.2566 0.866666 55.3104 0.866342 55.3658 0.866009C55.5384 0.865206 55.711 0.864909 55.8836 0.864841C55.9278 0.86482 55.9278 0.86482 55.9729 0.8648C56.9011 0.864731 57.8154 0.880165 58.7358 1.01384C58.7673 1.0184 58.7988 1.02296 58.8313 1.02766C62.7793 1.60412 66.5131 3.16087 69.708 5.78185C69.7739 5.83584 69.7739 5.83584 69.8411 5.89091C70.0781 6.0871 70.3079 6.28948 70.5328 6.49999C70.5941 6.55672 70.6555 6.61323 70.7187 6.66776C71.0186 6.92856 71.2938 7.21499 71.5714 7.50011C71.6587 7.5897 71.7462 7.67905 71.8337 7.76837C72.1049 8.04585 72.3725 8.32321 72.6189 8.62432C72.6568 8.66852 72.6947 8.71273 72.7337 8.75827C75.6538 12.2266 77.4399 16.6255 77.9931 22.7908C77.9941 22.8374 77.995 22.884 77.9961 22.932C78.0623 26.7175 77.2226 30.3643 75.5747 33.7481C75.5558 33.787 75.5369 33.8259 75.5174 33.866C75.0827 34.7529 74.5737 35.6021 74.0073 36.4071C73.9823 36.4426 73.9574 36.4781 73.9316 36.5146C73.6256 36.9478 73.3156 37.3752 72.9772 37.7825C72.957 37.807 72.9369 37.8315 72.9161 37.8567C72.8489 37.9382 72.7816 38.0194 72.7141 38.1006C72.6942 38.1247 72.6742 38.1487 72.6536 38.1735C72.2616 38.6417 71.8463 39.0864 71.4205 39.5222C71.3424 39.6022 71.2647 39.6826 71.1871 39.763C70.9192 40.0385 70.6483 40.2983 70.3499 40.5394C70.2496 40.6216 70.1549 40.7075 70.0606 40.7969C69.7508 41.0815 69.4144 41.3332 69.081 41.5878C69.0481 41.6129 69.0152 41.6381 68.9813 41.664C65.7425 44.1296 61.8485 45.5708 57.8401 45.9432C57.797 45.9475 57.7539 45.9519 57.7094 45.9564C56.2112 46.09 54.6277 46.067 53.1377 45.8515C53.1061 45.8469 53.0746 45.8423 53.0421 45.8376C48.633 45.1942 44.6746 43.3154 40.8124 39.8818C40.7301 39.7974 40.6445 39.7197 40.5561 39.6422C40.2633 39.3836 39.9959 39.1016 39.7444 38.8012C39.6582 38.7002 39.5698 38.6017 39.4807 38.5035C39.2297 38.2263 38.9913 37.9414 38.7619 37.645C38.7393 37.616 38.7168 37.5871 38.6936 37.5573C37.8773 36.5082 37.1541 35.4014 36.5332 34.2199C36.4959 34.149 36.4582 34.0782 36.4203 34.0076C35.8168 32.885 35.3557 31.705 34.9552 30.493C34.9387 30.446 34.9221 30.3991 34.9051 30.3507C34.8657 30.2179 34.8657 30.2179 34.8657 30.0345C36.2916 30.023 37.7175 30.0141 39.1434 30.0088C39.3118 30.0081 39.4802 30.0075 39.6486 30.0068C39.6989 30.0066 39.6989 30.0066 39.7502 30.0064C40.2928 30.0042 40.8354 30.0002 41.378 29.9956C41.9349 29.9909 42.4918 29.9881 43.0487 29.9871C43.3923 29.9864 43.7358 29.9842 44.0793 29.9801C44.3429 29.9771 44.6064 29.9768 44.87 29.9775C44.978 29.9773 45.0861 29.9763 45.1941 29.9744C46.0115 29.9605 46.0115 29.9605 46.2478 30.1445C46.3408 30.2731 46.4036 30.3922 46.4648 30.5388C46.5029 30.5977 46.5423 30.6558 46.5836 30.7124C46.6174 30.7619 46.6512 30.8115 46.686 30.8626C46.8776 31.1402 47.0892 31.3905 47.3157 31.6391C47.3635 31.6963 47.4111 31.7536 47.4585 31.8111C47.8498 32.2692 48.2792 32.6876 48.7488 33.0604C48.7917 33.0959 48.8346 33.1314 48.8788 33.168C51.3523 35.1829 54.5482 35.9876 57.6609 35.6278C59.9551 35.3305 62.1558 34.3062 63.886 32.7394C63.9429 32.6888 63.9429 32.6888 64.0009 32.6372C64.4811 32.204 64.926 31.7442 65.3191 31.2265C65.3544 31.1815 65.3896 31.1364 65.426 31.09C66.363 29.8842 67.0461 28.4857 67.4687 27.0087C67.4786 26.9742 67.4884 26.9398 67.4986 26.9044C68.3521 23.8445 67.9195 20.4963 66.4206 17.723C65.9741 16.9278 65.4416 16.2004 64.8378 15.5231C64.7694 15.4461 64.7016 15.3685 64.6345 15.2903C64.4278 15.05 64.2153 14.8353 63.9755 14.6302C63.9343 14.5931 63.893 14.5559 63.8505 14.5177C62.2333 13.07 60.1874 12.0827 58.064 11.7419C58.0197 11.7346 57.9755 11.7272 57.9298 11.7197C56.7025 11.5252 55.4377 11.5397 54.2125 11.7419C54.1696 11.7488 54.1267 11.7556 54.0824 11.7627C52.4601 12.0347 50.8573 12.7056 49.5102 13.6674C49.4564 13.7057 49.4564 13.7057 49.4014 13.7448C48.9784 14.0487 48.5779 14.3666 48.2053 14.7335C48.085 14.8516 47.9617 14.9647 47.8364 15.0772C47.6459 15.2524 47.4798 15.4379 47.3157 15.6388C47.2795 15.681 47.2432 15.7233 47.2059 15.7668C46.9184 16.1036 46.6611 16.4569 46.4122 16.8243C46.3923 16.8532 46.3725 16.882 46.3521 16.9116C46.2841 17.0128 46.2841 17.0128 46.2308 17.1212C46.078 17.4035 46.078 17.4035 45.918 17.4646C45.7952 17.4789 45.6781 17.4798 45.5545 17.4764C45.508 17.4768 45.4615 17.4771 45.4136 17.4775C45.2578 17.4782 45.1022 17.4759 44.9464 17.4736C44.8347 17.4735 44.723 17.4736 44.6114 17.4738C44.371 17.4739 44.1306 17.4727 43.8902 17.4704C43.5427 17.4671 43.1951 17.466 42.8476 17.4655C42.2836 17.4646 41.7197 17.4618 41.1558 17.4579C40.6081 17.4541 40.0604 17.4512 39.5127 17.4495C39.4789 17.4494 39.4451 17.4492 39.4103 17.4491C39.2409 17.4486 39.0714 17.4481 38.902 17.4476C37.4968 17.4433 36.0917 17.436 34.6865 17.4268C34.7003 17.3542 34.7142 17.2816 34.7281 17.209C34.7358 17.1686 34.7436 17.1282 34.7515 17.0865C34.7855 16.9231 34.8323 16.7661 34.8835 16.6076C34.899 16.5589 34.899 16.5589 34.9148 16.5092C34.9484 16.4042 34.9825 16.2994 35.0168 16.1947C35.0286 16.1584 35.0404 16.1222 35.0526 16.0848C35.2822 15.3838 35.5489 14.7062 35.8509 14.0342C35.8838 13.9604 35.8838 13.9604 35.9174 13.8851C36.5351 12.5079 37.2916 11.2121 38.1797 9.9997C38.2003 9.97165 38.2208 9.94359 38.242 9.91468C38.5881 9.44444 38.9521 8.99021 39.3273 8.54409C39.3627 8.50186 39.3627 8.50186 39.3987 8.45877C39.5452 8.28578 39.698 8.12233 39.8571 7.96161C39.9348 7.88209 40.0068 7.7992 40.0775 7.71312C40.3305 7.41352 40.6055 7.13934 40.8993 6.88198C41.0023 6.78943 41.1021 6.69383 41.2018 6.59765C41.474 6.33595 41.7556 6.09451 42.0518 5.8619C42.1539 5.78162 42.2538 5.69956 42.352 5.6144C42.7335 5.28643 43.1398 5.00127 43.5538 4.71879C43.582 4.69955 43.6101 4.68031 43.6391 4.66049C47.018 2.35503 51.1125 0.883539 55.2029 0.86699Z" fill="#FF4E4E"/>
<path d="M32.5594 4.85508C32.6262 5.02439 35.4116 6.61191 35.2209 6.83348C34.9322 7.1707 34.6645 7.52119 34.4026 7.88046C34.3274 7.98346 34.2515 8.08596 34.1757 8.18845C33.6109 8.95674 33.0953 9.76264 32.6262 10.5957C32.5931 10.6539 32.5931 10.6539 32.5594 10.7133C31.8716 11.9264 31.3065 13.1781 30.8038 14.4815C30.7292 14.671 30.649 14.857 30.5662 15.0428C30.5366 15.0428 30.507 15.0428 30.4766 15.0428C30.4217 14.9839 30.4217 14.9839 30.359 14.9024C30.2358 14.7509 30.1054 14.6228 29.9586 14.4955C29.876 14.4239 29.7948 14.3514 29.714 14.2778C29.1219 13.7418 28.4785 13.284 27.7895 12.888C27.7573 12.8695 27.7251 12.8509 27.692 12.8318C27.1591 12.5278 26.6152 12.2785 26.0429 12.0628C26.0102 12.0503 25.9776 12.0378 25.9439 12.0249C24.1083 11.3299 21.9681 11.1316 20.0418 11.5127C20.0023 11.5198 19.9628 11.5269 19.922 11.5343C18.1157 11.8631 16.3818 12.6502 14.9364 13.805C14.8963 13.8364 14.8561 13.8677 14.8148 13.9001C14.042 14.5162 13.3192 15.2408 12.7419 16.0514C12.7094 16.0965 12.7094 16.0965 12.6762 16.1425C11.9154 17.2012 11.2965 18.3722 10.9058 19.6274C10.8942 19.6647 10.8825 19.702 10.8705 19.7405C9.92882 22.8385 10.3042 26.1905 11.7709 29.0492C12.2033 29.8645 12.7524 30.6187 13.3632 31.3021C13.4441 31.3937 13.5214 31.487 13.5985 31.5819C14.4198 32.5404 15.4959 33.2963 16.5934 33.8856C16.6299 33.9053 16.6663 33.925 16.7038 33.9453C19.4328 35.3992 22.6751 35.6465 25.6044 34.7085C26.2832 34.4806 26.9358 34.184 27.5656 33.8398C27.5945 33.8242 27.6235 33.8087 27.6533 33.7926C28.3752 33.4019 29.0343 32.9154 29.6514 32.3688C29.6795 32.3439 29.7077 32.319 29.7366 32.2934C29.7921 32.2442 29.8474 32.1948 29.9025 32.1451C29.9279 32.1225 29.9533 32.0998 29.9794 32.0765C30.0019 32.0563 30.0244 32.036 30.0475 32.0152C30.1265 31.9537 30.2077 31.9112 30.2974 31.8684C30.3111 31.9094 30.3248 31.9504 30.339 31.9926C30.7734 33.2883 31.267 34.538 31.8649 35.7653C31.8896 35.816 31.9142 35.8667 31.9396 35.9189C32.7733 37.6216 33.7992 39.2213 34.9928 40.6831C35.016 40.7115 35.0392 40.74 35.0631 40.7693C35.1123 40.8281 35.1625 40.8859 35.2136 40.9428C35.2386 40.971 35.2637 40.9993 35.2895 41.0283C35.3123 41.0533 35.3352 41.0783 35.3587 41.1041C35.3733 41.1275 35.3879 41.151 35.4029 41.1752C35.3538 41.3258 35.3298 41.3472 35.2101 41.4376C35.1781 41.4618 35.1461 41.4861 35.1131 41.5111C35.0776 41.5374 35.042 41.5636 35.0054 41.5907C34.9681 41.6184 34.9309 41.6462 34.8925 41.6748C33.7851 42.4918 32.6357 43.2044 31.4171 43.8343C31.375 43.856 31.333 43.8778 31.2897 43.9002C30.6172 44.2457 29.9307 44.5368 29.2226 44.797C29.17 44.8164 29.1174 44.8357 29.0632 44.8556C27.476 45.4321 25.8385 45.8135 24.1648 46.0034C24.1154 46.009 24.1154 46.009 24.0651 46.0147C23.2876 46.1015 22.5144 46.1362 21.7324 46.1352C21.6914 46.1352 21.6505 46.1351 21.6082 46.1351C17.6007 46.1278 13.6562 45.0097 10.234 42.8715C10.1999 42.8505 10.1659 42.8295 10.1308 42.8078C8.91326 42.0563 7.78836 41.1482 6.74083 40.1666C6.7076 40.1357 6.7076 40.1357 6.6737 40.1041C6.22584 39.6874 5.77898 39.2655 5.38645 38.7928C5.29194 38.6808 5.1934 38.573 5.09501 38.4645C4.86088 38.2014 4.64735 37.925 4.43533 37.6431C4.36394 37.549 4.29145 37.4558 4.21873 37.3628C3.30798 36.1921 2.55651 34.9021 1.90411 33.5647C1.88335 33.5226 1.86259 33.4804 1.8412 33.437C0.0495496 29.7835 -0.623731 25.6017 0.677965 16.6061C1.69418 13.4705 3.3305 10.3544 5.66513 8.02906C5.75383 7.93844 5.83619 7.84474 5.91792 7.74753C6.13921 7.48455 6.37857 7.24939 6.63535 7.02313C6.74155 6.92739 6.8451 6.82926 6.9485 6.73038C7.22852 6.46284 7.51495 6.20846 7.81566 5.96526C7.85939 5.92963 7.85939 5.92963 7.904 5.89327C8.36936 5.51458 8.84297 5.15551 9.33833 4.81911C9.3673 4.79924 9.39628 4.77936 9.42613 4.75889C14.5536 1.75108 24.9061 0.376189 32.5594 4.85508Z" fill="#FF4E4E"/>
<path d="M24.488 20.2028C25.1213 20.7495 25.6109 21.3985 25.9085 22.1948C25.9085 22.2251 25.9085 22.2553 25.9085 22.2865C34.3916 22.2865 42.8746 22.2865 51.6148 22.2865C51.6813 22.0822 51.6813 22.0822 51.7491 21.8739C52.2188 20.8059 53.1537 19.9242 54.2149 19.4987C54.771 19.2955 55.3122 19.1973 55.9029 19.2005C55.9798 19.2009 55.9798 19.2009 56.0582 19.2012C57.2837 19.2192 58.3397 19.7441 59.2169 20.6045C60.0639 21.5043 60.5024 22.7117 60.4955 23.9554C60.4622 25.328 59.8945 26.4729 58.9363 27.4161C58.0846 28.2192 56.8857 28.5956 55.7435 28.5664C54.4733 28.5066 53.3599 27.9475 52.4779 27.0174C52.1556 26.6409 51.8242 26.1698 51.7043 25.6791C43.1621 25.6791 34.62 25.6791 25.8189 25.6791C25.7746 25.8153 25.7746 25.8153 25.7294 25.9542C25.2133 27.0486 24.2891 27.8871 23.1725 28.2971C22.0413 28.6895 20.7761 28.6678 19.6878 28.1441C19.2735 27.9344 18.9019 27.7012 18.5638 27.3754C18.5424 27.3555 18.5209 27.3355 18.4987 27.315C17.5949 26.4734 17.1031 25.3329 17.0312 24.0849C17.0035 22.8479 17.3828 21.6474 18.2056 20.7277C18.2401 20.6887 18.2746 20.6496 18.3102 20.6093C19.9095 18.8847 22.6858 18.7117 24.488 20.2028Z" fill="#FF4E4E"/>
<path d="M308.813 9.63565C310.446 9.63565 312.079 9.63565 313.761 9.63565C313.988 9.99875 313.988 9.99875 314.22 10.3692C314.336 10.5518 314.452 10.7343 314.569 10.9165C314.633 11.0158 314.696 11.115 314.76 11.2143C314.792 11.2642 314.824 11.314 314.857 11.3654C315.011 11.6063 315.165 11.8474 315.319 12.0884C315.38 12.1835 315.441 12.2785 315.502 12.3735C315.627 12.5693 315.752 12.7651 315.877 12.9609C316.275 13.5843 316.275 13.5843 316.677 14.2059C316.89 14.5349 317.1 14.8655 317.311 15.1965C317.607 15.6638 317.906 16.1301 318.204 16.5963C318.327 16.7882 318.45 16.9801 318.573 17.172C318.633 17.2671 318.694 17.3622 318.755 17.4573C318.911 17.7006 319.066 17.944 319.222 18.1874C319.62 18.8108 319.62 18.8108 320.021 19.4324C320.235 19.7614 320.445 20.092 320.655 20.4229C320.952 20.8902 321.251 21.3565 321.549 21.8228C321.672 22.0147 321.795 22.2066 321.917 22.3986C321.978 22.4934 322.039 22.5882 322.099 22.683C322.241 22.9046 322.383 23.1263 322.524 23.3481C322.574 23.4262 322.624 23.5043 322.674 23.5823C322.736 23.6799 322.799 23.7775 322.861 23.8751C323.015 24.1169 323.172 24.3566 323.335 24.5925C323.383 24.6732 323.383 24.6732 323.383 24.7649C323.414 24.7649 323.444 24.7649 323.475 24.7649C323.487 24.732 323.499 24.6991 323.512 24.6651C323.568 24.5321 323.635 24.4193 323.713 24.298C323.743 24.2522 323.772 24.2065 323.803 24.1593C323.85 24.086 323.85 24.086 323.899 24.0113C323.932 23.9599 323.965 23.9084 323.998 23.857C324.066 23.7518 324.134 23.6467 324.202 23.5417C324.344 23.3206 324.485 23.0987 324.626 22.8766C324.679 22.7936 324.732 22.7107 324.784 22.6277C324.837 22.5454 324.889 22.4632 324.941 22.3809C325.307 21.8045 325.674 21.2287 326.042 20.6536C326.348 20.1755 326.653 19.6966 326.957 19.2175C327.323 18.6412 327.69 18.0653 328.058 17.4902C328.364 17.0121 328.669 16.5332 328.973 16.0541C329.339 15.4777 329.706 14.9017 330.075 14.3265C330.273 14.0163 330.471 13.7058 330.668 13.395C330.897 13.0355 331.126 12.6764 331.356 12.3177C331.639 11.8745 331.922 11.4309 332.204 10.9869C332.318 10.8085 332.431 10.6303 332.545 10.4521C332.574 10.4056 332.604 10.3592 332.634 10.3113C332.691 10.2217 332.749 10.1322 332.806 10.0427C332.831 10.0027 332.857 9.96268 332.883 9.92147C332.905 9.88612 332.928 9.85076 332.951 9.81433C333.007 9.72808 333.007 9.72808 333.051 9.63565C334.684 9.63565 336.317 9.63565 337.999 9.63565C337.999 18.7889 337.999 27.9421 337.999 37.3726C336.472 37.3726 334.945 37.3726 333.372 37.3726C333.357 31.1848 333.341 24.9969 333.326 18.6215C333.039 19.0451 332.751 19.4688 332.455 19.9052C332.164 20.3341 331.872 20.763 331.581 21.1918C331.208 21.7408 330.835 22.2899 330.462 22.8394C330.026 23.4825 329.589 24.1252 329.153 24.7678C328.779 25.3168 328.406 25.8659 328.034 26.4154C327.598 27.0585 327.161 27.7012 326.724 28.3438C326.66 28.4379 326.596 28.532 326.532 28.6261C326.468 28.7201 326.405 28.8141 326.341 28.9081C326.182 29.1417 326.023 29.3755 325.865 29.6097C325.785 29.7274 325.706 29.8451 325.626 29.9628C325.588 30.0195 325.55 30.0762 325.512 30.1329C325.458 30.2121 325.405 30.2912 325.351 30.3703C325.321 30.4156 325.29 30.4609 325.259 30.5076C325.229 30.549 325.2 30.5905 325.17 30.6332C325.144 30.6729 325.119 30.7127 325.092 30.7536C324.953 30.8973 324.879 30.8928 324.682 30.8965C324.651 30.8973 324.621 30.8982 324.59 30.899C324.49 30.9014 324.39 30.9021 324.29 30.9026C324.221 30.9034 324.151 30.9043 324.081 30.9052C323.935 30.9068 323.789 30.9074 323.643 30.9075C323.456 30.9077 323.269 30.9113 323.083 30.9158C322.939 30.9187 322.795 30.9193 322.65 30.9192C322.582 30.9196 322.513 30.9208 322.444 30.9228C321.909 30.9372 321.909 30.9372 321.705 30.7546C321.611 30.6263 321.534 30.4981 321.459 30.3581C321.406 30.2794 321.352 30.2012 321.297 30.1237C321.243 30.0443 321.189 29.9649 321.135 29.8854C321.075 29.7969 321.015 29.7084 320.955 29.62C320.91 29.5528 320.91 29.5528 320.863 29.4843C320.716 29.2682 320.569 29.0524 320.422 28.8366C320.394 28.7947 320.365 28.7528 320.336 28.7096C320.129 28.4059 319.921 28.1025 319.714 27.7991C319.495 27.4786 319.276 27.1577 319.057 26.8368C318.873 26.5662 318.688 26.2959 318.504 26.0257C318.26 25.6698 318.017 25.3135 317.774 24.9571C317.59 24.6865 317.406 24.4162 317.221 24.146C316.977 23.7901 316.734 23.4338 316.492 23.0774C316.307 22.8068 316.123 22.5365 315.938 22.2663C315.579 21.7425 315.222 21.2178 314.865 20.6932C314.665 20.3999 314.465 20.1067 314.265 19.8135C314.238 19.7727 314.21 19.7319 314.181 19.6899C314.1 19.5715 314.02 19.4533 313.939 19.335C313.915 19.3 313.891 19.2651 313.867 19.229C313.844 19.196 313.822 19.1629 313.798 19.1289C313.779 19.1005 313.76 19.0721 313.74 19.0428C313.641 18.9014 313.541 18.7617 313.441 18.6215C313.426 24.8094 313.41 30.9972 313.395 37.3726C311.883 37.3726 310.371 37.3726 308.813 37.3726C308.813 28.2194 308.813 19.0662 308.813 9.63565Z" fill="#FF4E4E"/>
<path d="M153.488 9.63565C155.121 9.63565 156.754 9.63565 158.437 9.63565C158.603 9.90798 158.769 10.1803 158.941 10.4609C159.034 10.6077 159.128 10.7539 159.224 10.8993C159.275 10.9765 159.325 11.0538 159.376 11.131C159.402 11.1709 159.428 11.2108 159.454 11.2519C159.602 11.4793 159.748 11.708 159.894 11.9366C159.925 11.9847 159.956 12.0328 159.987 12.0824C160.05 12.1806 160.113 12.2788 160.176 12.377C160.329 12.6171 160.482 12.8571 160.636 13.097C160.697 13.1926 160.758 13.2881 160.819 13.3836C160.865 13.4545 160.865 13.4545 160.911 13.5268C162.652 16.249 162.652 16.249 162.744 16.3923C162.805 16.4875 162.865 16.5828 162.926 16.678C163.082 16.9213 163.238 17.1646 163.393 17.408C163.792 18.0314 163.792 18.0314 164.193 18.653C164.406 18.982 164.616 19.3126 164.827 19.6435C165.123 20.1109 165.422 20.5771 165.72 21.0434C165.843 21.2353 165.966 21.4272 166.089 21.6191C166.149 21.7142 166.21 21.8093 166.271 21.9044C166.427 22.1477 166.582 22.3911 166.738 22.6345C167.011 23.0624 167.285 23.4902 167.56 23.9168C167.58 23.948 167.601 23.9792 167.621 24.0113C167.75 24.2101 167.881 24.4069 168.016 24.6014C168.059 24.6732 168.059 24.6732 168.059 24.7649C168.089 24.7649 168.119 24.7649 168.15 24.7649C168.16 24.7349 168.171 24.7049 168.181 24.6739C168.262 24.4894 168.368 24.3266 168.477 24.1574C168.501 24.1198 168.525 24.0821 168.549 24.0433C168.63 23.917 168.711 23.7908 168.792 23.6646C168.851 23.5724 168.91 23.4801 168.969 23.3879C169.093 23.1939 169.217 23 169.341 22.8061C169.511 22.5395 169.681 22.2726 169.851 22.0055C169.89 21.9438 169.89 21.9438 169.931 21.8808C170.009 21.7572 170.088 21.6335 170.166 21.5098C170.532 20.9335 170.899 20.3576 171.267 19.7825C171.573 19.3044 171.878 18.8255 172.182 18.3464C172.548 17.7701 172.915 17.1942 173.283 16.6191C173.589 16.141 173.894 15.6621 174.198 15.183C174.564 14.6066 174.931 14.0306 175.3 13.4554C175.498 13.1453 175.696 12.8348 175.894 12.524C176.122 12.1644 176.351 11.8054 176.581 11.4466C176.823 11.0686 177.064 10.6904 177.305 10.3119C177.332 10.2701 177.359 10.2284 177.386 10.1854C177.411 10.1465 177.435 10.1076 177.461 10.0676C177.482 10.0338 177.504 10.0001 177.526 9.9653C177.594 9.85631 177.66 9.74593 177.726 9.63565C179.344 9.63565 180.962 9.63565 182.629 9.63565C182.629 18.7889 182.629 27.9421 182.629 37.3726C181.117 37.3726 179.605 37.3726 178.047 37.3726C178.032 31.1848 178.017 24.9969 178.001 18.6215C177.514 19.3345 177.514 19.3345 177.028 20.0485C176.961 20.1467 176.894 20.2449 176.827 20.3431C176.794 20.3921 176.761 20.4411 176.727 20.4916C176.629 20.635 176.532 20.7782 176.434 20.9215C176.093 21.4231 175.753 21.9248 175.412 22.4267C174.976 23.0699 174.54 23.7126 174.103 24.3552C173.73 24.9042 173.357 25.4533 172.984 26.0028C172.548 26.6459 172.111 27.2886 171.674 27.9312C171.61 28.0253 171.547 28.1193 171.483 28.2134C171.418 28.3077 171.354 28.402 171.29 28.4964C171.134 28.7262 170.978 28.9562 170.822 29.1864C170.745 29.3001 170.669 29.4138 170.592 29.5275C170.555 29.5814 170.519 29.6353 170.482 29.6892C170.399 29.8126 170.316 29.9355 170.23 30.0575C170.156 30.165 170.089 30.274 170.025 30.3879C169.886 30.6256 169.768 30.8237 169.502 30.9215C169.31 30.9436 169.129 30.9459 168.937 30.9396C168.868 30.9395 168.798 30.9396 168.729 30.9399C168.584 30.9398 168.439 30.9375 168.295 30.9335C168.11 30.9286 167.925 30.9283 167.74 30.9296C167.597 30.9302 167.454 30.9287 167.311 30.9266C167.242 30.9258 167.174 30.9254 167.106 30.9257C166.578 30.9255 166.578 30.9255 166.39 30.7721C166.308 30.6681 166.243 30.5661 166.18 30.4498C166.144 30.3961 166.107 30.3426 166.069 30.2897C166.035 30.2381 166.002 30.1864 165.968 30.1346C165.929 30.0746 165.889 30.0146 165.849 29.9547C165.829 29.9234 165.808 29.8921 165.787 29.8598C165.672 29.6877 165.555 29.5172 165.438 29.3467C165.387 29.2724 165.337 29.1981 165.286 29.1239C165.26 29.0859 165.234 29.0479 165.207 29.0088C165.067 28.8046 164.928 28.6 164.788 28.3954C164.76 28.3533 164.731 28.3113 164.702 28.268C164.585 28.0966 164.468 27.9251 164.351 27.7536C164.028 27.2794 163.705 26.8055 163.381 26.3321C163.162 26.0116 162.943 25.6906 162.725 25.3697C162.54 25.0991 162.356 24.8288 162.171 24.5586C161.812 24.0348 161.455 23.5101 161.098 22.9855C160.799 22.5469 160.5 22.1083 160.201 21.6703C159.988 21.3601 159.777 21.0497 159.565 20.739C159.536 20.6972 159.508 20.6554 159.479 20.6123C159.33 20.3945 159.182 20.1767 159.034 19.9589C159.004 19.9149 158.974 19.8709 158.943 19.8255C158.887 19.7427 158.83 19.66 158.774 19.5772C158.556 19.2575 158.336 18.9397 158.116 18.6215C158.101 24.8094 158.086 30.9972 158.07 37.3726C156.558 37.3726 155.046 37.3726 153.488 37.3726C153.488 28.2194 153.488 19.0662 153.488 9.63565Z" fill="#FF4E4E"/>
<path d="M134.235 9.30539C134.31 9.305 134.31 9.305 134.387 9.3046C134.494 9.30417 134.6 9.30387 134.706 9.30369C134.865 9.30325 135.023 9.30183 135.181 9.30038C136.101 9.29599 137.014 9.37397 137.917 9.5554C137.966 9.56498 138.014 9.57457 138.064 9.58444C138.588 9.69211 139.098 9.83755 139.607 10.0024C139.648 10.0155 139.689 10.0287 139.731 10.0422C141.779 10.7096 143.62 11.9089 145.142 13.4208C145.182 13.4603 145.222 13.4999 145.263 13.5406C145.535 13.8141 145.782 14.1011 146.021 14.4036C146.044 14.4315 146.066 14.4594 146.089 14.4882C147.596 16.3758 148.555 18.6658 148.908 21.0513C148.918 21.1168 148.918 21.1168 148.929 21.1837C149.159 22.7006 149.155 24.3516 148.908 25.8652C148.9 25.9152 148.892 25.9653 148.883 26.0169C148.657 27.3694 148.267 28.6645 147.671 29.8997C147.641 29.9616 147.641 29.9616 147.611 30.0248C147.074 31.1255 146.394 32.151 145.565 33.0528C145.48 33.1454 145.398 33.2397 145.317 33.3353C144.996 33.7017 144.651 34.0337 144.27 34.3364C144.186 34.4036 144.104 34.4726 144.023 34.5434C142.779 35.6272 141.246 36.3761 139.698 36.9141C139.656 36.9289 139.613 36.9437 139.57 36.9589C135.926 38.2006 131.76 37.8285 128.325 36.156C127.427 35.7092 126.596 35.1597 125.815 34.5301C125.791 34.5108 125.767 34.4914 125.742 34.4714C125.049 33.91 124.384 33.2714 123.845 32.5587C123.8 32.5011 123.754 32.4435 123.708 32.3859C123.142 31.6676 122.665 30.8933 122.241 30.083C122.224 30.05 122.207 30.017 122.189 29.983C121.489 28.6242 121.059 27.104 120.867 25.5901C120.863 25.5593 120.859 25.5285 120.855 25.4968C120.771 24.824 120.759 24.1557 120.761 23.4783C120.761 23.4247 120.761 23.371 120.761 23.3158C120.763 22.5372 120.781 21.7745 120.913 21.0055C120.921 20.9569 120.928 20.9083 120.937 20.8583C121.363 18.2669 122.513 15.771 124.317 13.8495C124.412 13.747 124.504 13.6434 124.595 13.5374C124.756 13.3519 124.928 13.1815 125.108 13.0139C125.156 12.9694 125.156 12.9694 125.204 12.924C125.502 12.6498 125.812 12.3984 126.136 12.1572C126.161 12.1386 126.185 12.12 126.211 12.1009C128.488 10.39 131.373 9.31731 134.235 9.30539ZM127.948 16.2056C127.741 16.4334 127.554 16.6762 127.373 16.9252C127.354 16.9515 127.335 16.9778 127.315 17.0049C126.757 17.781 126.352 18.6362 126.044 19.5384C126.032 19.5749 126.019 19.6115 126.006 19.6491C125.045 22.46 125.237 25.8863 126.519 28.5617C127.596 30.7425 129.378 32.4018 131.694 33.192C132.214 33.3614 132.746 33.4737 133.284 33.5674C133.318 33.5734 133.352 33.5795 133.387 33.5858C135.757 33.9896 138.419 33.4375 140.386 32.0573C142.531 30.507 143.789 28.1472 144.217 25.5652C144.683 22.5943 144.215 19.3826 142.427 16.9117C142.153 16.5413 141.851 16.2022 141.531 15.8707C141.49 15.8259 141.49 15.8259 141.448 15.7803C139.934 14.1743 137.528 13.3812 135.375 13.3074C135.32 13.3061 135.265 13.3047 135.208 13.3033C135.162 13.3015 135.116 13.2997 135.069 13.2978C132.38 13.2374 129.794 14.2442 127.948 16.2056Z" fill="#FF4E4E"/>
<path d="M235.045 9.63565C246.08 9.63565 246.08 9.63565 247.164 9.8305C247.221 9.84041 247.278 9.85032 247.336 9.86053C247.832 9.95065 248.313 10.07 248.79 10.2317C248.83 10.2448 248.869 10.258 248.909 10.2715C250.101 10.6813 251.159 11.3077 252.089 12.1572C252.112 12.1782 252.136 12.1992 252.159 12.2208C253.498 13.4572 254.33 15.3394 254.431 17.1567C254.434 17.2548 254.436 17.3529 254.437 17.451C254.438 17.4872 254.438 17.5234 254.438 17.5607C254.446 18.3724 254.438 19.158 254.243 19.9511C254.229 20.0098 254.229 20.0098 254.214 20.0698C253.699 22.0967 252.468 23.8362 250.671 24.9101C249.87 25.3759 248.998 25.6834 248.103 25.9111C248.359 26.3621 248.62 26.8094 248.885 27.2549C248.923 27.3197 248.962 27.3845 249 27.4492C249.255 27.8768 249.51 28.3036 249.766 28.7299C250.019 29.1506 250.269 29.5726 250.519 29.9947C250.786 30.4452 251.055 30.8948 251.324 31.3436C251.482 31.6057 251.638 31.8682 251.794 32.1313C251.812 32.1617 251.83 32.192 251.849 32.2233C251.885 32.2856 251.922 32.3479 251.959 32.4101C251.978 32.4412 251.996 32.4723 252.015 32.5043C252.033 32.5354 252.052 32.5665 252.071 32.5985C252.344 33.0596 252.62 33.5184 252.899 33.9759C253.162 34.4069 253.418 34.8412 253.672 35.2774C253.856 35.5936 254.042 35.9084 254.233 36.2207C254.251 36.2502 254.269 36.2797 254.287 36.3101C254.374 36.4517 254.46 36.5932 254.547 36.7344C254.578 36.7848 254.609 36.8351 254.641 36.8869C254.668 36.9311 254.695 36.9752 254.723 37.0206C254.793 37.1434 254.793 37.1434 254.884 37.3726C253.07 37.3726 251.256 37.3726 249.386 37.3726C249.174 36.9944 248.963 36.6162 248.745 36.2265C248.508 35.8187 248.508 35.8187 248.269 35.4114C248.091 35.1055 247.915 34.7979 247.74 34.49C247.503 34.0749 247.265 33.6602 247.026 33.2465C246.787 32.8327 246.55 32.4181 246.313 32.0029C246.087 31.6062 245.86 31.2107 245.629 30.8166C245.398 30.4226 245.171 30.027 244.945 29.6303C244.706 29.2115 244.467 28.793 244.226 28.3753C244.201 28.3326 244.177 28.29 244.151 28.246C244.114 28.1806 244.114 28.1806 244.075 28.1138C244.035 28.0399 244.035 28.0399 243.993 27.9645C243.915 27.8272 243.823 27.7068 243.725 27.5827C243.08 26.7097 243.17 25.7824 243.202 24.7447C243.209 24.5086 243.212 24.2725 243.215 24.0364C243.222 23.5761 243.233 23.1161 243.246 22.656C243.291 22.6548 243.335 22.6536 243.38 22.6523C243.547 22.6477 243.713 22.643 243.88 22.6383C243.951 22.6363 244.023 22.6343 244.094 22.6323C245.687 22.5887 247.265 22.4698 248.484 21.3198C249.366 20.3853 249.737 19.1325 249.723 17.8631C249.681 16.594 249.302 15.4241 248.37 14.5326C246.193 12.6808 241.645 13.4117 239.627 13.395C239.627 21.3076 239.627 29.2202 239.627 37.3726C238.115 37.3726 236.603 37.3726 235.045 37.3726C235.045 28.2194 235.045 19.0662 235.045 9.63565Z" fill="#FF4E4E"/>
<path d="M289.43 9.63004C289.469 9.63008 289.509 9.63012 289.549 9.63017C289.594 9.6301 289.638 9.63004 289.685 9.62997C289.734 9.63014 289.784 9.6303 289.835 9.63047C289.912 9.63046 289.912 9.63046 289.992 9.63045C290.164 9.63049 290.336 9.63084 290.509 9.6312C290.628 9.63129 290.747 9.63135 290.866 9.6314C291.148 9.63156 291.43 9.63192 291.712 9.63238C292.033 9.63289 292.354 9.63314 292.675 9.63337C293.336 9.63385 293.996 9.63466 294.657 9.63568C294.973 10.4957 295.286 11.3569 295.593 12.2203C295.632 12.3309 295.672 12.4415 295.711 12.5522C295.793 12.7807 295.874 13.0092 295.956 13.2377C296.149 13.7821 296.344 14.3264 296.538 14.8707C296.557 14.9238 296.576 14.9769 296.595 15.0316C296.89 15.8584 297.186 16.6849 297.483 17.5113C297.782 18.3477 298.081 19.1844 298.38 20.0213C298.658 20.8004 298.936 21.5793 299.216 22.358C299.513 23.1878 299.81 24.0178 300.106 24.848C300.125 24.9012 300.144 24.9543 300.164 25.0091C300.317 25.4401 300.471 25.8712 300.625 26.3022C300.759 26.679 300.894 27.0558 301.028 27.4326C301.047 27.4858 301.066 27.5389 301.086 27.5937C301.381 28.4204 301.677 29.2468 301.973 30.0731C302.253 30.8556 302.533 31.6383 302.812 32.4213C303.12 33.2839 303.428 34.1464 303.737 35.0087C303.755 35.0576 303.772 35.1065 303.79 35.1569C303.824 35.252 303.859 35.3472 303.893 35.4424C303.926 35.5342 303.958 35.626 303.991 35.7179C304.08 35.9643 304.168 36.2105 304.258 36.4565C304.277 36.5093 304.296 36.5621 304.316 36.6166C304.353 36.7187 304.39 36.8207 304.427 36.9227C304.444 36.9683 304.46 37.0139 304.477 37.0609C304.492 37.1012 304.507 37.1416 304.522 37.1832C304.553 37.281 304.553 37.281 304.553 37.3727C302.951 37.3727 301.348 37.3727 299.697 37.3727C299.485 36.7523 299.273 36.132 299.055 35.493C298.942 35.1671 298.829 34.8413 298.714 34.5159C298.689 34.4438 298.664 34.3718 298.639 34.2998C298.626 34.264 298.613 34.2281 298.601 34.1912C298.576 34.1208 298.551 34.0503 298.526 33.9798C298.459 33.7886 298.392 33.5976 298.324 33.4067C298.309 33.3648 298.294 33.3229 298.279 33.2798C298.25 33.1987 298.221 33.1177 298.192 33.0367C298.179 33.0002 298.166 32.9637 298.153 32.9261C298.141 32.8938 298.13 32.8616 298.118 32.8284C298.093 32.7422 298.093 32.7422 298.093 32.6046C295.19 32.6046 292.287 32.6046 289.296 32.6046C289.327 32.3533 289.364 32.121 289.426 31.8778C289.434 31.844 289.443 31.8101 289.452 31.7751C289.479 31.6644 289.507 31.5537 289.535 31.4431C289.554 31.3657 289.574 31.2883 289.593 31.211C289.633 31.0495 289.674 30.888 289.715 30.7266C289.767 30.5194 289.819 30.3122 289.87 30.105C289.91 29.9455 289.95 29.7861 289.99 29.6267C290.009 29.5502 290.028 29.4738 290.048 29.3973C290.074 29.2909 290.101 29.1844 290.128 29.078C290.136 29.0463 290.144 29.0146 290.152 28.982C290.207 28.7641 290.207 28.7641 290.258 28.6619C292.375 28.6619 294.492 28.6619 296.673 28.6619C296.416 27.9357 296.159 27.2095 295.894 26.4612C295.634 25.7122 295.634 25.7122 295.507 25.3436C295.221 24.5072 294.93 23.6724 294.634 22.8394C294.354 22.0539 294.08 21.2667 293.809 20.4783C293.455 19.4506 293.095 18.4254 292.731 17.4012C292.569 16.9449 292.408 16.4881 292.248 16.0312C292.235 15.9943 292.222 15.9574 292.209 15.9194C292.139 15.7198 292.069 15.5202 291.999 15.3206C291.783 15.8863 291.581 16.4568 291.381 17.0285C291.06 17.9459 290.736 18.8618 290.407 19.7763C290.146 20.5009 289.889 21.2264 289.637 21.954C289.309 22.898 288.971 23.838 288.632 24.7778C288.433 25.3281 288.236 25.8789 288.039 26.4297C288.002 26.5315 287.966 26.6332 287.929 26.735C287.856 26.9391 287.783 27.1432 287.71 27.3473C287.547 27.8037 287.383 28.2601 287.22 28.7164C287.129 28.9695 287.038 29.2226 286.948 29.4756C286.911 29.5769 286.875 29.6781 286.839 29.7794C286.812 29.8545 286.812 29.8545 286.784 29.9312C285.451 33.6519 285.451 33.6519 284.118 37.3727C282.576 37.3727 281.034 37.3727 279.445 37.3727C279.548 36.9085 279.548 36.9085 279.612 36.7309C279.627 36.6904 279.641 36.65 279.656 36.6084C279.68 36.5441 279.68 36.5441 279.704 36.4785C279.729 36.409 279.729 36.409 279.754 36.3381C279.809 36.1852 279.865 36.0325 279.92 35.8798C279.959 35.7713 279.998 35.6628 280.038 35.5543C280.109 35.356 280.181 35.1576 280.252 34.9594C280.439 34.4421 280.624 33.9242 280.808 33.4062C280.904 33.1375 281 32.8689 281.096 32.6003C281.115 32.5473 281.134 32.4942 281.153 32.4395C281.372 31.8253 281.593 31.2113 281.813 30.5974C282.093 29.8149 282.373 29.0322 282.652 28.2493C282.949 27.4161 283.247 26.5833 283.546 25.7506C283.843 24.9208 284.14 24.0908 284.436 23.2606C284.455 23.2075 284.474 23.1543 284.494 23.0995C284.628 22.7225 284.763 22.3454 284.897 21.9683C285.051 21.5375 285.205 21.1068 285.358 20.676C285.377 20.6229 285.396 20.5697 285.416 20.5149C285.711 19.6882 286.007 18.8618 286.303 18.0355C286.583 17.253 286.863 16.4703 287.142 15.6874C287.53 14.6008 287.918 13.5144 288.308 12.4285C288.421 12.1122 288.535 11.7958 288.648 11.4794C288.725 11.2641 288.802 11.0488 288.879 10.8335C288.916 10.7309 288.953 10.6282 288.99 10.5255C289.04 10.3843 289.091 10.2431 289.142 10.102C289.157 10.0598 289.172 10.0177 289.187 9.97419C289.208 9.91697 289.208 9.91697 289.229 9.8586C289.241 9.8253 289.253 9.79201 289.265 9.75771C289.307 9.65305 289.315 9.63735 289.43 9.63004Z" fill="#FF4E4E"/>
<path d="M104.163 9.29755C104.216 9.29774 104.269 9.29794 104.323 9.29815C105.096 9.30153 105.854 9.32079 106.617 9.45228C106.691 9.46444 106.691 9.46444 106.766 9.47686C109.119 9.87335 111.352 10.7861 113.215 12.2947C113.24 12.3147 113.264 12.3346 113.29 12.3551C113.949 12.8917 114.582 13.4944 115.094 14.1744C115.116 14.2035 115.139 14.2325 115.162 14.2625C115.756 15.0249 116.24 15.8436 116.66 16.7132C116.691 16.7764 116.691 16.7764 116.722 16.841C116.814 17.0376 116.891 17.2294 116.952 17.4377C116.965 17.4791 116.977 17.5205 116.99 17.5631C116.999 17.5947 117.008 17.6262 117.018 17.6588C116.31 17.6792 115.602 17.6945 114.893 17.7039C114.564 17.7084 114.236 17.7145 113.907 17.7245C113.62 17.7332 113.333 17.7388 113.046 17.7407C112.894 17.7418 112.743 17.7449 112.591 17.7509C111.668 17.7854 111.668 17.7854 111.421 17.5746C111.256 17.3679 111.155 17.1416 111.061 16.8955C110.991 16.7304 110.893 16.5902 110.787 16.4467C110.767 16.4197 110.747 16.3927 110.727 16.3649C110.523 16.0895 110.291 15.842 110.054 15.5957C110.018 15.5571 109.983 15.5186 109.947 15.4789C108.518 13.9564 106.325 13.4233 104.315 13.3433C102.758 13.3147 101.19 13.6267 99.7902 14.312C99.7568 14.3282 99.7234 14.3445 99.689 14.3612C98.1865 15.1021 96.9425 16.2975 96.1253 17.7593C96.0799 17.8403 96.0333 17.9205 95.9867 18.0008C94.5082 20.5985 94.4082 24.0368 95.1625 26.8738C95.5603 28.3059 96.2644 29.6254 97.2723 30.7185C97.3448 30.798 97.4126 30.8784 97.4792 30.9628C98.777 32.4612 100.902 33.2756 102.814 33.5216C102.862 33.528 102.862 33.528 102.91 33.5346C103.308 33.5823 103.708 33.5786 104.109 33.5789C104.167 33.5789 104.167 33.5789 104.226 33.579C104.834 33.5782 105.424 33.552 106.021 33.4299C106.062 33.4217 106.102 33.4136 106.144 33.4053C106.687 33.2935 107.207 33.1443 107.717 32.9256C107.749 32.9119 107.781 32.8982 107.813 32.8842C109.241 32.2629 110.327 31.2696 111.134 29.9464C111.151 29.9191 111.168 29.8919 111.186 29.8637C111.247 29.7617 111.247 29.7617 111.297 29.6457C111.451 29.3292 111.451 29.3292 111.632 29.2621C111.775 29.2471 111.912 29.247 112.056 29.2516C112.136 29.2516 112.136 29.2516 112.218 29.2514C112.395 29.2518 112.572 29.2553 112.749 29.2589C112.872 29.2598 112.995 29.2605 113.118 29.2609C113.408 29.2623 113.698 29.2661 113.988 29.2707C114.319 29.2758 114.649 29.2783 114.98 29.2806C115.659 29.2854 116.339 29.2935 117.018 29.3037C116.996 29.37 116.974 29.4363 116.952 29.5026C116.934 29.558 116.934 29.558 116.915 29.6145C116.46 30.9539 115.606 32.2391 114.65 33.2696C114.556 33.371 114.465 33.4741 114.375 33.5789C113.747 34.2998 112.967 34.8932 112.161 35.4012C112.134 35.4185 112.106 35.4358 112.078 35.4537C110.171 36.6486 108.068 37.305 105.838 37.556C105.798 37.5608 105.757 37.5656 105.715 37.5705C104.429 37.701 103.035 37.6766 101.76 37.4643C101.705 37.4552 101.65 37.4461 101.594 37.4367C99.1726 37.0209 96.8676 36.023 94.9792 34.4385C94.9452 34.4106 94.9452 34.4106 94.9105 34.3821C94.2633 33.8503 93.6608 33.2669 93.1465 32.6046C93.1047 32.5541 93.0627 32.5036 93.0206 32.4533C91.2674 30.3409 90.2585 27.6247 90.0308 24.9025C90.0257 24.8491 90.0207 24.7957 90.0154 24.7407C89.7134 20.9792 90.7347 17.1688 93.1837 14.2633C93.2623 14.1719 93.3417 14.0815 93.4214 13.9911C93.4539 13.9534 93.4865 13.9158 93.52 13.877C93.9798 13.3535 94.4727 12.8576 95.025 12.4323C95.084 12.3857 95.1429 12.3392 95.2019 12.2926C96.9398 10.9292 98.9916 9.98489 101.159 9.55543C101.202 9.54688 101.244 9.53832 101.288 9.52951C102.241 9.35222 103.195 9.29062 104.163 9.29755Z" fill="#FF4E4E"/>
<path d="M196.849 9.30539C196.897 9.30513 196.946 9.30487 196.996 9.3046C197.098 9.30417 197.2 9.30387 197.302 9.30369C197.455 9.30325 197.607 9.30183 197.759 9.30038C199.451 9.292 201.256 9.57715 202.751 10.4138C202.841 10.4641 202.932 10.5125 203.023 10.561C203.414 10.7716 203.772 11.0054 204.118 11.2861C204.143 11.3061 204.167 11.3261 204.193 11.3467C205.767 12.6326 206.67 14.3644 206.947 16.3702C206.961 16.5394 206.959 16.7096 206.959 16.8793C205.296 16.8793 203.632 16.8793 201.919 16.8793C201.873 16.6827 201.828 16.486 201.781 16.2833C201.478 15.2561 200.816 14.4182 199.874 13.8979C198.515 13.1732 196.852 13.0393 195.372 13.4423C194.753 13.6308 194.199 13.9254 193.717 14.3578C193.689 14.382 193.66 14.4063 193.631 14.4312C192.959 15.0436 192.712 15.9881 192.669 16.8649C192.637 17.7359 192.885 18.4657 193.448 19.1287C194.718 20.4859 196.792 20.9039 198.514 21.3837C204.868 23.1573 204.868 23.1573 206.455 25.8194C206.889 26.6004 207.12 27.4125 207.234 28.295C207.238 28.3289 207.243 28.3627 207.247 28.3975C207.482 30.4453 206.993 32.5545 205.707 34.188C205.522 34.4172 205.328 34.637 205.126 34.8511C205.09 34.8905 205.053 34.9299 205.016 34.9705C203.662 36.3862 201.761 37.1917 199.857 37.5101C199.791 37.5214 199.791 37.5214 199.724 37.5329C196.786 38.011 193.412 37.5016 190.962 35.7438C190.727 35.57 190.509 35.3841 190.297 35.1824C190.201 35.0913 190.102 35.0069 190 34.9227C189.774 34.7252 189.594 34.4916 189.41 34.2551C189.359 34.1912 189.359 34.1912 189.307 34.1261C188.568 33.1794 188.126 32.0554 187.95 30.871C187.944 30.835 187.939 30.799 187.933 30.7619C187.884 30.3926 187.898 30.0517 187.898 29.6704C189.516 29.6704 191.134 29.6704 192.801 29.6704C192.861 29.973 192.922 30.2756 192.984 30.5874C193.182 31.2243 193.453 31.7849 193.901 32.2837C193.938 32.3252 193.975 32.3668 194.013 32.4096C194.928 33.3774 196.21 33.7166 197.508 33.7593C198.905 33.7869 200.418 33.5116 201.474 32.53C202.242 31.7761 202.609 30.8417 202.62 29.7707C202.617 28.7894 202.317 28.0171 201.635 27.3036C201.37 27.0478 201.086 26.8361 200.773 26.6446C200.746 26.6279 200.719 26.6113 200.692 26.5941C199.395 25.812 197.8 25.5009 196.353 25.1043C192.043 23.9216 192.043 23.9216 190.739 22.931C190.701 22.9026 190.663 22.8741 190.624 22.8447C189.123 21.6798 188.251 20.2044 188.008 18.3114C187.971 17.9546 187.974 17.5958 187.976 17.2375C187.976 17.1981 187.976 17.1586 187.976 17.1179C187.978 16.5402 187.991 15.9765 188.127 15.4123C188.137 15.3737 188.146 15.3352 188.155 15.2955C188.61 13.4288 189.776 11.7997 191.42 10.7941C193.05 9.82448 194.952 9.31362 196.849 9.30539Z" fill="#FF4E4E"/>
<path d="M260.199 9.63565C265.174 9.63565 270.148 9.63565 275.274 9.63565C275.274 10.8611 275.274 12.0866 275.274 13.3492C271.584 13.3492 267.895 13.3492 264.094 13.3492C264.094 20.0363 264.094 26.7235 264.094 33.6132C267.783 33.6132 271.472 33.6132 275.274 33.6132C275.274 34.8538 275.274 36.0944 275.274 37.3726C270.299 37.3726 265.324 37.3726 260.199 37.3726C260.199 28.2194 260.199 19.0662 260.199 9.63565Z" fill="#FF4E4E"/>
<path d="M211.174 9.63565C217.555 9.63565 223.935 9.63565 230.509 9.63565C230.509 10.8762 230.509 12.1168 230.509 13.395C228.09 13.395 225.671 13.395 223.178 13.395C223.178 21.3076 223.178 29.2202 223.178 37.3726C221.666 37.3726 220.154 37.3726 218.596 37.3726C218.596 29.46 218.596 21.5474 218.596 13.395C216.147 13.395 213.698 13.395 211.174 13.395C211.174 12.1544 211.174 10.9138 211.174 9.63565Z" fill="#FF4E4E"/>
<path d="M266.295 21.4181C269.259 21.4181 272.222 21.4181 275.276 21.4181C275.276 22.6587 275.276 23.8993 275.276 25.1775C272.312 25.1775 269.349 25.1775 266.295 25.1775C266.295 23.9369 266.295 22.6963 266.295 21.4181Z" fill="#FF4E4E"/>
</svg>
