<svg width="56" height="57" viewBox="0 0 56 57" fill="none" xmlns="http://www.w3.org/2000/svg">
<path d="M7 51.8335H49" stroke="white" stroke-width="3.5" stroke-linecap="round" stroke-linejoin="round"/>
<path d="M13.0666 20.0532H9.33333C8.05 20.0532 7 21.1032 7 22.3866V42.4999C7 43.7832 8.05 44.8332 9.33333 44.8332H13.0666C14.35 44.8332 15.4 43.7832 15.4 42.4999V22.3866C15.4 21.1032 14.35 20.0532 13.0666 20.0532Z" stroke="white" stroke-width="3.5" stroke-linecap="round" stroke-linejoin="round"/>
<path d="M29.8662 12.6099H26.1331C24.8498 12.6099 23.7998 13.6599 23.7998 14.9432V42.4999C23.7998 43.7832 24.8498 44.8332 26.1331 44.8332H29.8662C31.1496 44.8332 32.1996 43.7832 32.1996 42.4999V14.9432C32.1996 13.6599 31.1496 12.6099 29.8662 12.6099Z" stroke="white" stroke-width="3.5" stroke-linecap="round" stroke-linejoin="round"/>
<path d="M46.6663 5.1665H42.9329C41.6496 5.1665 40.5996 6.2165 40.5996 7.49984V42.4998C40.5996 43.7832 41.6496 44.8332 42.9329 44.8332H46.6663C47.9496 44.8332 48.9996 43.7832 48.9996 42.4998V7.49984C48.9996 6.2165 47.9496 5.1665 46.6663 5.1665Z" stroke="white" stroke-width="3.5" stroke-linecap="round" stroke-linejoin="round"/>
</svg>
