<svg width="282" height="40" viewBox="0 0 282 40" fill="none" xmlns="http://www.w3.org/2000/svg">
<g clip-path="url(#clip0_532_1537)">
<path d="M32.6459 4.79463C35.2165 6.93685 37.6753 9.05626 38.1043 12.5071C38.2496 16.0672 37.69 18.4137 35.2474 21.0676C29.4447 26.1049 22.7541 26.4612 15.3927 26.0748C13.0701 25.8356 11.0012 25.1177 8.86978 24.1976C7.43316 23.7147 7.45342 22.944 5.44982 24.3182C4.89111 24.5976 4.33241 24.8769 3.75678 25.1647C2.19918 25.9435 2.84835 25.6529 0.952148 26.4655C1.56138 24.8554 2.31996 23.0535 3.28273 21.6094C3.13218 20.1541 2.63468 19.2595 1.89443 17.9863C0.952148 14.2757 1.35837 12.3629 2.30658 9.39969C9.23635 -0.561844 22.7529 -0.518258 32.6459 4.79463Z" fill="url(#paint0_radial_532_1537)"/>
<path d="M38.8761 12.3795C44.2021 12.9875 50.8543 15.0893 54.5479 19.2053C56.4008 21.7015 57.1522 23.7961 57.1046 26.9657C56.8889 28.2891 56.4252 29.182 55.7669 30.3455C54.8378 32.0107 54.7158 32.2578 55.0896 34.2395C55.8319 35.7585 55.0896 34.2395 56.4837 37.1853C56.4837 37.1853 56.9182 38.3935 56.9182 38.9461C52.5839 36.7592 56.9182 38.9461 52.5839 36.7592C50.9857 35.6681 51.1212 36.0942 49.8391 36.4192C48.5708 36.8648 47.33 37.3616 46.0827 37.8626C39.4954 39.8793 32.4481 39.3803 26.1281 36.6605C22.8461 34.8891 20.5317 32.6321 18.994 29.1942C18.994 28.4791 18.5596 27.7639 18.5596 27.0271C19.0959 27.0271 20.0667 27.0271 20.6193 27.0271C20.8764 27.6752 21.1334 28.3233 21.3981 28.991C23.1547 32.4979 26.3905 34.1803 29.9311 35.5939C35.8549 37.439 42.7069 37.4511 48.3492 34.5442C49.8386 33.8267 51.0187 34.2562 52.5839 34.6119C52.4499 34.2208 52.3158 33.8297 52.1776 33.4268C52.0422 31.9031 52.0422 31.9031 53.058 30.6841C54.6386 28.6387 54.7197 26.8577 54.5479 24.2985C53.1168 20.6274 50.6856 18.4459 47.1578 16.7503C44.6982 15.782 41.4473 14.8725 38.8761 14.2757C39.0548 13.7393 38.6919 12.9321 38.8761 12.3795Z" fill="#F88B53"/>
<path d="M66.9989 27.2102L62.8711 13.0256H66.6597L68.7997 22.3204H68.9173L71.3623 13.0256H74.4515L76.896 22.3412H77.0141L79.1611 13.0256H82.9427L78.8214 27.2102H75.5177L72.9622 18.608H72.8511L70.2955 27.2102H66.9989ZM85.8845 27.2102H82.1999L86.986 13.0256H91.5498L96.3359 27.2102H92.6513L89.3199 16.5995H89.2088L85.8845 27.2102ZM85.3926 21.6278H93.0944V24.232H85.3926V21.6278ZM99.1791 13.0256L102.351 23.4147H102.469L105.641 13.0256H109.478L104.692 27.2102H100.128L95.3423 13.0256H99.1791ZM111.005 27.2102V13.0256H120.896V15.8099H114.434V18.7188H120.39V21.5101H114.434V24.4259H120.896V27.2102H111.005ZM123.043 27.2102V13.0256H132.726V15.8099H126.471V18.7188H132.109V21.5101H126.471V27.2102H123.043ZM147.84 20.1179C147.84 21.6786 147.54 23.0014 146.94 24.0866C146.339 25.1716 145.527 25.9958 144.502 26.5592C143.481 27.1225 142.336 27.4042 141.066 27.4042C139.792 27.4042 138.645 27.1202 137.624 26.5522C136.604 25.9843 135.793 25.1601 135.193 24.0796C134.598 22.9946 134.3 21.674 134.3 20.1179C134.3 18.5572 134.598 17.2344 135.193 16.1493C135.793 15.0642 136.604 14.24 137.624 13.6767C138.645 13.1133 139.792 12.8317 141.066 12.8317C142.336 12.8317 143.481 13.1133 144.502 13.6767C145.527 14.24 146.339 15.0642 146.94 16.1493C147.54 17.2344 147.84 18.5572 147.84 20.1179ZM144.335 20.1179C144.335 19.1945 144.204 18.4141 143.94 17.7769C143.682 17.1397 143.308 16.6572 142.818 16.3294C142.333 16.0015 141.749 15.8376 141.066 15.8376C140.387 15.8376 139.803 16.0015 139.314 16.3294C138.824 16.6572 138.448 17.1397 138.185 17.7769C137.927 18.4141 137.797 19.1945 137.797 20.1179C137.797 21.0414 137.927 21.8217 138.185 22.4589C138.448 23.0962 138.824 23.5787 139.314 23.9065C139.803 24.2343 140.387 24.3982 141.066 24.3982C141.749 24.3982 142.333 24.2343 142.818 23.9065C143.308 23.5787 143.682 23.0962 143.94 22.4589C144.204 21.8217 144.335 21.0414 144.335 20.1179ZM149.841 27.2102V13.0256H155.701C156.763 13.0256 157.68 13.2172 158.451 13.6005C159.227 13.9791 159.825 14.5239 160.244 15.235C160.665 15.9415 160.875 16.7796 160.875 17.7492C160.875 18.7327 160.66 19.5684 160.231 20.2564C159.801 20.9398 159.192 21.4616 158.402 21.8217C157.613 22.1773 156.677 22.3551 155.597 22.3551H151.892V19.6539H154.96C155.477 19.6539 155.909 19.5869 156.255 19.453C156.606 19.3145 156.871 19.1067 157.052 18.8297C157.232 18.548 157.322 18.1878 157.322 17.7492C157.322 17.3106 157.232 16.9481 157.052 16.6618C156.871 16.3709 156.606 16.1539 156.255 16.0107C155.904 15.863 155.473 15.7891 154.96 15.7891H153.27V27.2102H149.841ZM157.828 20.7274L161.359 27.2102H157.62L154.157 20.7274H157.828ZM162.755 13.0256H167.001L170.603 21.8079H170.769L174.37 13.0256H178.616V27.2102H175.278V18.4972H175.16L171.752 27.1202H169.619L166.212 18.4487H166.093V27.2102H162.755V13.0256ZM184.481 15.8099V13.0256H196.47V15.8099H192.168V27.2102H188.789V15.8099H184.481ZM198.144 27.2102V13.0256H208.034V15.8099H201.573V18.7188H207.529V21.5101H201.573V24.4259H208.034V27.2102H198.144ZM210.181 27.2102V13.0256H213.61V24.4259H219.511V27.2102H210.181ZM221.286 27.2102V13.0256H231.176V15.8099H224.714V18.7188H230.671V21.5101H224.714V24.4259H231.176V27.2102H221.286ZM246.199 18.1648H242.736C242.69 17.8092 242.595 17.4883 242.452 17.202C242.309 16.9158 242.119 16.671 241.884 16.4679C241.649 16.2647 241.369 16.11 241.046 16.0039C240.727 15.893 240.374 15.8376 239.986 15.8376C239.298 15.8376 238.705 16.0061 238.206 16.3432C237.712 16.6803 237.331 17.1674 237.064 17.8046C236.8 18.4418 236.669 19.2129 236.669 20.1179C236.669 21.0598 236.802 21.8494 237.07 22.4867C237.343 23.1192 237.723 23.5971 238.213 23.9204C238.707 24.2389 239.291 24.3982 239.965 24.3982C240.344 24.3982 240.688 24.3498 240.997 24.2528C241.312 24.1558 241.586 24.015 241.821 23.8303C242.062 23.641 242.258 23.4124 242.41 23.1446C242.567 22.8722 242.676 22.5651 242.736 22.2235L246.199 22.2442C246.139 22.8722 245.956 23.4909 245.652 24.1004C245.352 24.7099 244.938 25.2663 244.412 25.7696C243.886 26.2683 243.244 26.6654 242.487 26.9609C241.734 27.2564 240.871 27.4042 239.896 27.4042C238.613 27.4042 237.463 27.1225 236.447 26.5592C235.436 25.9912 234.637 25.1647 234.051 24.0796C233.464 22.9946 233.171 21.674 233.171 20.1179C233.171 18.5572 233.469 17.2344 234.064 16.1493C234.66 15.0642 235.466 14.24 236.482 13.6767C237.498 13.1133 238.636 12.8317 239.896 12.8317C240.755 12.8317 241.549 12.9517 242.279 13.1918C243.008 13.4273 243.65 13.7736 244.204 14.2307C244.758 14.6833 245.209 15.2396 245.555 15.8999C245.901 16.5602 246.116 17.3152 246.199 18.1648ZM261.549 20.1179C261.549 21.6786 261.249 23.0014 260.649 24.0866C260.048 25.1716 259.236 25.9958 258.211 26.5592C257.19 27.1225 256.045 27.4042 254.775 27.4042C253.501 27.4042 252.354 27.1202 251.333 26.5522C250.313 25.9843 249.502 25.1601 248.902 24.0796C248.306 22.9946 248.008 21.674 248.008 20.1179C248.008 18.5572 248.306 17.2344 248.902 16.1493C249.502 15.0642 250.313 14.24 251.333 13.6767C252.354 13.1133 253.501 12.8317 254.775 12.8317C256.045 12.8317 257.19 13.1133 258.211 13.6767C259.236 14.24 260.048 15.0642 260.649 16.1493C261.249 17.2344 261.549 18.5572 261.549 20.1179ZM258.044 20.1179C258.044 19.1945 257.913 18.4141 257.649 17.7769C257.391 17.1397 257.017 16.6572 256.527 16.3294C256.042 16.0015 255.458 15.8376 254.775 15.8376C254.096 15.8376 253.512 16.0015 253.023 16.3294C252.533 16.6572 252.157 17.1397 251.894 17.7769C251.635 18.4141 251.506 19.1945 251.506 20.1179C251.506 21.0414 251.635 21.8217 251.894 22.4589C252.157 23.0962 252.533 23.5787 253.023 23.9065C253.512 24.2343 254.096 24.3982 254.775 24.3982C255.458 24.3982 256.042 24.2343 256.527 23.9065C257.017 23.5787 257.391 23.0962 257.649 22.4589C257.913 21.8217 258.044 21.0414 258.044 20.1179ZM263.55 13.0256H267.796L271.398 21.8079H271.564L275.165 13.0256H279.411V27.2102H276.073V18.4972H275.955L272.548 27.1202H270.414L267.007 18.4487H266.889V27.2102H263.55V13.0256Z" fill="white"/>
</g>
<defs>
<radialGradient id="paint0_radial_532_1537" cx="0" cy="0" r="1" gradientUnits="userSpaceOnUse" gradientTransform="translate(18.8307 13.7339) scale(18.6912 27.8873)">
<stop offset="0.436667" stop-color="#F3864D"/>
<stop offset="0.9999" stop-color="#DEDEDE"/>
</radialGradient>
<clipPath id="clip0_532_1537">
<rect width="280.097" height="38.4659" fill="white" transform="translate(0.952148 0.731323)"/>
</clipPath>
</defs>
</svg>
