<svg width="430" height="65" viewBox="0 0 430 65" fill="none" xmlns="http://www.w3.org/2000/svg">
<path d="M45.3146 22.001C45.3393 22.0009 45.3639 22.0007 45.3893 22.0006C45.4685 22.0002 45.5476 22.0001 45.6268 22C45.6471 22 45.6471 22 45.6678 22C46.0934 22 46.5127 22.0071 46.9347 22.0684C46.9492 22.0705 46.9637 22.0725 46.9785 22.0747C48.7891 22.3391 50.5013 23.0529 51.9664 24.2549C51.9966 24.2796 51.9966 24.2796 52.0274 24.3049C52.1361 24.3949 52.2415 24.4877 52.3446 24.5842C52.3727 24.6102 52.4009 24.6361 52.4299 24.6611C52.5674 24.7807 52.6936 24.9121 52.8209 25.0428C52.8609 25.0839 52.9011 25.1249 52.9412 25.1659C53.0656 25.2931 53.1883 25.4203 53.3013 25.5584C53.3187 25.5786 53.336 25.5989 53.3539 25.6198C54.693 27.2103 55.5121 29.2276 55.7658 32.0548C55.7662 32.0762 55.7667 32.0976 55.7671 32.1196C55.7975 33.8555 55.4124 35.5279 54.6568 37.0796C54.6481 37.0975 54.6394 37.1153 54.6305 37.1337C54.4311 37.5404 54.1977 37.9299 53.9379 38.299C53.9265 38.3153 53.9151 38.3315 53.9033 38.3483C53.7629 38.5469 53.6208 38.7429 53.4656 38.9297C53.4563 38.941 53.4471 38.9522 53.4376 38.9638C53.4068 39.0011 53.3759 39.0384 53.3449 39.0756C53.3358 39.0866 53.3266 39.0977 53.3172 39.109C53.1374 39.3238 52.947 39.5277 52.7517 39.7275C52.7159 39.7642 52.6803 39.8011 52.6447 39.8379C52.5218 39.9643 52.3976 40.0834 52.2608 40.194C52.2147 40.2317 52.1713 40.2711 52.1281 40.3121C51.986 40.4426 51.8317 40.558 51.6789 40.6747C51.6638 40.6863 51.6487 40.6978 51.6331 40.7097C50.1479 41.8404 48.3622 42.5013 46.524 42.672C46.5042 42.6741 46.4845 42.6761 46.4641 42.6781C45.777 42.7394 45.0509 42.7288 44.3676 42.63C44.3531 42.6279 44.3386 42.6258 44.3237 42.6237C42.3018 42.3286 40.4866 41.467 38.7154 39.8924C38.6777 39.8537 38.6385 39.8181 38.5979 39.7825C38.4636 39.6639 38.341 39.5346 38.2257 39.3969C38.1862 39.3506 38.1456 39.3054 38.1048 39.2604C37.9896 39.1332 37.8803 39.0026 37.7751 38.8667C37.7648 38.8534 37.7544 38.8401 37.7438 38.8265C37.3695 38.3454 37.0378 37.8378 36.7531 37.296C36.736 37.2635 36.7187 37.231 36.7013 37.1987C36.4246 36.6838 36.2131 36.1427 36.0295 35.5869C36.0219 35.5654 36.0143 35.5438 36.0065 35.5217C35.9884 35.4608 35.9884 35.4608 35.9884 35.3767C36.6423 35.3714 37.2962 35.3673 37.9501 35.3648C38.0273 35.3646 38.1045 35.3643 38.1818 35.364C38.2048 35.3639 38.2048 35.3639 38.2283 35.3638C38.4772 35.3628 38.726 35.3609 38.9748 35.3588C39.2302 35.3567 39.4856 35.3554 39.741 35.3549C39.8985 35.3546 40.0561 35.3536 40.2136 35.3517C40.3345 35.3503 40.4553 35.3502 40.5762 35.3505C40.6257 35.3504 40.6753 35.35 40.7248 35.3491C41.0997 35.3427 41.0997 35.3427 41.208 35.4271C41.2507 35.4861 41.2795 35.5407 41.3075 35.6079C41.325 35.6349 41.3431 35.6616 41.362 35.6875C41.3775 35.7102 41.393 35.733 41.4089 35.7564C41.4968 35.8837 41.5938 35.9985 41.6978 36.1125C41.7197 36.1387 41.7415 36.165 41.7632 36.1913C41.9426 36.4014 42.1396 36.5933 42.3549 36.7643C42.3746 36.7805 42.3943 36.7968 42.4146 36.8136C43.5489 37.7376 45.0144 38.1066 46.4419 37.9416C47.4939 37.8053 48.5031 37.3356 49.2965 36.6171C49.3226 36.5939 49.3226 36.5939 49.3492 36.5702C49.5695 36.3715 49.7735 36.1607 49.9537 35.9233C49.9699 35.9026 49.9861 35.882 50.0027 35.8607C50.4324 35.3077 50.7457 34.6664 50.9395 33.9891C50.944 33.9733 50.9485 33.9575 50.9532 33.9412C51.3446 32.538 51.1462 31.0026 50.4589 29.7309C50.2541 29.3662 50.0099 29.0326 49.733 28.722C49.7016 28.6867 49.6706 28.6511 49.6398 28.6153C49.545 28.505 49.4475 28.4066 49.3376 28.3125C49.3187 28.2955 49.2997 28.2785 49.2802 28.261C48.5386 27.5971 47.6004 27.1443 46.6267 26.988C46.6064 26.9847 46.5861 26.9813 46.5652 26.9779C46.0023 26.8887 45.4223 26.8953 44.8605 26.988C44.8408 26.9912 44.8211 26.9943 44.8008 26.9976C44.0568 27.1223 43.3218 27.43 42.7041 27.871C42.6794 27.8886 42.6794 27.8886 42.6542 27.9065C42.4602 28.0459 42.2766 28.1917 42.1057 28.3599C42.0505 28.4141 41.994 28.4659 41.9365 28.5175C41.8492 28.5979 41.773 28.683 41.6978 28.7751C41.6811 28.7944 41.6645 28.8138 41.6474 28.8338C41.5155 28.9882 41.3975 29.1502 41.2834 29.3187C41.2743 29.332 41.2652 29.3452 41.2558 29.3588C41.2247 29.4052 41.2247 29.4052 41.2002 29.4549C41.1302 29.5843 41.1302 29.5843 41.0568 29.6123C41.0005 29.6189 40.9468 29.6193 40.8901 29.6178C40.8688 29.6179 40.8475 29.6181 40.8255 29.6183C40.754 29.6186 40.6827 29.6175 40.6112 29.6165C40.56 29.6164 40.5088 29.6165 40.4576 29.6166C40.3473 29.6166 40.2371 29.6161 40.1269 29.615C39.9675 29.6135 39.8081 29.613 39.6487 29.6128C39.3901 29.6123 39.1315 29.6111 38.8729 29.6093C38.6218 29.6075 38.3706 29.6062 38.1194 29.6054C38.1039 29.6054 38.0884 29.6053 38.0725 29.6053C37.9948 29.605 37.9171 29.6048 37.8394 29.6045C37.195 29.6026 36.5506 29.5992 35.9062 29.595C35.9126 29.5617 35.9189 29.5284 35.9253 29.4951C35.9289 29.4766 35.9324 29.4581 35.9361 29.439C35.9516 29.364 35.9731 29.292 35.9966 29.2194C36.0037 29.197 36.0037 29.197 36.0109 29.1742C36.0263 29.1261 36.042 29.078 36.0577 29.03C36.0631 29.0134 36.0685 28.9967 36.0741 28.9796C36.1794 28.6581 36.3017 28.3474 36.4402 28.0392C36.4553 28.0054 36.4553 28.0054 36.4707 27.9709C36.754 27.3393 37.1009 26.7451 37.5082 26.1891C37.5176 26.1762 37.527 26.1634 37.5367 26.1501C37.6954 25.9345 37.8624 25.7262 38.0344 25.5216C38.0506 25.5022 38.0506 25.5022 38.0672 25.4825C38.1343 25.4031 38.2044 25.3282 38.2774 25.2545C38.313 25.218 38.346 25.18 38.3784 25.1405C38.4945 25.0031 38.6206 24.8774 38.7553 24.7594C38.8025 24.7169 38.8483 24.6731 38.894 24.629C39.0188 24.509 39.148 24.3983 39.2838 24.2916C39.3306 24.2548 39.3764 24.2171 39.4215 24.1781C39.5964 24.0277 39.7827 23.8969 39.9726 23.7674C39.9855 23.7586 39.9984 23.7497 40.0117 23.7406C41.5612 22.6834 43.4389 22.0086 45.3146 22.001Z" fill="#FF4E4E"/>
<path d="M34.9311 23.8299C34.9617 23.9075 36.2391 24.6355 36.1516 24.7371C36.0192 24.8918 35.8964 25.0525 35.7763 25.2173C35.7418 25.2645 35.7071 25.3115 35.6723 25.3585C35.4133 25.7108 35.1768 26.0804 34.9617 26.4624C34.9466 26.4891 34.9466 26.4891 34.9311 26.5163C34.6157 27.0726 34.3565 27.6467 34.126 28.2444C34.0918 28.3312 34.055 28.4166 34.017 28.5018C34.0035 28.5018 33.9899 28.5018 33.976 28.5018C33.9508 28.4747 33.9508 28.4747 33.922 28.4374C33.8655 28.3679 33.8057 28.3092 33.7384 28.2508C33.7006 28.2179 33.6633 28.1847 33.6263 28.1509C33.3547 27.9052 33.0597 27.6952 32.7437 27.5136C32.729 27.5051 32.7142 27.4966 32.699 27.4879C32.4546 27.3484 32.2052 27.2341 31.9428 27.1352C31.9278 27.1295 31.9128 27.1237 31.8973 27.1178C31.0556 26.7991 30.0741 26.7082 29.1908 26.8829C29.1726 26.8862 29.1545 26.8895 29.1358 26.8928C28.3075 27.0436 27.5124 27.4046 26.8495 27.9341C26.8311 27.9485 26.8127 27.9629 26.7938 27.9777C26.4394 28.2603 26.1079 28.5926 25.8432 28.9643C25.8283 28.985 25.8283 28.985 25.8131 29.0061C25.4642 29.4916 25.1803 30.0286 25.0012 30.6042C24.9958 30.6213 24.9905 30.6384 24.985 30.656C24.5532 32.0767 24.7253 33.6138 25.3979 34.9248C25.5962 35.2987 25.848 35.6446 26.1281 35.958C26.1652 35.9999 26.2006 36.0427 26.236 36.0862C26.6126 36.5258 27.1061 36.8724 27.6094 37.1427C27.6261 37.1517 27.6428 37.1608 27.66 37.1701C28.9115 37.8368 30.3983 37.9502 31.7416 37.5201C32.0529 37.4155 32.3522 37.2795 32.641 37.1217C32.6543 37.1145 32.6676 37.1074 32.6812 37.1C33.0123 36.9209 33.3146 36.6978 33.5975 36.4471C33.6104 36.4357 33.6233 36.4243 33.6366 36.4125C33.6621 36.39 33.6874 36.3673 33.7127 36.3445C33.7243 36.3341 33.736 36.3238 33.748 36.3131C33.7583 36.3038 33.7686 36.2945 33.7792 36.285C33.8154 36.2568 33.8526 36.2373 33.8938 36.2176C33.9001 36.2364 33.9064 36.2552 33.9128 36.2746C34.1121 36.8688 34.3384 37.4419 34.6126 38.0047C34.6239 38.0279 34.6352 38.0512 34.6469 38.0751C35.0292 38.8559 35.4996 39.5895 36.047 40.2599C36.0576 40.2729 36.0683 40.286 36.0793 40.2994C36.1018 40.3264 36.1248 40.3529 36.1482 40.379C36.1597 40.3919 36.1712 40.4049 36.1831 40.4182C36.1935 40.4297 36.204 40.4411 36.2148 40.4529C36.2215 40.4637 36.2282 40.4745 36.235 40.4855C36.2126 40.5546 36.2016 40.5644 36.1466 40.6059C36.132 40.617 36.1173 40.6281 36.1022 40.6396C36.0859 40.6516 36.0696 40.6637 36.0528 40.6761C36.0357 40.6888 36.0186 40.7015 36.001 40.7147C35.4932 41.0893 34.9661 41.4161 34.4072 41.705C34.388 41.7149 34.3687 41.7249 34.3488 41.7352C34.0404 41.8936 33.7256 42.0271 33.4009 42.1465C33.3768 42.1553 33.3527 42.1642 33.3278 42.1733C32.5999 42.4377 31.849 42.6126 31.0815 42.6997C31.0589 42.7022 31.0589 42.7022 31.0358 42.7048C30.6792 42.7446 30.3246 42.7606 29.9661 42.7601C29.9473 42.7601 29.9285 42.7601 29.9091 42.7601C28.0713 42.7567 26.2624 42.244 24.6931 41.2634C24.6775 41.2538 24.6619 41.2442 24.6458 41.2342C24.0874 40.8896 23.5716 40.4732 23.0912 40.023C23.076 40.0088 23.076 40.0088 23.0604 39.9944C22.855 39.8033 22.6501 39.6098 22.4701 39.393C22.4268 39.3417 22.3816 39.2922 22.3365 39.2425C22.2291 39.1218 22.1312 38.9951 22.034 38.8658C22.0012 38.8226 21.968 38.7799 21.9346 38.7373C21.517 38.2004 21.1724 37.6088 20.8732 36.9955C20.8637 36.9762 20.8541 36.9569 20.8443 36.937C20.0227 35.2615 19.714 33.3438 20.3109 29.2186C20.7769 27.7808 21.5273 26.3518 22.5979 25.2854C22.6386 25.2438 22.6764 25.2009 22.7138 25.1563C22.8153 25.0357 22.9251 24.9279 23.0428 24.8241C23.0915 24.7802 23.139 24.7352 23.1864 24.6898C23.3149 24.5672 23.4462 24.4505 23.5841 24.339C23.6042 24.3226 23.6042 24.3226 23.6246 24.306C23.838 24.1323 24.0552 23.9676 24.2824 23.8134C24.2957 23.8043 24.3089 23.7952 24.3226 23.7858C26.674 22.4064 31.4214 21.7759 34.9311 23.8299Z" fill="#FF4E4E"/>
<path d="M31.2297 30.868C31.5202 31.1188 31.7447 31.4164 31.8812 31.7815C31.8812 31.7954 31.8812 31.8093 31.8812 31.8236C35.7713 31.8236 39.6615 31.8236 43.6695 31.8236C43.7 31.7299 43.7 31.7299 43.7312 31.6344C43.9465 31.1446 44.3753 30.7403 44.8619 30.5452C45.1169 30.452 45.3651 30.407 45.636 30.4084C45.6712 30.4086 45.6712 30.4086 45.7072 30.4088C46.2692 30.417 46.7535 30.6577 47.1557 31.0523C47.5442 31.4649 47.7452 32.0186 47.7421 32.5889C47.7268 33.2184 47.4665 33.7434 47.0271 34.1759C46.6365 34.5442 46.0867 34.7168 45.5629 34.7034C44.9804 34.676 44.4698 34.4196 44.0654 33.9931C43.9175 33.8205 43.7656 33.6044 43.7106 33.3794C39.7933 33.3794 35.8761 33.3794 31.8401 33.3794C31.8198 33.4418 31.8198 33.4418 31.799 33.5055C31.5624 34.0074 31.1386 34.3919 30.6265 34.5799C30.1078 34.7599 29.5276 34.7499 29.0285 34.5097C28.8385 34.4136 28.6681 34.3067 28.5131 34.1573C28.5032 34.1481 28.4933 34.139 28.4832 34.1295C28.0687 33.7436 27.8432 33.2206 27.8102 32.6483C27.7975 32.081 27.9715 31.5305 28.3488 31.1088C28.3646 31.0908 28.3804 31.0729 28.3967 31.0545C29.1302 30.2636 30.4033 30.1842 31.2297 30.868Z" fill="#FF4E4E"/>
<path d="M161.615 26.0222C162.364 26.0222 163.113 26.0222 163.884 26.0222C163.988 26.1887 163.988 26.1887 164.095 26.3586C164.148 26.4424 164.201 26.526 164.255 26.6096C164.284 26.6551 164.313 26.7006 164.342 26.7461C164.357 26.769 164.372 26.7919 164.387 26.8155C164.458 26.9259 164.528 27.0365 164.599 27.147C164.627 27.1906 164.655 27.2342 164.682 27.2777C164.74 27.3675 164.797 27.4573 164.855 27.5471C165.037 27.833 165.037 27.833 165.221 28.1181C165.319 28.2689 165.416 28.4205 165.512 28.5723C165.648 28.7866 165.785 29.0004 165.922 29.2142C165.978 29.3022 166.035 29.3902 166.091 29.4782C166.119 29.5218 166.147 29.5655 166.174 29.6091C166.246 29.7207 166.317 29.8323 166.389 29.9439C166.571 30.2298 166.571 30.2298 166.755 30.5148C166.853 30.6657 166.95 30.8173 167.046 30.969C167.182 31.1833 167.319 31.3972 167.456 31.611C167.512 31.699 167.568 31.787 167.625 31.875C167.652 31.9185 167.68 31.962 167.708 32.0055C167.773 32.1071 167.838 32.2088 167.903 32.3105C167.926 32.3463 167.949 32.3821 167.972 32.4179C168 32.4626 168.029 32.5074 168.057 32.5521C168.128 32.663 168.2 32.7729 168.275 32.8811C168.297 32.9181 168.297 32.9181 168.297 32.9602C168.311 32.9602 168.325 32.9602 168.339 32.9602C168.344 32.9451 168.35 32.93 168.356 32.9144C168.382 32.8534 168.412 32.8017 168.448 32.7461C168.462 32.7251 168.475 32.7041 168.489 32.6825C168.511 32.6489 168.511 32.6489 168.533 32.6146C168.548 32.591 168.564 32.5674 168.579 32.5438C168.61 32.4956 168.641 32.4474 168.672 32.3992C168.737 32.2978 168.802 32.1961 168.867 32.0942C168.891 32.0562 168.915 32.0181 168.939 31.9801C168.963 31.9424 168.987 31.9046 169.011 31.8669C169.179 31.6026 169.347 31.3386 169.516 31.0748C169.657 30.8556 169.796 30.636 169.936 30.4163C170.104 30.152 170.272 29.8879 170.441 29.6241C170.581 29.4049 170.721 29.1853 170.86 28.9656C171.028 28.7012 171.197 28.4371 171.365 28.1733C171.456 28.0311 171.547 27.8887 171.638 27.7462C171.742 27.5813 171.848 27.4166 171.953 27.2521C172.083 27.0489 172.213 26.8455 172.342 26.6418C172.394 26.5601 172.446 26.4783 172.498 26.3966C172.512 26.3753 172.525 26.354 172.539 26.332C172.565 26.291 172.592 26.2499 172.618 26.2089C172.63 26.1905 172.641 26.1722 172.653 26.1533C172.664 26.1371 172.674 26.1209 172.685 26.1042C172.71 26.0646 172.71 26.0646 172.73 26.0222C173.479 26.0222 174.228 26.0222 175 26.0222C175 30.2197 175 34.4172 175 38.7418C174.299 38.7418 173.599 38.7418 172.877 38.7418C172.87 35.9042 172.864 33.0666 172.856 30.1429C172.725 30.3372 172.593 30.5315 172.457 30.7316C172.324 30.9283 172.19 31.125 172.056 31.3216C171.885 31.5734 171.714 31.8252 171.543 32.0772C171.343 32.3721 171.143 32.6668 170.943 32.9615C170.771 33.2133 170.6 33.4651 170.43 33.7171C170.23 34.012 170.029 34.3067 169.829 34.6014C169.8 34.6446 169.77 34.6877 169.741 34.7309C169.712 34.774 169.682 34.8171 169.653 34.8602C169.58 34.9673 169.507 35.0745 169.435 35.1819C169.398 35.2359 169.362 35.2898 169.325 35.3438C169.308 35.3698 169.29 35.3958 169.273 35.4218C169.248 35.4582 169.224 35.4944 169.199 35.5307C169.185 35.5515 169.171 35.5722 169.157 35.5936C169.143 35.6127 169.13 35.6317 169.116 35.6513C169.105 35.6695 169.093 35.6877 169.081 35.7065C169.017 35.7724 168.983 35.7703 168.892 35.772C168.878 35.7724 168.865 35.7728 168.85 35.7732C168.804 35.7743 168.759 35.7746 168.713 35.7748C168.681 35.7752 168.649 35.7756 168.617 35.776C168.55 35.7767 168.483 35.777 168.416 35.777C168.33 35.7771 168.245 35.7788 168.159 35.7808C168.093 35.7822 168.027 35.7824 167.961 35.7824C167.929 35.7826 167.898 35.7831 167.866 35.7841C167.621 35.7907 167.621 35.7907 167.527 35.7069C167.484 35.6481 167.449 35.5893 167.414 35.5251C167.39 35.489 167.365 35.4531 167.34 35.4176C167.315 35.3812 167.291 35.3448 167.266 35.3083C167.238 35.2677 167.211 35.2272 167.183 35.1866C167.162 35.1558 167.162 35.1558 167.141 35.1244C167.074 35.0253 167.006 34.9264 166.939 34.8274C166.926 34.8082 166.913 34.7889 166.899 34.7691C166.804 34.6299 166.709 34.4907 166.614 34.3516C166.514 34.2046 166.413 34.0575 166.313 33.9103C166.229 33.7862 166.144 33.6622 166.059 33.5383C165.947 33.3751 165.836 33.2117 165.725 33.0483C165.64 32.9242 165.556 32.8003 165.471 32.6764C165.359 32.5132 165.248 32.3498 165.136 32.1863C165.052 32.0622 164.967 31.9383 164.883 31.8144C164.718 31.5741 164.554 31.3336 164.391 31.093C164.299 30.9585 164.207 30.824 164.116 30.6896C164.103 30.6709 164.09 30.6521 164.077 30.6329C164.04 30.5786 164.003 30.5244 163.966 30.4701C163.955 30.4541 163.944 30.4381 163.933 30.4215C163.922 30.4064 163.912 30.3912 163.901 30.3756C163.892 30.3626 163.884 30.3496 163.874 30.3362C163.829 30.2713 163.783 30.2072 163.737 30.1429C163.73 32.9806 163.724 35.8182 163.716 38.7418C163.023 38.7418 162.33 38.7418 161.615 38.7418C161.615 34.5444 161.615 30.3469 161.615 26.0222Z" fill="#FF4E4E"/>
<path d="M90.3857 26.0222C91.1346 26.0222 91.8834 26.0222 92.655 26.0222C92.7313 26.1471 92.8075 26.272 92.8861 26.4006C92.9291 26.468 92.9722 26.535 93.0161 26.6017C93.0393 26.6371 93.0624 26.6725 93.0856 26.708C93.0975 26.7262 93.1094 26.7445 93.1217 26.7634C93.1895 26.8677 93.2564 26.9725 93.3234 27.0774C93.3375 27.0994 93.3516 27.1215 93.3661 27.1443C93.3949 27.1893 93.4237 27.2343 93.4524 27.2793C93.5227 27.3894 93.5931 27.4995 93.6635 27.6095C93.6915 27.6533 93.7196 27.6971 93.7476 27.7409C93.7684 27.7735 93.7684 27.7735 93.7896 27.8066C94.588 29.0549 94.588 29.0549 94.6301 29.1207C94.658 29.1644 94.6859 29.208 94.7139 29.2517C94.7852 29.3633 94.8566 29.4748 94.9279 29.5865C95.1106 29.8723 95.1106 29.8723 95.2945 30.1574C95.3924 30.3082 95.4889 30.4599 95.5853 30.6116C95.7214 30.8259 95.8583 31.0398 95.9951 31.2536C96.0514 31.3416 96.1077 31.4296 96.164 31.5176C96.1919 31.5612 96.2198 31.6048 96.2477 31.6484C96.3191 31.76 96.3904 31.8716 96.4617 31.9832C96.5871 32.1794 96.7125 32.3756 96.8389 32.5712C96.8481 32.5855 96.8574 32.5999 96.8669 32.6146C96.9259 32.7057 96.986 32.796 97.0479 32.8852C97.0674 32.9181 97.0674 32.9181 97.0674 32.9602C97.0813 32.9602 97.0951 32.9602 97.1094 32.9602C97.1141 32.9464 97.1188 32.9326 97.1237 32.9185C97.1607 32.8339 97.2093 32.7592 97.2591 32.6816C97.2701 32.6643 97.2811 32.6471 97.2925 32.6293C97.3294 32.5713 97.3665 32.5135 97.4036 32.4556C97.4306 32.4133 97.4576 32.371 97.4847 32.3287C97.5415 32.2397 97.5984 32.1508 97.6554 32.0619C97.7336 31.9397 97.8116 31.8173 97.8895 31.6948C97.9075 31.6665 97.9075 31.6665 97.9258 31.6376C97.9619 31.5809 97.9979 31.5242 98.0339 31.4675C98.2018 31.2032 98.3701 30.9391 98.5389 30.6754C98.6792 30.4561 98.8189 30.2365 98.9584 30.0168C99.1263 29.7525 99.2946 29.4884 99.4634 29.2247C99.6037 29.0055 99.7434 28.7858 99.8829 28.5661C100.051 28.3018 100.219 28.0377 100.388 27.7739C100.479 27.6316 100.57 27.4893 100.66 27.3467C100.765 27.1818 100.87 27.0172 100.976 26.8527C101.086 26.6793 101.197 26.5059 101.308 26.3323C101.32 26.3132 101.332 26.294 101.345 26.2743C101.356 26.2565 101.367 26.2387 101.379 26.2203C101.389 26.2048 101.399 26.1893 101.409 26.1734C101.44 26.1234 101.47 26.0728 101.501 26.0222C102.243 26.0222 102.985 26.0222 103.749 26.0222C103.749 30.2197 103.749 34.4172 103.749 38.7418C103.056 38.7418 102.362 38.7418 101.648 38.7418C101.641 35.9042 101.634 33.0666 101.627 30.1429C101.403 30.4699 101.403 30.4699 101.18 30.7973C101.15 30.8424 101.119 30.8874 101.089 30.9324C101.073 30.9549 101.058 30.9774 101.042 31.0006C100.998 31.0663 100.953 31.132 100.908 31.1977C100.752 31.4277 100.596 31.6578 100.44 31.8879C100.24 32.1829 100.039 32.4776 99.8391 32.7723C99.668 33.024 99.4969 33.2759 99.3261 33.5278C99.1262 33.8228 98.9259 34.1175 98.7255 34.4122C98.6962 34.4553 98.6669 34.4985 98.6376 34.5416C98.6082 34.5848 98.5787 34.6281 98.5493 34.6714C98.4777 34.7768 98.4061 34.8822 98.3348 34.9878C98.2995 35.0399 98.2643 35.0921 98.229 35.1442C98.2123 35.1689 98.1956 35.1936 98.1789 35.2184C98.1408 35.275 98.1024 35.3313 98.0633 35.3873C98.0292 35.4366 97.9986 35.4865 97.9693 35.5388C97.9053 35.6478 97.8512 35.7386 97.7291 35.7835C97.6414 35.7936 97.5583 35.7947 97.4703 35.7918C97.4384 35.7917 97.4066 35.7918 97.3747 35.7919C97.3083 35.7918 97.242 35.7908 97.1756 35.789C97.0908 35.7867 97.0061 35.7866 96.9213 35.7872C96.8556 35.7875 96.79 35.7868 96.7244 35.7858C96.6931 35.7854 96.6619 35.7853 96.6306 35.7854C96.3885 35.7853 96.3885 35.7853 96.3021 35.7149C96.2645 35.6673 96.2348 35.6205 96.2059 35.5672C96.1893 35.5425 96.1724 35.518 96.1552 35.4938C96.1396 35.4701 96.1242 35.4464 96.1087 35.4226C96.0906 35.3951 96.0725 35.3676 96.0543 35.3401C96.0448 35.3257 96.0354 35.3114 96.0256 35.2966C95.9731 35.2177 95.9194 35.1395 95.8658 35.0613C95.8425 35.0272 95.8191 34.9932 95.7958 34.9591C95.7838 34.9417 95.7719 34.9243 95.7596 34.9064C95.6955 34.8127 95.6316 34.7189 95.5677 34.625C95.5546 34.6058 95.5414 34.5865 95.5279 34.5667C95.4744 34.488 95.4208 34.4094 95.3672 34.3307C95.2191 34.1133 95.071 33.8959 94.9224 33.6788C94.8219 33.5319 94.7216 33.3847 94.6214 33.2375C94.5368 33.1134 94.4522 32.9895 94.3674 32.8656C94.2031 32.6254 94.0393 32.3848 93.8754 32.1442C93.7384 31.943 93.6014 31.7419 93.4639 31.5411C93.3666 31.3988 93.2694 31.2564 93.1724 31.114C93.1593 31.0948 93.1462 31.0756 93.1328 31.0559C93.0648 30.956 92.9968 30.8561 92.9288 30.7563C92.915 30.7361 92.9013 30.7159 92.8871 30.6951C92.8613 30.6571 92.8355 30.6192 92.8097 30.5812C92.7098 30.4346 92.6088 30.2888 92.5079 30.1429C92.501 32.9806 92.494 35.8182 92.4869 38.7418C91.7935 38.7418 91.1001 38.7418 90.3857 38.7418C90.3857 34.5444 90.3857 30.3469 90.3857 26.0222Z" fill="#FF4E4E"/>
<path d="M81.5568 25.8707C81.5914 25.8705 81.5914 25.8705 81.6268 25.8703C81.6755 25.8701 81.7243 25.87 81.773 25.8699C81.8457 25.8697 81.9183 25.8691 81.9909 25.8684C82.4129 25.8664 82.8313 25.9021 83.2455 25.9853C83.2677 25.9897 83.29 25.9941 83.3129 25.9987C83.5531 26.048 83.7871 26.1147 84.0203 26.1903C84.0391 26.1964 84.058 26.2024 84.0773 26.2086C85.0165 26.5146 85.8607 27.0646 86.5588 27.7579C86.5771 27.7761 86.5954 27.7942 86.6143 27.8129C86.739 27.9383 86.8523 28.0699 86.9619 28.2086C86.9722 28.2214 86.9824 28.2342 86.993 28.2474C87.6841 29.113 88.1239 30.1632 88.2856 31.2571C88.2904 31.2872 88.2904 31.2872 88.2952 31.3178C88.4007 32.0135 88.3989 32.7706 88.2856 33.4647C88.2819 33.4876 88.2782 33.5106 88.2744 33.5342C88.1705 34.1545 87.9919 34.7484 87.7183 35.3148C87.7046 35.3432 87.7046 35.3432 87.6907 35.3722C87.4447 35.8769 87.133 36.3472 86.7526 36.7608C86.7137 36.8032 86.6762 36.8465 86.6389 36.8903C86.4919 37.0583 86.3335 37.2106 86.1588 37.3494C86.1203 37.3802 86.0825 37.4119 86.0454 37.4443C85.4751 37.9413 84.7719 38.2848 84.0623 38.5315C84.0428 38.5383 84.0234 38.5451 84.0033 38.552C82.3324 39.1215 80.4222 38.9508 78.8469 38.1839C78.4351 37.979 78.0537 37.727 77.6959 37.4382C77.6848 37.4294 77.6737 37.4205 77.6623 37.4113C77.3443 37.1539 77.0393 36.861 76.7924 36.5342C76.7714 36.5078 76.7505 36.4813 76.7295 36.455C76.4697 36.1256 76.2512 35.7705 76.057 35.3989C76.049 35.3838 76.0411 35.3686 76.0329 35.353C75.7118 34.7299 75.5145 34.0328 75.4266 33.3385C75.4248 33.3244 75.423 33.3103 75.4211 33.2957C75.3828 32.9872 75.377 32.6807 75.378 32.3701C75.3781 32.3455 75.3781 32.3209 75.3781 32.2956C75.3791 31.9385 75.3873 31.5888 75.4476 31.2361C75.4512 31.2138 75.4548 31.1916 75.4586 31.1686C75.654 29.9803 76.1814 28.8357 77.0087 27.9545C77.0523 27.9075 77.0943 27.86 77.136 27.8114C77.2101 27.7264 77.289 27.6482 77.3715 27.5713C77.3934 27.5509 77.3934 27.5509 77.4157 27.5301C77.552 27.4044 77.6943 27.2891 77.8429 27.1785C77.8542 27.1699 77.8655 27.1614 77.8772 27.1527C78.9217 26.3681 80.2443 25.8762 81.5568 25.8707ZM78.6738 29.035C78.5788 29.1394 78.4932 29.2508 78.4103 29.365C78.4015 29.377 78.3927 29.3891 78.3836 29.4015C78.1279 29.7574 77.9422 30.1496 77.8009 30.5633C77.7951 30.5801 77.7893 30.5968 77.7833 30.6141C77.3427 31.9031 77.4306 33.4744 78.0184 34.7013C78.5124 35.7013 79.3296 36.4622 80.3919 36.8246C80.6303 36.9023 80.874 36.9538 81.1207 36.9967C81.1363 36.9995 81.1519 37.0023 81.1679 37.0052C82.255 37.1904 83.4755 36.9372 84.3775 36.3043C85.3612 35.5933 85.9381 34.5112 86.1344 33.3271C86.3483 31.9647 86.1337 30.4919 85.3138 29.3588C85.1879 29.1889 85.0495 29.0334 84.9028 28.8814C84.8839 28.8609 84.8839 28.8609 84.8646 28.8399C84.1703 28.1035 83.067 27.7398 82.0796 27.7059C82.0544 27.7053 82.0292 27.7047 82.0032 27.7041C81.9821 27.7032 81.961 27.7024 81.9393 27.7015C80.7065 27.6738 79.5206 28.1355 78.6738 29.035Z" fill="#FF4E4E"/>
<path d="M127.786 26.0222C132.847 26.0222 132.847 26.0222 133.344 26.1116C133.37 26.1161 133.396 26.1207 133.423 26.1253C133.65 26.1667 133.871 26.2214 134.09 26.2955C134.107 26.3016 134.125 26.3076 134.144 26.3138C134.691 26.5017 135.176 26.789 135.602 27.1785C135.613 27.1882 135.624 27.1978 135.634 27.2077C136.248 27.7747 136.63 28.6378 136.676 29.4712C136.678 29.5162 136.679 29.5612 136.679 29.6062C136.679 29.6228 136.679 29.6394 136.68 29.6565C136.683 30.0287 136.68 30.389 136.59 30.7526C136.583 30.7796 136.583 30.7796 136.577 30.8071C136.341 31.7366 135.776 32.5343 134.952 33.0268C134.584 33.2404 134.185 33.3814 133.774 33.4858C133.892 33.6926 134.011 33.8978 134.133 34.1021C134.151 34.1318 134.168 34.1615 134.186 34.1912C134.302 34.3872 134.42 34.583 134.537 34.7785C134.653 34.9714 134.768 35.1649 134.882 35.3584C135.005 35.565 135.128 35.7712 135.252 35.977C135.324 36.0972 135.396 36.2176 135.467 36.3383C135.475 36.3522 135.483 36.3661 135.492 36.3805C135.509 36.409 135.526 36.4376 135.543 36.4661C135.551 36.4804 135.56 36.4946 135.568 36.5093C135.577 36.5236 135.585 36.5378 135.594 36.5525C135.719 36.7639 135.846 36.9743 135.974 37.1842C136.094 37.3818 136.212 37.581 136.328 37.781C136.413 37.926 136.498 38.0704 136.585 38.2136C136.594 38.2271 136.602 38.2406 136.61 38.2546C136.65 38.3195 136.69 38.3844 136.73 38.4492C136.744 38.4722 136.758 38.4953 136.772 38.5191C136.785 38.5393 136.797 38.5596 136.81 38.5804C136.842 38.6367 136.842 38.6367 136.884 38.7418C136.052 38.7418 135.22 38.7418 134.363 38.7418C134.266 38.5684 134.169 38.3949 134.069 38.2162C133.96 38.0292 133.96 38.0292 133.851 37.8425C133.769 37.7022 133.688 37.5611 133.608 37.4199C133.499 37.2295 133.39 37.0394 133.281 36.8497C133.171 36.6599 133.062 36.4698 132.954 36.2794C132.85 36.0975 132.746 35.9161 132.64 35.7354C132.534 35.5547 132.43 35.3733 132.326 35.1914C132.216 34.9993 132.107 34.8074 131.996 34.6158C131.985 34.5963 131.974 34.5767 131.962 34.5566C131.945 34.5265 131.945 34.5265 131.927 34.4959C131.909 34.462 131.909 34.462 131.89 34.4274C131.854 34.3645 131.812 34.3093 131.767 34.2523C131.471 33.852 131.512 33.4268 131.527 32.9509C131.53 32.8427 131.531 32.7344 131.533 32.6261C131.536 32.415 131.541 32.2041 131.547 31.9931C131.567 31.9925 131.588 31.992 131.608 31.9914C131.685 31.9893 131.761 31.9871 131.838 31.985C131.87 31.984 131.903 31.9831 131.936 31.9822C132.666 31.9622 133.39 31.9077 133.949 31.3803C134.354 30.9518 134.523 30.3773 134.517 29.7952C134.498 29.2132 134.324 28.6767 133.897 28.2679C132.898 27.4187 130.813 27.7538 129.887 27.7462C129.887 31.3748 129.887 35.0033 129.887 38.7418C129.194 38.7418 128.501 38.7418 127.786 38.7418C127.786 34.5444 127.786 30.3469 127.786 26.0222Z" fill="#FF4E4E"/>
<path d="M152.726 26.0197C152.744 26.0197 152.762 26.0197 152.78 26.0197C152.801 26.0197 152.821 26.0197 152.842 26.0196C152.865 26.0197 152.888 26.0198 152.911 26.0199C152.947 26.0199 152.947 26.0199 152.983 26.0199C153.062 26.0199 153.141 26.02 153.22 26.0202C153.275 26.0202 153.329 26.0203 153.384 26.0203C153.513 26.0204 153.643 26.0205 153.772 26.0207C153.919 26.021 154.066 26.0211 154.214 26.0212C154.517 26.0214 154.819 26.0218 155.122 26.0223C155.267 26.4166 155.411 26.8116 155.552 27.2075C155.57 27.2582 155.588 27.309 155.606 27.3597C155.643 27.4645 155.681 27.5693 155.718 27.6741C155.807 27.9237 155.896 28.1734 155.985 28.423C155.994 28.4473 156.002 28.4716 156.011 28.4967C156.147 28.8759 156.282 29.2549 156.418 29.6338C156.556 30.0174 156.693 30.4011 156.83 30.7849C156.957 31.1422 157.085 31.4994 157.213 31.8565C157.349 32.237 157.485 32.6176 157.621 32.9983C157.63 33.0227 157.639 33.0471 157.648 33.0722C157.718 33.2699 157.789 33.4675 157.859 33.6652C157.921 33.838 157.983 34.0108 158.044 34.1836C158.053 34.208 158.062 34.2323 158.071 34.2575C158.206 34.6366 158.342 35.0155 158.477 35.3945C158.606 35.7533 158.734 36.1122 158.862 36.4713C159.003 36.8669 159.145 37.2624 159.286 37.6578C159.295 37.6802 159.303 37.7027 159.311 37.7258C159.326 37.7694 159.342 37.813 159.358 37.8567C159.373 37.8988 159.388 37.9409 159.403 37.983C159.443 38.096 159.484 38.2089 159.525 38.3217C159.534 38.346 159.543 38.3702 159.552 38.3952C159.569 38.442 159.586 38.4888 159.603 38.5355C159.611 38.5564 159.618 38.5774 159.626 38.5989C159.633 38.6174 159.639 38.6359 159.646 38.655C159.661 38.6998 159.661 38.6998 159.661 38.7419C158.926 38.7419 158.191 38.7419 157.434 38.7419C157.336 38.4574 157.239 38.173 157.139 37.8799C157.088 37.7304 157.036 37.581 156.983 37.4318C156.972 37.3988 156.96 37.3658 156.948 37.3327C156.943 37.3163 156.937 37.2999 156.931 37.2829C156.92 37.2506 156.908 37.2183 156.897 37.186C156.866 37.0983 156.835 37.0107 156.804 36.9232C156.797 36.904 156.79 36.8848 156.783 36.865C156.77 36.8278 156.757 36.7906 156.743 36.7535C156.738 36.7368 156.732 36.72 156.725 36.7028C156.72 36.688 156.715 36.6732 156.709 36.658C156.698 36.6184 156.698 36.6184 156.698 36.5554C155.367 36.5554 154.036 36.5554 152.664 36.5554C152.678 36.4401 152.695 36.3336 152.724 36.2221C152.728 36.2065 152.731 36.191 152.735 36.175C152.748 36.1242 152.761 36.0734 152.774 36.0227C152.782 35.9872 152.791 35.9517 152.8 35.9163C152.819 35.8422 152.837 35.7682 152.856 35.6941C152.88 35.5991 152.904 35.5041 152.927 35.4091C152.946 35.3359 152.964 35.2628 152.982 35.1897C152.991 35.1547 153 35.1196 153.009 35.0846C153.021 35.0357 153.033 34.9869 153.045 34.9381C153.049 34.9236 153.053 34.9091 153.056 34.8941C153.082 34.7941 153.082 34.7941 153.105 34.7473C154.076 34.7473 155.047 34.7473 156.047 34.7473C155.929 34.4143 155.811 34.0812 155.69 33.7381C155.57 33.3946 155.57 33.3946 155.512 33.2256C155.381 32.8421 155.248 32.4592 155.112 32.0772C154.984 31.717 154.858 31.356 154.734 30.9945C154.571 30.5232 154.406 30.053 154.239 29.5834C154.165 29.3741 154.091 29.1647 154.018 28.9551C154.012 28.9382 154.006 28.9213 154 28.9039C153.968 28.8123 153.936 28.7208 153.904 28.6293C153.804 28.8887 153.712 29.1503 153.62 29.4125C153.473 29.8332 153.324 30.2532 153.173 30.6725C153.054 31.0048 152.936 31.3375 152.82 31.6712C152.67 32.1041 152.515 32.5352 152.359 32.9661C152.268 33.2185 152.178 33.4711 152.087 33.7237C152.071 33.7703 152.054 33.817 152.037 33.8636C152.004 33.9572 151.97 34.0509 151.937 34.1445C151.862 34.3538 151.787 34.563 151.712 34.7723C151.67 34.8884 151.629 35.0044 151.587 35.1205C151.57 35.1669 151.554 35.2133 151.537 35.2598C151.525 35.2942 151.525 35.2942 151.512 35.3294C150.901 37.0356 150.901 37.0356 150.29 38.7419C149.582 38.7419 148.875 38.7419 148.146 38.7419C148.194 38.529 148.194 38.529 148.223 38.4476C148.23 38.429 148.237 38.4105 148.243 38.3914C148.254 38.3619 148.254 38.3619 148.265 38.3318C148.277 38.3 148.277 38.3 148.288 38.2674C148.314 38.1973 148.339 38.1273 148.364 38.0573C148.382 38.0075 148.4 37.9578 148.418 37.908C148.451 37.8171 148.484 37.7261 148.517 37.6352C148.602 37.398 148.687 37.1605 148.772 36.9229C148.816 36.7997 148.86 36.6766 148.904 36.5534C148.912 36.529 148.921 36.5047 148.93 36.4796C149.03 36.198 149.131 35.9164 149.232 35.6349C149.361 35.2761 149.489 34.9171 149.617 34.5581C149.754 34.176 149.89 33.7941 150.027 33.4123C150.163 33.0317 150.3 32.6511 150.435 32.2704C150.444 32.246 150.453 32.2216 150.462 32.1965C150.523 32.0236 150.585 31.8507 150.647 31.6778C150.717 31.4802 150.788 31.2827 150.858 31.0851C150.867 31.0608 150.876 31.0364 150.885 31.0113C151.02 30.6322 151.156 30.2532 151.291 29.8743C151.42 29.5154 151.548 29.1565 151.676 28.7975C151.854 28.2992 152.032 27.801 152.211 27.303C152.263 27.1579 152.315 27.0129 152.367 26.8678C152.402 26.769 152.438 26.6703 152.473 26.5716C152.49 26.5245 152.507 26.4774 152.524 26.4303C152.547 26.3656 152.57 26.3008 152.593 26.2361C152.6 26.2168 152.607 26.1974 152.614 26.1775C152.624 26.1513 152.624 26.1513 152.633 26.1245C152.639 26.1092 152.644 26.094 152.65 26.0782C152.669 26.0302 152.673 26.023 152.726 26.0197Z" fill="#FF4E4E"/>
<path d="M67.7663 25.8671C67.7906 25.8672 67.8148 25.8673 67.8398 25.8674C68.194 25.8689 68.5419 25.8778 68.8917 25.9381C68.9255 25.9436 68.9255 25.9436 68.9599 25.9493C70.0392 26.1312 71.063 26.5497 71.9174 27.2416C71.9287 27.2507 71.94 27.2598 71.9517 27.2693C72.254 27.5153 72.5443 27.7917 72.7789 28.1036C72.7892 28.1169 72.7996 28.1302 72.8103 28.1439C73.0824 28.4935 73.3045 28.869 73.4972 29.2678C73.5112 29.2968 73.5112 29.2968 73.5256 29.3264C73.5679 29.4165 73.603 29.5045 73.6313 29.6C73.6369 29.619 73.6426 29.638 73.6484 29.6575C73.6527 29.672 73.6569 29.6865 73.6613 29.7014C73.3366 29.7107 73.0119 29.7178 72.6871 29.7221C72.5362 29.7241 72.3854 29.7269 72.2346 29.7315C72.1031 29.7355 71.9716 29.7381 71.84 29.739C71.7704 29.7395 71.7009 29.7409 71.6313 29.7436C71.2078 29.7595 71.2078 29.7595 71.0949 29.6628C71.0189 29.568 70.9727 29.4642 70.9297 29.3514C70.8977 29.2756 70.8525 29.2114 70.8038 29.1456C70.7947 29.1332 70.7857 29.1208 70.7763 29.1081C70.6829 28.9817 70.5764 28.8683 70.4676 28.7553C70.4515 28.7376 70.4354 28.72 70.4188 28.7018C69.7633 28.0036 68.7577 27.7591 67.8361 27.7224C67.1222 27.7093 66.4028 27.8524 65.761 28.1666C65.7457 28.1741 65.7304 28.1815 65.7146 28.1892C65.0256 28.529 64.4552 29.0772 64.0804 29.7475C64.0596 29.7846 64.0382 29.8214 64.0168 29.8583C63.3388 31.0495 63.293 32.6262 63.6389 33.9272C63.8213 34.584 64.1442 35.1891 64.6064 35.6903C64.6396 35.7268 64.6707 35.7636 64.7013 35.8023C65.2964 36.4895 66.2707 36.863 67.1478 36.9758C67.1695 36.9787 67.1695 36.9787 67.1917 36.9818C67.3742 37.0036 67.5579 37.0019 67.7414 37.002C67.768 37.0021 67.768 37.0021 67.7952 37.0021C68.0741 37.0017 68.3446 36.9897 68.6186 36.9337C68.6372 36.93 68.6557 36.9263 68.6749 36.9224C68.9239 36.8712 69.1623 36.8028 69.396 36.7024C69.4106 36.6962 69.4252 36.6899 69.4403 36.6835C70.0951 36.3986 70.593 35.943 70.963 35.3363C70.9708 35.3238 70.9787 35.3112 70.9868 35.2984C71.0151 35.2515 71.0151 35.2515 71.0378 35.1984C71.1083 35.0532 71.1083 35.0532 71.1917 35.0225C71.2572 35.0156 71.3198 35.0155 71.3857 35.0177C71.4226 35.0176 71.4226 35.0176 71.4603 35.0176C71.5415 35.0177 71.6226 35.0194 71.7038 35.021C71.7602 35.0214 71.8165 35.0217 71.8729 35.0219C72.0059 35.0226 72.139 35.0243 72.272 35.0264C72.4235 35.0287 72.5751 35.0299 72.7266 35.031C73.0382 35.0331 73.3498 35.0368 73.6613 35.0415C73.6513 35.0719 73.6412 35.1024 73.6311 35.1328C73.6227 35.1582 73.6227 35.1582 73.6142 35.1841C73.4055 35.7983 73.014 36.3877 72.5753 36.8602C72.5323 36.9067 72.4905 36.954 72.4492 37.002C72.1612 37.3326 71.8037 37.6047 71.4341 37.8377C71.4216 37.8457 71.409 37.8536 71.3961 37.8618C70.5215 38.4098 69.5569 38.7108 68.5345 38.8259C68.5159 38.8281 68.4972 38.8303 68.478 38.8325C67.8883 38.8924 67.249 38.8812 66.6645 38.7838C66.6393 38.7797 66.6141 38.7755 66.5881 38.7712C65.4778 38.5805 64.4208 38.1229 63.5548 37.3962C63.5392 37.3834 63.5392 37.3834 63.5233 37.3704C63.2265 37.1265 62.9502 36.859 62.7144 36.5553C62.6952 36.5321 62.676 36.509 62.6567 36.4859C61.8526 35.5171 61.39 34.2716 61.2856 33.0232C61.2833 32.9987 61.2809 32.9743 61.2785 32.9491C61.14 31.2241 61.6084 29.4767 62.7314 28.1443C62.7675 28.1024 62.8039 28.0609 62.8404 28.0195C62.8554 28.0022 62.8703 27.9849 62.8857 27.9671C63.0965 27.7271 63.3225 27.4997 63.5758 27.3046C63.6029 27.2833 63.6299 27.2619 63.6569 27.2406C64.4539 26.6154 65.3948 26.1823 66.3887 25.9854C66.4083 25.9815 66.4278 25.9775 66.4479 25.9735C66.885 25.8922 67.3224 25.8639 67.7663 25.8671Z" fill="#FF4E4E"/>
<path d="M110.271 25.8707C110.293 25.8705 110.315 25.8704 110.338 25.8703C110.385 25.8701 110.432 25.87 110.478 25.8699C110.548 25.8697 110.618 25.869 110.688 25.8684C111.464 25.8645 112.291 25.9953 112.977 26.3789C113.018 26.402 113.06 26.4242 113.102 26.4464C113.281 26.543 113.445 26.6503 113.604 26.779C113.615 26.7881 113.627 26.7973 113.638 26.8067C114.36 27.3964 114.774 28.1906 114.901 29.1104C114.908 29.188 114.907 29.2661 114.907 29.3439C114.144 29.3439 113.381 29.3439 112.595 29.3439C112.575 29.2537 112.554 29.1635 112.532 29.0706C112.393 28.5995 112.09 28.2153 111.658 27.9767C111.035 27.6444 110.272 27.583 109.593 27.7678C109.31 27.8542 109.055 27.9893 108.834 28.1876C108.821 28.1987 108.808 28.2098 108.795 28.2213C108.486 28.5021 108.373 28.9352 108.354 29.3373C108.339 29.7367 108.453 30.0714 108.711 30.3754C109.293 30.9978 110.244 31.1895 111.034 31.4095C113.948 32.2229 113.948 32.2229 114.676 33.4436C114.875 33.8018 114.98 34.1742 115.033 34.5789C115.035 34.5944 115.037 34.61 115.039 34.6259C115.147 35.565 114.922 36.5322 114.333 37.2813C114.248 37.3864 114.159 37.4872 114.066 37.5854C114.049 37.6035 114.033 37.6215 114.016 37.6402C113.395 38.2894 112.523 38.6588 111.65 38.8048C111.62 38.81 111.62 38.81 111.589 38.8152C110.241 39.0345 108.694 38.8009 107.571 37.9948C107.463 37.9151 107.363 37.8298 107.266 37.7373C107.222 37.6955 107.177 37.6569 107.13 37.6182C107.026 37.5277 106.944 37.4205 106.859 37.3121C106.836 37.2828 106.836 37.2828 106.812 37.2529C106.473 36.8188 106.27 36.3034 106.19 35.7602C106.187 35.7437 106.184 35.7272 106.182 35.7102C106.16 35.5408 106.166 35.3845 106.166 35.2097C106.908 35.2097 107.65 35.2097 108.414 35.2097C108.442 35.3484 108.47 35.4872 108.498 35.6301C108.589 35.9222 108.713 36.1793 108.918 36.408C108.935 36.4271 108.953 36.4461 108.97 36.4658C109.39 36.9096 109.978 37.0652 110.573 37.0847C111.213 37.0974 111.907 36.9712 112.391 36.521C112.743 36.1753 112.912 35.7468 112.917 35.2556C112.916 34.8056 112.778 34.4515 112.465 34.1243C112.344 34.0069 112.214 33.9099 112.07 33.8221C112.058 33.8144 112.045 33.8068 112.033 33.7989C111.438 33.4403 110.707 33.2976 110.043 33.1157C108.067 32.5733 108.067 32.5733 107.469 32.1191C107.451 32.106 107.434 32.093 107.416 32.0795C106.727 31.5453 106.327 30.8687 106.216 30.0006C106.199 29.837 106.201 29.6725 106.201 29.5082C106.201 29.4901 106.201 29.472 106.201 29.4533C106.203 29.1884 106.208 28.9299 106.271 28.6711C106.275 28.6535 106.279 28.6358 106.284 28.6176C106.492 27.7616 107.027 27.0145 107.781 26.5534C108.529 26.1087 109.4 25.8744 110.271 25.8707Z" fill="#FF4E4E"/>
<path d="M139.321 26.0222C141.603 26.0222 143.884 26.0222 146.234 26.0222C146.234 26.5842 146.234 27.1462 146.234 27.7252C144.542 27.7252 142.85 27.7252 141.107 27.7252C141.107 30.7917 141.107 33.8583 141.107 37.0178C142.799 37.0178 144.491 37.0178 146.234 37.0178C146.234 37.5868 146.234 38.1557 146.234 38.7418C143.953 38.7418 141.672 38.7418 139.321 38.7418C139.321 34.5444 139.321 30.3469 139.321 26.0222Z" fill="#FF4E4E"/>
<path d="M116.84 26.0222C119.766 26.0222 122.692 26.0222 125.707 26.0222C125.707 26.5911 125.707 27.16 125.707 27.7462C124.597 27.7462 123.488 27.7462 122.345 27.7462C122.345 31.3748 122.345 35.0033 122.345 38.7418C121.651 38.7418 120.958 38.7418 120.244 38.7418C120.244 35.1133 120.244 31.4847 120.244 27.7462C119.12 27.7462 117.997 27.7462 116.84 27.7462C116.84 27.1773 116.84 26.6084 116.84 26.0222Z" fill="#FF4E4E"/>
<path d="M142.117 31.4254C143.476 31.4254 144.835 31.4254 146.235 31.4254C146.235 31.9943 146.235 32.5632 146.235 33.1494C144.876 33.1494 143.517 33.1494 142.117 33.1494C142.117 32.5805 142.117 32.0116 142.117 31.4254Z" fill="#FF4E4E"/>
<path fill-rule="evenodd" clip-rule="evenodd" d="M386.389 22C386.021 22 385.667 22.158 385.407 22.4393C385.146 22.7206 385 23.1022 385 23.5C385 23.8978 385.146 24.2794 385.407 24.5607C385.667 24.842 386.021 25 386.389 25H408.611C408.979 25 409.333 24.842 409.593 24.5607C409.854 24.2794 410 23.8978 410 23.5C410 23.1022 409.854 22.7206 409.593 22.4393C409.333 22.158 408.979 22 408.611 22H386.389ZM385 32.5C385 32.1022 385.146 31.7206 385.407 31.4393C385.667 31.158 386.021 31 386.389 31H408.611C408.979 31 409.333 31.158 409.593 31.4393C409.854 31.7206 410 32.1022 410 32.5C410 32.8978 409.854 33.2794 409.593 33.5607C409.333 33.842 408.979 34 408.611 34H386.389C386.021 34 385.667 33.842 385.407 33.5607C385.146 33.2794 385 32.8978 385 32.5ZM385 41.5C385 41.1022 385.146 40.7206 385.407 40.4393C385.667 40.158 386.021 40 386.389 40H408.611C408.979 40 409.333 40.158 409.593 40.4393C409.854 40.7206 410 41.1022 410 41.5C410 41.8978 409.854 42.2794 409.593 42.5607C409.333 42.842 408.979 43 408.611 43H386.389C386.021 43 385.667 42.842 385.407 42.5607C385.146 42.2794 385 41.8978 385 41.5Z" fill="#121212"/>
</svg>
