<svg width="73" height="73" viewBox="0 0 73 73" fill="none" xmlns="http://www.w3.org/2000/svg">
<g clip-path="url(#clip0_532_628)">
<path d="M35.6568 27.6892C31.0407 27.6892 27.2852 31.4447 27.2852 36.0608C27.2852 40.6769 31.0407 44.4324 35.6568 44.4324C37.818 44.4324 39.7904 43.6092 41.2772 42.2598C41.4953 42.0265 41.7188 41.7984 41.9474 41.5755C43.2413 40.1013 44.0284 38.1718 44.0284 36.0608C44.0284 31.4447 40.2729 27.6892 35.6568 27.6892Z" fill="#454545"/>
<path d="M23.0671 36.0607C23.0671 29.1183 28.7151 23.4704 35.6575 23.4704C42.5999 23.4704 48.2478 29.1183 48.2478 36.0607C48.2478 36.5156 48.2229 36.9648 48.1757 37.4073C49.6628 36.7682 51.2402 36.301 52.8828 36.0292C52.8656 26.5453 45.1453 18.835 35.6575 18.835C26.1591 18.835 18.4316 26.5623 18.4316 36.0607C18.4316 45.5591 26.1591 53.2865 35.6575 53.2865C35.7616 53.2865 35.8644 53.2819 35.968 53.2801C36.2072 51.6324 36.6433 50.0478 37.2515 48.5507C36.7293 48.6169 36.1974 48.6513 35.6575 48.6513C28.7151 48.6511 23.0671 43.0031 23.0671 36.0607Z" fill="#454545"/>
<path d="M56.2369 72.5C65.2049 72.5 72.5009 65.204 72.5009 56.236C72.5009 47.268 65.2049 39.9719 56.2369 39.9719C51.8926 39.9719 47.9406 41.684 45.0203 44.469C44.7775 44.739 44.5233 44.9983 44.2585 45.2463C41.5988 48.1429 39.9727 52.003 39.9727 56.236C39.9727 65.204 47.2687 72.5 56.2369 72.5ZM54.1375 45.1265H58.3563V54.1267H63.55V58.3454H54.1375V45.1265Z" fill="#FF4E4E"/>
<path d="M35.7934 57.5029C35.7477 57.5032 35.7024 57.5053 35.6567 57.5053C23.8321 57.5053 14.2121 47.8853 14.2121 36.0607C14.2121 24.2361 23.8321 14.6162 35.6567 14.6162C47.3849 14.6162 56.9425 24.0804 57.0975 35.7725C62.4538 35.9953 67.2848 38.2843 70.8132 41.862V28.9276L65.4908 28.1065C64.7628 25.2158 63.6232 22.4669 62.0894 19.9019L65.2741 15.5552L55.7579 6.03894L51.4112 9.22367C48.8465 7.68988 46.0974 6.55011 43.2065 5.82223L42.3856 0.5H28.9278L28.1067 5.82237C25.216 6.55039 22.467 7.69002 19.902 9.22381L15.5553 6.03908L6.03908 15.5553L9.22381 19.902C7.69002 22.4669 6.55025 25.216 5.82237 28.1067L0.5 28.9276V42.3854L5.82237 43.2065C6.55039 46.0974 7.69002 48.8463 9.22381 51.4112L6.03908 55.7579L15.5553 65.2741L19.902 62.0894C22.4669 63.6232 25.216 64.763 28.1067 65.4908L28.9278 70.8132H41.8622C38.3747 67.3741 36.112 62.6973 35.7934 57.5029Z" fill="#454545"/>
</g>
<defs>
<clipPath id="clip0_532_628">
<rect width="72" height="72" fill="white" transform="translate(0.5 0.5)"/>
</clipPath>
</defs>
</svg>
