<svg width="137" height="60" viewBox="0 0 137 60" fill="none" xmlns="http://www.w3.org/2000/svg">
<path d="M37.2308 24.1503C37.2608 24.174 37.2908 24.1977 37.3218 24.2222C37.5042 24.3693 37.6787 24.5242 37.8516 24.6824C37.8816 24.7093 37.9116 24.7362 37.9416 24.7631C38.0899 24.8964 38.2333 25.03 38.3615 25.1832C38.422 25.2544 38.486 25.3219 38.55 25.39C39.6128 26.5617 40.3658 28.0698 40.7782 29.5897C40.7859 29.6178 40.7936 29.646 40.8016 29.675C41.4606 32.1227 41.2729 34.8615 40.2756 37.1871C40.2638 37.2149 40.252 37.2428 40.2399 37.2715C39.8071 38.2847 39.1993 39.2489 38.4405 40.0507C38.3764 40.1185 38.3151 40.1883 38.2543 40.2591C38.1489 40.3802 38.0358 40.4906 37.9181 40.5996C37.8973 40.619 37.8765 40.6383 37.8551 40.6582C37.6918 40.8091 37.5248 40.9531 37.349 41.0893C37.3323 41.1024 37.3155 41.1155 37.2983 41.129C35.9889 42.1526 34.4203 42.8013 32.7669 42.9812C32.7295 42.9854 32.7295 42.9854 32.6914 42.9897C32.4006 43.0182 32.1091 43.018 31.8172 43.0182C31.7897 43.0182 31.7622 43.0182 31.7339 43.0182C31.2844 43.0177 30.8458 42.9991 30.4019 42.9221C30.3593 42.9147 30.3593 42.9147 30.3157 42.9072C29.4396 42.7491 28.6177 42.4302 27.8892 41.917C27.855 41.893 27.855 41.893 27.8201 41.8685C27.4921 41.6361 27.1819 41.3887 26.8841 41.1188C26.8669 41.1033 26.8498 41.0879 26.8321 41.0719C26.4677 40.7421 26.136 40.3968 25.8254 40.0158C25.8084 39.9949 25.7913 39.974 25.7738 39.9525C25.7577 39.9327 25.7416 39.9128 25.725 39.8924C25.7106 39.8745 25.6961 39.8567 25.6812 39.8383C25.6465 39.7937 25.6147 39.7469 25.5833 39.6999C25.5687 43.8996 25.5687 43.8996 25.5538 48.1841C24.0417 48.1841 22.5296 48.1841 20.9717 48.1841C20.9717 39.8335 20.9717 31.4828 20.9717 22.8791C22.3765 22.8791 23.7812 22.8791 25.2286 22.8791C25.2384 23.9132 25.2481 24.9473 25.2582 26.0127C25.3752 25.8468 25.4923 25.681 25.6129 25.5101C25.7003 25.3999 25.7879 25.2919 25.879 25.1849C25.9047 25.154 25.9305 25.1231 25.9562 25.0922C26.3288 24.6458 26.7181 24.211 27.1797 23.8546C27.1955 23.8423 27.2113 23.83 27.2277 23.8173C28.3241 22.9681 29.6676 22.4282 31.0523 22.3174C31.084 22.3147 31.084 22.3147 31.1163 22.3119C33.2909 22.1328 35.521 22.7947 37.2308 24.1503ZM27.4834 28.3455C27.4209 28.4028 27.3571 28.4577 27.2924 28.5125C26.9094 28.8472 26.5994 29.3016 26.3523 29.7432C26.3231 29.7954 26.293 29.8471 26.2629 29.8989C25.5227 31.1993 25.3727 32.7957 25.7607 34.2309C26.1011 35.3895 26.7602 36.4357 27.7118 37.1871C27.7389 37.2088 27.766 37.2305 27.7939 37.2528C28.5299 37.8252 29.3951 38.1708 30.3133 38.3104C30.3575 38.3172 30.3575 38.3172 30.4026 38.3241C31.7295 38.4789 33.1164 38.062 34.1649 37.2424C34.3373 37.1042 34.499 36.9552 34.6589 36.8028C34.6834 36.7801 34.708 36.7575 34.7332 36.7342C35.0705 36.4133 35.3465 36.0244 35.5753 35.6203C35.5856 35.6025 35.596 35.5847 35.6066 35.5664C36.3793 34.2305 36.543 32.5868 36.1514 31.1031C35.7356 29.6166 34.7914 28.3832 33.4555 27.6172C31.5265 26.5416 29.0997 26.8548 27.4834 28.3455Z" fill="#3DB349"/>
<path d="M86.9541 17.1441C88.4467 17.1441 89.9393 17.1441 91.4771 17.1441C91.4771 19.9732 91.4771 22.8022 91.4771 25.717C91.4966 25.717 91.5161 25.717 91.5362 25.717C91.543 25.7015 91.5497 25.6859 91.5566 25.6699C91.6085 25.5745 91.6741 25.4915 91.7413 25.4066C91.7556 25.3885 91.7699 25.3703 91.7847 25.3516C91.9073 25.1979 92.0376 25.0528 92.1719 24.9094C92.2344 24.8423 92.295 24.7742 92.3547 24.7045C92.5299 24.5031 92.7227 24.3234 92.9256 24.1503C92.9522 24.1269 92.9788 24.1036 93.0062 24.0796C94.5636 22.724 96.3805 22.1998 98.4315 22.3396C100.59 22.5066 102.829 23.5044 104.272 25.1609C104.287 25.179 104.302 25.1972 104.317 25.2159C104.377 25.2863 104.44 25.3525 104.503 25.4196C105.974 27.0397 106.808 29.2393 107.027 31.3929C107.029 31.4177 107.032 31.4424 107.035 31.4678C107.06 31.714 107.068 31.9606 107.075 32.2077C107.075 32.2305 107.076 32.2532 107.077 32.2766C107.154 35.1367 106.247 37.9267 104.307 40.0546C104.262 40.1051 104.217 40.1556 104.172 40.2061C103.983 40.4163 103.784 40.6105 103.568 40.7936C103.531 40.8259 103.531 40.8259 103.493 40.8588C102.154 42.002 100.499 42.7259 98.7493 42.9221C98.7271 42.9249 98.7049 42.9277 98.682 42.9305C98.3837 42.9636 98.0827 42.9589 97.783 42.9591C97.7384 42.9591 97.7384 42.9591 97.6928 42.9591C97.2504 42.9586 96.8201 42.9469 96.3844 42.863C96.3584 42.8582 96.3324 42.8535 96.3056 42.8486C95.1615 42.6335 94.0675 42.1476 93.1621 41.4144C93.1366 41.394 93.1366 41.394 93.1105 41.3731C92.683 41.0277 92.2882 40.6357 91.9501 40.2024C91.9034 40.1475 91.8565 40.0927 91.8097 40.038C91.5968 39.7834 91.3871 39.5137 91.2183 39.2277C91.1862 39.1636 91.1862 39.1636 91.1223 39.1382C91.1223 40.2113 91.1223 41.2844 91.1223 42.39C89.7468 42.39 88.3713 42.39 86.9541 42.39C86.9541 34.0588 86.9541 25.7277 86.9541 17.1441ZM93.369 28.3185C93.3309 28.3499 93.2927 28.3814 93.2545 28.4127C93.1633 28.4911 93.0859 28.5786 93.0083 28.6702C92.9738 28.7106 92.9384 28.7502 92.9021 28.7889C91.8768 29.8862 91.4371 31.4279 91.474 32.9017C91.5249 34.3384 92.1384 35.7142 93.1326 36.7437C93.1679 36.7813 93.1679 36.7813 93.204 36.8198C94.1389 37.7913 95.4674 38.3226 96.8012 38.375C98.2601 38.3998 99.5825 37.8196 100.641 36.8323C101.679 35.824 102.307 34.3527 102.336 32.9082C102.337 32.8182 102.338 32.7282 102.337 32.6382C102.337 32.6145 102.337 32.5908 102.337 32.5664C102.332 30.9959 101.716 29.5686 100.63 28.446C100.449 28.2689 100.254 28.1133 100.05 27.9638C100.033 27.9515 100.017 27.9392 99.9993 27.9265C97.9413 26.4372 95.2444 26.6733 93.369 28.3185Z" fill="#767272"/>
<path d="M74.7449 22.3377C74.7763 22.3378 74.8076 22.3378 74.8399 22.3379C75.3653 22.3392 75.8796 22.3634 76.4004 22.4357C76.4312 22.4398 76.462 22.4439 76.4937 22.4481C77.4927 22.5854 78.4812 22.8764 79.3861 23.3225C79.4262 23.3421 79.4262 23.3421 79.4671 23.362C80.0063 23.6267 80.5258 23.9346 80.9825 24.3276C81.0158 24.3556 81.0491 24.3835 81.0825 24.4114C81.3964 24.6753 81.6737 24.9512 81.9285 25.2736C81.9519 25.3021 81.9753 25.3306 81.9995 25.36C83.0483 26.6656 83.1504 28.1437 83.1474 29.7494C83.1471 29.9194 83.1472 30.0894 83.1472 30.2595C83.1473 30.5533 83.1471 30.8471 83.1467 31.1409C83.1463 31.5657 83.1461 31.9905 83.146 32.4153C83.1459 33.1046 83.1455 33.794 83.145 34.4834C83.1444 35.1526 83.144 35.8219 83.1437 36.4911C83.1437 36.5118 83.1437 36.5325 83.1437 36.5538C83.1436 36.7614 83.1436 36.9689 83.1435 37.1765C83.1433 37.5993 83.1432 38.0221 83.143 38.4449C83.143 38.4837 83.143 38.5226 83.1429 38.5625C83.1424 39.8384 83.1414 41.1142 83.1405 42.39C81.7552 42.39 80.3699 42.39 78.9427 42.39C78.9427 41.4632 78.9427 40.5365 78.9427 39.5816C78.8449 39.603 78.8449 39.603 78.804 39.703C78.7854 39.7431 78.767 39.7833 78.7487 39.8236C78.5282 40.2844 78.2082 40.6419 77.8489 41.0006C77.8273 41.0232 77.8056 41.0459 77.7833 41.0693C76.6459 42.2476 74.8394 42.9326 73.2247 42.9845C71.0955 43.0189 68.852 42.5831 67.2426 41.0895C67.1968 41.0481 67.1494 41.0084 67.1009 40.9702C67.0364 40.9177 66.9848 40.8662 66.9313 40.8029C66.8781 40.7404 66.8251 40.6784 66.7689 40.6186C65.7055 39.4801 65.2517 37.8039 65.2795 36.2745C65.2812 36.2338 65.2831 36.1931 65.2851 36.1524C65.2864 36.1244 65.2878 36.0963 65.2892 36.0674C65.3637 34.6717 65.7276 33.2703 66.7032 32.2261C66.7572 32.168 66.8072 32.1082 66.8574 32.047C67.8617 30.9025 69.5107 30.3805 70.9604 30.1276C71.0019 30.1204 71.0435 30.113 71.085 30.1054C72.0498 29.9316 73.0336 29.9315 74.0102 29.9354C74.1771 29.936 74.344 29.936 74.511 29.9361C74.8251 29.9364 75.1393 29.9371 75.4534 29.938C75.8119 29.939 76.1704 29.9395 76.5289 29.9399C77.2645 29.9409 78.0001 29.9424 78.7358 29.9444C78.7345 29.7314 78.7324 29.5185 78.7296 29.3055C78.7288 29.2332 78.7282 29.1608 78.7277 29.0885C78.7271 28.984 78.7257 28.8796 78.7242 28.7752C78.7242 28.7273 78.7242 28.7273 78.7241 28.6784C78.716 28.2525 78.5314 27.9068 78.2406 27.6016C78.0928 27.461 77.9382 27.3532 77.7602 27.2543C77.7435 27.2449 77.7269 27.2355 77.7097 27.2259C76.2744 26.4307 74.403 26.391 72.8499 26.8157C72.1542 27.0167 71.3686 27.3434 70.9988 28.0049C70.8932 28.2199 70.8431 28.4038 70.8132 28.6437C69.3596 28.6437 67.906 28.6437 66.4084 28.6437C66.4891 26.9484 67.1457 25.5907 68.3891 24.4459C68.5217 24.3303 68.6613 24.2249 68.8029 24.1207C68.8356 24.096 68.8683 24.0713 68.901 24.0466C70.0527 23.1876 71.485 22.693 72.8917 22.4708C72.946 22.4621 72.946 22.4621 73.0014 22.4533C73.5809 22.3669 74.1595 22.3357 74.7449 22.3377ZM70.4584 34.7334C70.0366 35.2258 70.0056 35.8592 70.0445 36.4776C70.097 36.9488 70.3247 37.3938 70.6653 37.7192C70.6958 37.7499 70.6958 37.7499 70.7268 37.7813C71.3123 38.343 72.1931 38.5205 72.9712 38.6061C72.9959 38.6089 73.0205 38.6117 73.046 38.6146C73.3533 38.6452 73.6622 38.6428 73.9707 38.643C74.0153 38.643 74.0153 38.643 74.0608 38.6431C74.4922 38.6426 74.9121 38.6339 75.3361 38.5469C75.3746 38.5393 75.3746 38.5393 75.4139 38.5316C76.1526 38.3817 76.9176 38.1187 77.5237 37.6601C77.5505 37.6398 77.5772 37.6196 77.6048 37.5988C78.1714 37.1517 78.6355 36.5948 78.7358 35.8568C78.7435 35.7005 78.7427 35.5446 78.7415 35.3882C78.7414 35.3435 78.7413 35.2989 78.7413 35.2543C78.7411 35.1377 78.7405 35.0212 78.7398 34.9046C78.7392 34.7853 78.7389 34.666 78.7386 34.5467C78.738 34.3133 78.737 34.08 78.7358 33.8466C77.9771 33.8445 77.2185 33.8429 76.4599 33.842C76.1076 33.8415 75.7553 33.8409 75.4029 33.8399C75.0955 33.839 74.7881 33.8384 74.4808 33.8382C74.3183 33.8381 74.1558 33.8379 73.9933 33.8372C72.0767 33.8136 72.0767 33.8136 70.4584 34.7334Z" fill="#767272"/>
<path d="M117.718 22.3396C117.763 22.3396 117.763 22.3396 117.808 22.3395C119.635 22.3415 121.43 22.8873 122.872 24.032C122.896 24.0512 122.896 24.0512 122.921 24.0707C123.368 24.4256 123.782 24.8377 124.113 25.3032C124.127 25.3222 124.141 25.3412 124.155 25.3608C124.939 26.4535 125.296 27.6297 125.296 28.9689C123.852 28.9689 122.408 28.9689 120.92 28.9689C120.901 28.8323 120.881 28.6957 120.861 28.555C120.647 27.8157 120.164 27.1751 119.488 26.8002C119.168 26.6324 118.852 26.4973 118.496 26.4265C118.467 26.42 118.438 26.4134 118.408 26.4067C117.475 26.227 116.441 26.453 115.65 26.9678C115.211 27.266 114.86 27.6961 114.755 28.2269C114.711 28.542 114.71 28.9063 114.902 29.1754C115.487 29.8891 116.858 30.0553 117.699 30.2784C117.866 30.3227 118.032 30.3675 118.199 30.4122C118.459 30.4818 118.719 30.5514 118.979 30.6208C121.984 31.423 121.984 31.423 123.078 32.0138C123.098 32.0239 123.117 32.034 123.137 32.0444C124.342 32.6808 125.3 33.7311 125.709 35.0431C126.131 36.4919 125.998 38.176 125.272 39.5003C125.057 39.8593 124.814 40.1939 124.527 40.498C124.495 40.5361 124.463 40.5743 124.431 40.6126C124.174 40.9066 123.868 41.1573 123.551 41.3849C123.535 41.3967 123.519 41.4085 123.502 41.4206C122.115 42.4085 120.38 42.8307 118.703 42.9517C118.663 42.955 118.623 42.9583 118.584 42.9616C116.132 43.1465 113.579 42.5951 111.671 40.9803C111.315 40.6733 111.001 40.3435 110.722 39.9659C110.696 39.9328 110.671 39.8997 110.646 39.8666C110.447 39.5996 110.284 39.3155 110.13 39.0199C110.121 39.0012 110.111 38.9824 110.101 38.963C109.682 38.1482 109.539 37.2683 109.539 36.3594C110.993 36.3594 112.446 36.3594 113.944 36.3594C113.973 36.5057 114.002 36.652 114.032 36.8028C114.303 37.5988 114.997 38.1388 115.727 38.5002C116.945 39.0731 118.391 39.0518 119.649 38.6061C120.207 38.3945 120.762 38.0963 121.039 37.5418C121.199 37.1463 121.266 36.6974 121.1 36.2923C120.897 35.8825 120.478 35.7124 120.069 35.5693C120.019 35.5525 119.97 35.5359 119.92 35.5195C119.893 35.5106 119.866 35.5017 119.839 35.4925C119.563 35.4025 119.284 35.3273 119.003 35.2546C118.949 35.2403 118.894 35.226 118.84 35.2116C118.725 35.1815 118.61 35.1515 118.495 35.1215C118.315 35.0747 118.135 35.0274 117.955 34.9802C117.554 34.875 117.153 34.7701 116.753 34.6654C114.132 33.9805 114.132 33.9805 112.998 33.3736C112.979 33.3636 112.96 33.3537 112.94 33.3434C111.695 32.6851 110.616 31.5785 110.179 30.216C110.142 30.0919 110.109 29.9668 110.079 29.8409C110.073 29.8171 110.067 29.7933 110.061 29.7688C109.964 29.3504 109.942 28.9345 109.944 28.507C109.944 28.4824 109.944 28.4578 109.944 28.4325C109.945 28.044 109.963 27.6654 110.042 27.2838C110.047 27.259 110.052 27.2341 110.057 27.2085C110.362 25.7663 111.276 24.5449 112.495 23.7364C114.046 22.7318 115.889 22.3407 117.718 22.3396Z" fill="#767272"/>
<path d="M57.7764 17.1441C59.269 17.1441 60.7615 17.1441 62.2993 17.1441C62.2993 25.4752 62.2993 33.8064 62.2993 42.39C60.8068 42.39 59.3142 42.39 57.7764 42.39C57.7764 34.0588 57.7764 25.7277 57.7764 17.1441Z" fill="#767272"/>
<path d="M12.6357 22.8791C14.1478 22.8791 15.6599 22.8791 17.2178 22.8791C17.2178 29.3372 17.2178 35.7953 17.2178 42.4491C15.7058 42.4491 14.1937 42.4491 12.6357 42.4491C12.6357 35.991 12.6357 29.5329 12.6357 22.8791Z" fill="#3DB349"/>
<path d="M48.093 12.0483C48.1182 12.0484 48.1433 12.0486 48.1692 12.0487C49.463 12.057 50.6601 12.487 51.598 13.3897C51.6166 13.4065 51.6353 13.4233 51.6546 13.4406C52.3392 14.0749 52.7121 15.1046 52.7509 16.0207C52.7894 17.208 52.3715 18.1116 51.5848 18.9871C51.469 19.1104 51.3422 19.2218 51.2137 19.3316C51.3139 19.4348 51.418 19.5274 51.5296 19.618C52.4435 20.3807 53.1226 21.3405 53.2442 22.5482C53.3383 23.675 53.0373 24.803 52.3075 25.6786C51.3686 26.7586 50.1288 27.3835 48.698 27.5149C47.6552 27.5799 46.6374 27.4721 45.6856 27.0177C45.6504 27.001 45.6504 27.001 45.6145 26.984C45.1136 26.7429 44.6954 26.4266 44.2962 26.0422C44.2772 26.0248 44.2583 26.0074 44.2388 25.9894C43.5893 25.3761 43.1836 24.4567 43.0583 23.5849C43.0529 23.5485 43.0529 23.5485 43.0475 23.5113C43.0146 23.2483 43.025 23.0017 43.025 22.7313C43.9225 22.7313 44.82 22.7313 45.7447 22.7313C45.774 22.9508 45.774 22.9508 45.8038 23.1747C45.9605 23.7084 46.3069 24.1101 46.7869 24.3821C47.4501 24.7319 48.1955 24.8026 48.9107 24.5825C49.4655 24.4013 49.9262 24.077 50.2086 23.559C50.3983 23.1578 50.4637 22.722 50.3379 22.2878C50.1343 21.7306 49.7503 21.3365 49.2182 21.0813C48.5281 20.7925 47.8232 20.8294 47.075 20.8097C47.075 19.9025 47.075 18.9952 47.075 18.0605C47.4945 18.0507 47.914 18.041 48.3462 18.0309C48.8646 17.9013 49.3317 17.7433 49.6469 17.2919C49.8641 16.9135 49.981 16.5685 49.8926 16.1259C49.774 15.7072 49.5314 15.3428 49.1499 15.1227C48.6543 14.8497 48.0654 14.7792 47.5147 14.914C47.0652 15.057 46.6799 15.3158 46.4374 15.7274C46.3132 15.9805 46.2754 16.2123 46.2473 16.4937C45.3595 16.4937 44.4718 16.4937 43.5571 16.4937C43.5571 15.2717 43.9287 14.2158 44.7754 13.3242C44.903 13.1968 45.0392 13.0844 45.183 12.9758C45.206 12.9583 45.2289 12.9408 45.2525 12.9228C46.0866 12.3133 47.0684 12.0382 48.093 12.0483Z" fill="#3DB349"/>
<path d="M16.5965 17.0258C16.6253 17.0519 16.6542 17.0781 16.6839 17.105C17.1943 17.5819 17.4943 18.2302 17.5232 18.9297C17.5415 19.7641 17.3258 20.4906 16.7443 21.1053C16.2847 21.5836 15.6774 21.8339 15.0168 21.8528C14.327 21.8615 13.6909 21.6446 13.1914 21.1589C13.164 21.1315 13.1365 21.104 13.1082 21.0758C13.0841 21.052 13.0599 21.0282 13.0351 21.0037C12.5334 20.4805 12.3253 19.7579 12.3353 19.0452C12.3629 18.4127 12.5478 17.8392 12.9604 17.351C12.9895 17.3154 12.9895 17.3154 13.0192 17.2791C13.4577 16.7645 14.0358 16.4838 14.7045 16.4105C15.4009 16.3729 16.0753 16.5441 16.5965 17.0258Z" fill="#3DB349"/>
</svg>
