<svg width="49" height="57" viewBox="0 0 49 57" fill="none" xmlns="http://www.w3.org/2000/svg">
<path d="M10.3715 49.159C12.5719 46.7976 15.9262 46.9854 17.8582 49.5615L20.5685 53.1841C22.7421 56.0554 26.2573 56.0554 28.4309 53.1841L31.1411 49.5615C33.0732 46.9854 36.4275 46.7976 38.6279 49.159C43.4043 54.2575 47.2953 52.5669 47.2953 45.4291V15.187C47.3221 4.37284 44.7997 1.6626 34.6564 1.6626H14.3698C4.22651 1.6626 1.7041 4.37284 1.7041 15.187V45.4022C1.7041 52.5669 5.62188 54.2307 10.3715 49.159Z" stroke="white" stroke-width="3" stroke-linecap="round" stroke-linejoin="round"/>
<path d="M15.3818 18.5454H34.0809" stroke="white" stroke-width="3" stroke-linecap="round" stroke-linejoin="round"/>
<path d="M16.4629 25.8135H32.5634" stroke="white" stroke-width="3" stroke-linecap="round" stroke-linejoin="round"/>
<path d="M18.2314 32.7271H30.7691" stroke="white" stroke-width="3" stroke-linecap="round" stroke-linejoin="round"/>
</svg>
