<svg width="36" height="41" viewBox="0 0 36 41" fill="none" xmlns="http://www.w3.org/2000/svg">
<path d="M8.15373 35.1793C9.71846 33.5 12.1037 33.6336 13.4776 35.4655L15.4049 38.0416C16.9506 40.0834 19.4503 40.0834 20.9959 38.0416L22.9232 35.4655C24.2971 33.6336 26.6824 33.5 28.2471 35.1793C31.6437 38.8049 34.4106 37.6027 34.4106 32.5269V11.0214C34.4297 3.33134 32.636 1.40405 25.423 1.40405H10.997C3.78395 1.40405 1.99023 3.33134 1.99023 11.0214V32.5078C1.99023 37.6027 4.77621 38.7858 8.15373 35.1793Z" stroke="white" stroke-width="2.13333" stroke-linecap="round" stroke-linejoin="round"/>
<path d="M11.7158 13.4095H25.0129" stroke="white" stroke-width="2.13333" stroke-linecap="round" stroke-linejoin="round"/>
<path d="M12.4854 18.5781H23.9346" stroke="white" stroke-width="2.13333" stroke-linecap="round" stroke-linejoin="round"/>
<path d="M13.7422 23.4944H22.6578" stroke="white" stroke-width="2.13333" stroke-linecap="round" stroke-linejoin="round"/>
</svg>
