<svg width="73" height="73" viewBox="0 0 73 73" fill="none" xmlns="http://www.w3.org/2000/svg">
<g clip-path="url(#clip0_532_651)">
<path d="M36.4978 11.8247C27.4977 11.8247 20.1758 19.1468 20.1758 28.1467C20.1758 37.1466 27.4979 44.4687 36.4978 44.4687C45.4977 44.4687 52.8198 37.1467 52.8198 28.1467C52.8198 19.1466 45.4977 11.8247 36.4978 11.8247ZM34.6707 36.3881L26.076 27.7933L29.0591 24.8102L34.6707 30.4216L43.9364 21.1559L46.9196 24.1391L34.6707 36.3881Z" fill="#FF4E4E"/>
<path d="M46.0307 52.7131C51.4538 52.7131 56.3412 48.7881 57.2985 43.2544C62.6743 40.4042 64.9163 33.6729 62.2043 28.1466C64.8951 22.6644 62.7122 15.9237 57.2955 13.0217C56.3149 7.4961 51.5077 3.58032 46.0456 3.58032C45.522 3.58032 44.9925 3.61632 44.4599 3.69029C42.2593 1.57102 39.3759 0.500141 36.4888 0.5C33.6214 0.499859 30.7502 1.55598 28.5384 3.69015C28.0121 3.61604 27.4868 3.58003 26.9674 3.57989C21.5442 3.57933 16.6568 7.50482 15.6996 13.0385C10.3201 15.8898 8.08599 22.6218 10.7927 28.1489C8.10385 33.6313 10.2867 40.3694 15.7027 43.2713C16.6615 48.771 21.5366 52.7207 27.0154 52.7207C27.5285 52.7207 28.0464 52.6861 28.5673 52.6148C30.7558 54.7329 33.6232 55.7954 36.4962 55.7954C39.3693 55.7954 42.2476 54.7333 44.4599 52.6027C44.9859 52.6771 45.5113 52.7131 46.0307 52.7131ZM15.9581 28.1466C15.9581 16.8203 25.1726 7.60579 36.4989 7.60579C47.8252 7.60579 57.0397 16.8203 57.0397 28.1466C57.0397 39.4729 47.8252 48.6875 36.4989 48.6875C25.1727 48.6875 15.9581 39.4729 15.9581 28.1466Z" fill="#454545"/>
<path d="M27.1529 56.9392C27.1073 56.9396 27.0617 56.9398 27.0162 56.9398C23.3698 56.9398 19.8038 55.6502 16.9748 53.3086C16.5626 52.9675 16.1711 52.606 15.7988 52.228L9.78516 62.6441L20.1781 64.3545L26.8558 72.5L34.1643 59.8415C31.6106 59.4649 29.2102 58.474 27.1529 56.9392Z" fill="#454545"/>
<path d="M56.03 53.3077C53.2088 55.6448 49.6574 56.9319 46.0299 56.9319C45.9749 56.9319 45.9199 56.9317 45.865 56.9311C43.7979 58.4691 41.3909 59.4625 38.834 59.8406L46.1428 72.5L52.8206 64.3546L63.2135 62.6441L57.2013 52.2305C56.8304 52.6074 56.4406 52.9676 56.03 53.3077Z" fill="#454545"/>
</g>
<defs>
<clipPath id="clip0_532_651">
<rect width="72" height="72" fill="white" transform="translate(0.5 0.5)"/>
</clipPath>
</defs>
</svg>
