<svg width="52" height="52" viewBox="0 0 52 52" fill="none" xmlns="http://www.w3.org/2000/svg">
<g clip-path="url(#clip0_532_888)">
<path d="M26.3304 8.4635C19.9303 8.4635 14.7236 13.6703 14.7236 20.0702C14.7236 26.4702 19.9304 31.677 26.3304 31.677C32.7303 31.677 37.9371 26.4703 37.9371 20.0702C37.9371 13.6702 32.7303 8.4635 26.3304 8.4635ZM25.0311 25.9308L18.9193 19.8189L21.0407 17.6976L25.0311 21.688L31.6201 15.099L33.7414 17.2204L25.0311 25.9308Z" fill="#FF4E4E"/>
<path d="M33.1098 37.5397C36.9663 37.5397 40.4417 34.7486 41.1224 30.8135C44.9452 28.7867 46.5396 24 44.611 20.0702C46.5245 16.1717 44.9722 11.3783 41.1203 9.31469C40.423 5.38541 37.0046 2.60085 33.1204 2.60085C32.7481 2.60085 32.3716 2.62645 31.9928 2.67905C30.4279 1.17202 28.3775 0.4105 26.3244 0.4104C24.2854 0.4103 22.2436 1.16132 20.6708 2.67895C20.2966 2.62625 19.923 2.60065 19.5537 2.60055C15.6972 2.60015 12.2217 5.39161 11.541 9.32669C7.71564 11.3542 6.1269 16.1414 8.05164 20.0718C6.1396 23.9704 7.69184 28.762 11.5432 30.8255C12.225 34.7364 15.6918 37.5451 19.5878 37.5451C19.9527 37.5451 20.321 37.5205 20.6914 37.4698C22.2476 38.976 24.2867 39.7315 26.3297 39.7315C28.3728 39.7315 30.4196 38.9763 31.9928 37.4612C32.3669 37.5141 32.7405 37.5397 33.1098 37.5397ZM11.7248 20.0702C11.7248 12.0159 18.2774 5.46341 26.3316 5.46341C34.3859 5.46341 40.9384 12.0159 40.9384 20.0702C40.9384 28.1245 34.3859 34.677 26.3316 34.677C18.2775 34.677 11.7248 28.1245 11.7248 20.0702Z" fill="#454545"/>
<path d="M19.6863 40.5449C19.6539 40.5452 19.6215 40.5453 19.5891 40.5453C16.9961 40.5453 14.4603 39.6283 12.4485 37.9631C12.1554 37.7205 11.877 37.4635 11.6123 37.1947L7.33594 44.6017L14.7265 45.818L19.4751 51.6103L24.6722 42.6087C22.8563 42.3409 21.1493 41.6363 19.6863 40.5449Z" fill="#454545"/>
<path d="M40.2204 37.9624C38.2143 39.6244 35.6888 40.5397 33.1093 40.5397C33.0702 40.5397 33.0311 40.5395 32.992 40.5391C31.5221 41.6328 29.8104 42.3392 27.9922 42.608L33.1896 51.6103L37.9382 45.818L45.3288 44.6017L41.0534 37.1964C40.7897 37.4644 40.5125 37.7206 40.2204 37.9624Z" fill="#454545"/>
</g>
<defs>
<clipPath id="clip0_532_888">
<rect width="51.2" height="51.2" fill="white" transform="translate(0.732422 0.4104)"/>
</clipPath>
</defs>
</svg>
