<svg width="46" height="45" viewBox="0 0 46 45" fill="none" xmlns="http://www.w3.org/2000/svg">
<g clip-path="url(#clip0_532_1387)">
<path d="M22.6212 7.07788C16.9961 7.07788 12.4199 11.6542 12.4199 17.2791C12.4199 22.9041 16.9962 27.4804 22.6212 27.4804C28.2461 27.4804 32.8224 22.9042 32.8224 17.2791C32.8224 11.6541 28.2461 7.07788 22.6212 7.07788ZM21.4793 22.43L16.1075 17.0583L17.972 15.1938L21.4793 18.701L27.2703 12.9099L29.1348 14.7744L21.4793 22.43Z" fill="#FF4E4E"/>
<path d="M28.5787 32.6332C31.9682 32.6332 35.0228 30.1801 35.6211 26.7215C38.981 24.9401 40.3823 20.733 38.6873 17.2791C40.369 13.8527 39.0047 9.63979 35.6193 7.82604C35.0064 4.37256 32.0019 1.9252 28.5881 1.9252C28.2608 1.9252 27.9299 1.9477 27.597 1.99393C26.2216 0.669389 24.4195 8.79013e-05 22.6151 8.77638e-09C20.8229 -8.78837e-05 19.0284 0.659985 17.646 1.99384C17.3172 1.94752 16.9888 1.92502 16.6642 1.92493C13.2747 1.92458 10.2201 4.37801 9.62181 7.83658C6.25966 9.6186 4.86331 13.8261 6.55498 17.2805C4.87448 20.707 6.23874 24.9184 9.62375 26.7321C10.223 30.1694 13.27 32.6379 16.6942 32.6379C17.0149 32.6379 17.3386 32.6163 17.6642 32.5717C19.0319 33.8956 20.8241 34.5596 22.6197 34.5596C24.4154 34.5596 26.2143 33.8958 27.597 32.5642C27.9258 32.6107 28.2541 32.6332 28.5787 32.6332ZM9.78336 17.2791C9.78336 10.2002 15.5424 4.44112 22.6214 4.44112C29.7003 4.44112 35.4594 10.2002 35.4594 17.2791C35.4594 24.3581 29.7003 30.1172 22.6214 30.1172C15.5425 30.1172 9.78336 24.3581 9.78336 17.2791Z" fill="black"/>
<path d="M16.7806 35.2743C16.7521 35.2746 16.7236 35.2747 16.6952 35.2747C14.4162 35.2747 12.1874 34.4687 10.4193 33.0052C10.1617 32.792 9.91698 32.5661 9.68433 32.3298L5.92578 38.8399L12.4214 39.9089L16.595 44.9998L21.1627 37.0882C19.5667 36.8529 18.0665 36.2336 16.7806 35.2743Z" fill="black"/>
<path d="M34.8286 33.0048C33.0653 34.4655 30.8457 35.27 28.5785 35.27C28.5441 35.27 28.5098 35.2698 28.4754 35.2694C27.1835 36.2307 25.6791 36.8516 24.0811 37.0878L28.6491 45L32.8227 39.9091L39.3183 38.8401L35.5606 32.3315C35.3288 32.5671 35.0852 32.7923 34.8286 33.0048Z" fill="black"/>
</g>
<defs>
<clipPath id="clip0_532_1387">
<rect width="45" height="45" fill="white" transform="translate(0.12207)"/>
</clipPath>
</defs>
</svg>
