<svg width="52" height="52" viewBox="0 0 52 52" fill="none" xmlns="http://www.w3.org/2000/svg">
<g clip-path="url(#clip0_532_874)">
<path d="M21.1201 29.0216C21.1201 31.5029 23.1389 33.5216 25.6201 33.5216C28.1014 33.5216 30.1201 31.5029 30.1201 29.0216C30.1201 26.5404 28.1014 24.5216 25.6201 24.5216C23.1389 24.5216 21.1201 26.5404 21.1201 29.0216Z" fill="#FF4E4E"/>
<path d="M25.6201 36.5216C20.6572 36.5216 16.6201 40.5587 16.6201 45.5216V51.6216H34.6201V45.5216C34.6201 40.5587 30.583 36.5216 25.6201 36.5216Z" fill="#FF4E4E"/>
<path d="M13.6201 32.0216C13.6201 29.5404 11.6014 27.5216 9.12012 27.5216C6.63887 27.5216 4.62012 29.5404 4.62012 32.0216C4.62012 34.5029 6.63887 36.5216 9.12012 36.5216C11.6014 36.5216 13.6201 34.5029 13.6201 32.0216Z" fill="#454545"/>
<path d="M46.6201 32.0216C46.6201 29.5404 44.6014 27.5216 42.1201 27.5216C39.6389 27.5216 37.6201 29.5404 37.6201 32.0216C37.6201 34.5029 39.6389 36.5216 42.1201 36.5216C44.6014 36.5216 46.6201 34.5029 46.6201 32.0216Z" fill="#454545"/>
<path d="M7.62148 0.421509L5.33945 5.80159L0.0214844 6.55158L3.85703 10.1949L2.975 15.5215L7.62148 13.093L12.268 15.5215L11.3859 10.1949L15.1215 6.55158L9.95937 5.80159L7.62148 0.421509Z" fill="#454545"/>
<path d="M27.958 5.80159L25.6201 0.421509L23.3381 5.80159L18.1201 6.55158L21.8557 10.1949L20.9736 15.5215L25.6201 13.093L30.2666 15.5215L29.3846 10.1949L33.1201 6.55158L27.958 5.80159Z" fill="#FF4E4E"/>
<path d="M43.6201 0.421509L41.3381 5.80159L36.1201 6.55158L39.8557 10.1949L38.9736 15.5215L43.6201 13.093L48.2666 15.5215L47.3846 10.1949L51.2201 6.55158L45.958 5.80159L43.6201 0.421509Z" fill="#454545"/>
<path d="M42.1203 39.5216C40.1266 39.5216 38.302 40.1907 36.8105 41.2876C37.3125 42.6091 37.6203 44.0263 37.6203 45.5216V51.6216H51.2203V48.5216C51.2203 43.5509 47.091 39.5216 42.1203 39.5216Z" fill="#454545"/>
<path d="M0.0214844 48.5216V51.6216H13.6215V45.5216C13.6215 44.0263 13.9293 42.6091 14.4312 41.2876C12.9398 40.1907 11.1152 39.5216 9.12148 39.5216C4.15078 39.5216 0.0214844 43.5509 0.0214844 48.5216Z" fill="#454545"/>
</g>
<defs>
<clipPath id="clip0_532_874">
<rect width="51.2" height="51.2" fill="white" transform="translate(0.0214844 0.421509)"/>
</clipPath>
</defs>
</svg>
