<svg width="46" height="45" viewBox="0 0 46 45" fill="none" xmlns="http://www.w3.org/2000/svg">
<g clip-path="url(#clip0_532_1373)">
<path d="M18.667 25.1367C18.667 27.3175 20.4413 29.0918 22.6221 29.0918C24.8029 29.0918 26.5771 27.3175 26.5771 25.1367C26.5771 22.9559 24.8029 21.1816 22.6221 21.1816C20.4413 21.1816 18.667 22.9559 18.667 25.1367Z" fill="#FF4E4E"/>
<path d="M22.6221 31.7285C18.2602 31.7285 14.7119 35.2768 14.7119 39.6387V45H30.5322V39.6387C30.5322 35.2768 26.984 31.7285 22.6221 31.7285Z" fill="#FF4E4E"/>
<path d="M12.0752 27.7734C12.0752 25.5927 10.3009 23.8184 8.12012 23.8184C5.93933 23.8184 4.16504 25.5927 4.16504 27.7734C4.16504 29.9542 5.93933 31.7285 8.12012 31.7285C10.3009 31.7285 12.0752 29.9542 12.0752 27.7734Z" fill="black"/>
<path d="M41.0791 27.7734C41.0791 25.5927 39.3048 23.8184 37.124 23.8184C34.9432 23.8184 33.1689 25.5927 33.1689 27.7734C33.1689 29.9542 34.9432 31.7285 37.124 31.7285C39.3048 31.7285 41.0791 29.9542 41.0791 27.7734Z" fill="black"/>
<path d="M6.80176 0L4.79607 4.72858L0.12207 5.38776L3.49316 8.58994L2.71793 13.2715L6.80176 11.137L10.8856 13.2715L10.1104 8.58994L13.3936 5.38776L8.85654 4.72858L6.80176 0Z" fill="black"/>
<path d="M24.6769 4.72858L22.6221 0L20.6164 4.72858L16.0303 5.38776L19.3135 8.58994L18.5382 13.2715L22.6221 11.137L26.7059 13.2715L25.9307 8.58994L29.2139 5.38776L24.6769 4.72858Z" fill="#FF4E4E"/>
<path d="M38.4424 0L36.4367 4.72858L31.8506 5.38776L35.1338 8.58994L34.3586 13.2715L38.4424 11.137L42.5262 13.2715L41.751 8.58994L45.1221 5.38776L40.4972 4.72858L38.4424 0Z" fill="black"/>
<path d="M37.1238 34.3652C35.3715 34.3652 33.7678 34.9533 32.457 35.9174C32.8982 37.0789 33.1687 38.3244 33.1687 39.6387V45H45.1219V42.2754C45.1219 37.9066 41.4926 34.3652 37.1238 34.3652Z" fill="black"/>
<path d="M0.12207 42.2754V45H12.0752V39.6387C12.0752 38.3244 12.3457 37.0789 12.7869 35.9174C11.4761 34.9533 9.87244 34.3652 8.12012 34.3652C3.75134 34.3652 0.12207 37.9066 0.12207 42.2754Z" fill="black"/>
</g>
<defs>
<clipPath id="clip0_532_1373">
<rect width="45" height="45" fill="white" transform="translate(0.12207)"/>
</clipPath>
</defs>
</svg>
