<svg width="73" height="73" viewBox="0 0 73 73" fill="none" xmlns="http://www.w3.org/2000/svg">
<g clip-path="url(#clip0_532_637)">
<path d="M30.1719 40.7188C30.1719 44.208 33.0107 47.0469 36.5 47.0469C39.9893 47.0469 42.8281 44.208 42.8281 40.7188C42.8281 37.2295 39.9893 34.3906 36.5 34.3906C33.0107 34.3906 30.1719 37.2295 30.1719 40.7188Z" fill="#FF4E4E"/>
<path d="M36.5 51.2656C29.5209 51.2656 23.8438 56.9428 23.8438 63.9219V72.5H49.1562V63.9219C49.1562 56.9428 43.4791 51.2656 36.5 51.2656Z" fill="#FF4E4E"/>
<path d="M19.625 44.9375C19.625 41.4482 16.7861 38.6094 13.2969 38.6094C9.80762 38.6094 6.96875 41.4482 6.96875 44.9375C6.96875 48.4268 9.80762 51.2656 13.2969 51.2656C16.7861 51.2656 19.625 48.4268 19.625 44.9375Z" fill="#454545"/>
<path d="M66.0312 44.9375C66.0312 41.4482 63.1924 38.6094 59.7031 38.6094C56.2139 38.6094 53.375 41.4482 53.375 44.9375C53.375 48.4268 56.2139 51.2656 59.7031 51.2656C63.1924 51.2656 66.0312 48.4268 66.0312 44.9375Z" fill="#454545"/>
<path d="M11.1875 0.5L7.97839 8.06573L0.5 9.12042L5.89374 14.2439L4.65338 21.7344L11.1875 18.3193L17.7216 21.7344L16.4813 14.2439L21.7344 9.12042L14.4752 8.06573L11.1875 0.5Z" fill="#454545"/>
<path d="M39.7877 8.06573L36.5 0.5L33.2909 8.06573L25.9531 9.12042L31.2062 14.2439L29.9659 21.7344L36.5 18.3193L43.0341 21.7344L41.7938 14.2439L47.0469 9.12042L39.7877 8.06573Z" fill="#FF4E4E"/>
<path d="M61.8125 0.5L58.6034 8.06573L51.2656 9.12042L56.5187 14.2439L55.2784 21.7344L61.8125 18.3193L68.3466 21.7344L67.1063 14.2439L72.5 9.12042L65.1002 8.06573L61.8125 0.5Z" fill="#454545"/>
<path d="M59.7032 55.4844C56.8995 55.4844 54.3336 56.4254 52.2363 57.9678C52.9422 59.8262 53.3751 61.8191 53.3751 63.9219V72.5H72.5001V68.1406C72.5001 61.1506 66.6932 55.4844 59.7032 55.4844Z" fill="#454545"/>
<path d="M0.5 68.1406V72.5H19.625V63.9219C19.625 61.8191 20.0579 59.8262 20.7637 57.9678C18.6664 56.4254 16.1006 55.4844 13.2969 55.4844C6.30682 55.4844 0.5 61.1506 0.5 68.1406Z" fill="#454545"/>
</g>
<defs>
<clipPath id="clip0_532_637">
<rect width="72" height="72" fill="white" transform="translate(0.5 0.5)"/>
</clipPath>
</defs>
</svg>
