<svg width="28" height="28" viewBox="0 0 28 28" fill="none" xmlns="http://www.w3.org/2000/svg">
<path d="M3.81152 25.6297H24.3449" stroke="black" stroke-width="1.42222" stroke-linecap="round" stroke-linejoin="round"/>
<path d="M6.77743 10.0926H4.95226C4.32486 10.0926 3.81152 10.606 3.81152 11.2334V21.0666C3.81152 21.694 4.32486 22.2073 4.95226 22.2073H6.77743C7.40483 22.2073 7.91817 21.694 7.91817 21.0666V11.2334C7.91817 10.606 7.40483 10.0926 6.77743 10.0926Z" stroke="black" stroke-width="1.42222" stroke-linecap="round" stroke-linejoin="round"/>
<path d="M14.9902 6.45377H13.1652C12.5377 6.45377 12.0244 6.9671 12.0244 7.59451V21.0667C12.0244 21.6941 12.5377 22.2074 13.1652 22.2074H14.9902C15.6176 22.2074 16.131 21.6941 16.131 21.0667V7.59451C16.131 6.9671 15.6176 6.45377 14.9902 6.45377Z" stroke="black" stroke-width="1.42222" stroke-linecap="round" stroke-linejoin="round"/>
<path d="M23.2032 2.81471H21.378C20.7506 2.81471 20.2373 3.32805 20.2373 3.95545V21.0666C20.2373 21.694 20.7506 22.2073 21.378 22.2073H23.2032C23.8306 22.2073 24.344 21.694 24.344 21.0666V3.95545C24.344 3.32805 23.8306 2.81471 23.2032 2.81471Z" stroke="black" stroke-width="1.42222" stroke-linecap="round" stroke-linejoin="round"/>
</svg>
