<svg width="25" height="28" viewBox="0 0 25 28" fill="none" xmlns="http://www.w3.org/2000/svg">
<path d="M5.80902 24.2177C6.88311 23.065 8.52046 23.1567 9.46357 24.4142L10.7865 26.1825C11.8475 27.5841 13.5635 27.5841 14.6245 26.1825L15.9474 24.4142C16.8906 23.1567 18.5279 23.065 19.602 24.2177C21.9336 26.7065 23.8329 25.8813 23.8329 22.397V7.63472C23.846 2.35593 22.6147 1.03296 17.6634 1.03296H7.76073C2.80941 1.03296 1.57812 2.35593 1.57812 7.63472V22.3839C1.57812 25.8813 3.49054 26.6934 5.80902 24.2177Z" stroke="black" stroke-width="1.46441" stroke-linecap="round" stroke-linejoin="round"/>
<path d="M8.25488 9.27414H17.3826" stroke="black" stroke-width="1.46441" stroke-linecap="round" stroke-linejoin="round"/>
<path d="M8.78223 12.8219H16.6415" stroke="black" stroke-width="1.46441" stroke-linecap="round" stroke-linejoin="round"/>
<path d="M9.64551 16.1967H15.7656" stroke="black" stroke-width="1.46441" stroke-linecap="round" stroke-linejoin="round"/>
</svg>
