<svg width="29" height="29" viewBox="0 0 29 29" fill="none" xmlns="http://www.w3.org/2000/svg">
<path d="M20.3722 7.03599L20.3722 7.0366C20.3363 7.5893 20.5484 8.12825 20.9438 8.51178C21.3391 8.89517 21.884 9.09078 22.4353 9.03786C22.4355 9.03784 22.4358 9.03781 22.436 9.03779L24.0594 8.88534L24.0627 8.88502C24.4856 8.84355 24.8817 8.65811 25.1833 8.35652C25.1833 8.35647 25.1833 8.35643 25.1834 8.35639L27.131 6.40881C27.1919 6.34784 27.2911 6.31948 27.3938 6.3548C27.499 6.39096 27.5758 6.48421 27.5921 6.58986L27.5924 6.59172C27.9117 8.62857 27.0844 10.6377 25.4542 11.8242C23.8232 13.0114 21.6383 13.1925 19.7709 12.2748L19.258 12.0227L18.8539 12.4268L12.3496 18.9311L11.9461 19.3346L12.1971 19.8472C13.2485 21.9938 12.8436 24.5207 11.2151 26.1635C9.99 27.2968 8.30981 27.8239 6.6193 27.5948L6.60856 27.5933L6.59779 27.5921C6.49029 27.5805 6.39201 27.5056 6.35245 27.3984C6.31381 27.2937 6.34207 27.1916 6.40433 27.1293L6.40451 27.1292L8.27168 25.262C8.27172 25.262 8.27176 25.2619 8.2718 25.2619C8.57332 24.9604 8.75875 24.5644 8.80028 24.1416C8.80029 24.1415 8.8003 24.1414 8.80031 24.1413L8.96044 22.5149L8.96059 22.5132C9.01376 21.9617 8.81814 21.4165 8.43458 21.021C8.05105 20.6256 7.51209 20.4135 6.9594 20.4494L6.95879 20.4494L5.26707 20.5604C5.26669 20.5605 5.26631 20.5605 5.26593 20.5605C4.82187 20.5889 4.40228 20.7758 4.08563 21.091L4.08563 21.091L4.08433 21.0923L2.22597 22.9506L2.22579 22.9508C2.16357 23.0131 2.06143 23.0413 1.95671 23.0027C1.84949 22.9631 1.7746 22.8648 1.76299 22.7573L1.76192 22.7474L1.7606 22.7375C1.5352 21.0478 2.06422 19.3698 3.1976 18.1462C4.83938 16.5178 7.36495 16.1118 9.51152 17.1613L10.0238 17.4118L10.4271 17.0086L16.9328 10.5028L17.3367 10.0989L17.0851 9.58619C16.1687 7.71873 16.3505 5.53458 17.5374 3.9039C18.7236 2.27413 20.7319 1.44647 22.7684 1.76441L22.7698 1.76462C22.8755 1.78093 22.9687 1.85766 23.0049 1.96284C23.0402 2.0656 23.0118 2.16476 22.9509 2.22573L21.0151 4.16152L21.0138 4.16283C20.6986 4.47946 20.5117 4.89905 20.4833 5.3431C20.4833 5.34349 20.4833 5.34387 20.4832 5.34427L20.3722 7.03599Z" stroke="black" stroke-width="1.5974"/>
</svg>
