<svg width="340" height="46" viewBox="0 0 340 46" fill="none" xmlns="http://www.w3.org/2000/svg">
<path d="M56.5116 0.00219019C56.5666 0.00186654 56.6216 0.00154288 56.6783 0.00120941C56.855 0.000406679 57.0317 0.000109789 57.2084 4.11508e-05C57.2537 2.08932e-05 57.2537 2.08933e-05 57.2998 2.26704e-07C58.25 -6.83937e-05 59.1861 0.0153655 60.1282 0.149041C60.1605 0.153601 60.1927 0.158161 60.226 0.162859C64.2677 0.739321 68.0899 2.29607 71.3605 4.91705C71.428 4.97104 71.428 4.97104 71.4968 5.02611C71.7394 5.2223 71.9747 5.42468 72.2049 5.63519C72.2676 5.69192 72.3306 5.74843 72.3952 5.80296C72.7023 6.06376 72.984 6.35019 73.2682 6.63531C73.3575 6.7249 73.4471 6.81425 73.5367 6.90357C73.8144 7.18105 74.0883 7.45841 74.3405 7.75952C74.3793 7.80372 74.4181 7.84793 74.458 7.89347C77.4473 11.3618 79.2758 15.7607 79.8421 21.926C79.8431 21.9726 79.8441 22.0192 79.8451 22.0672C79.9129 25.8527 79.0534 29.4995 77.3664 32.8833C77.347 32.9222 77.3277 32.9611 77.3077 33.0012C76.8627 33.8881 76.3416 34.7373 75.7618 35.5423C75.7362 35.5778 75.7107 35.6133 75.6844 35.6498C75.3711 36.083 75.0537 36.5104 74.7073 36.9177C74.6867 36.9422 74.666 36.9667 74.6447 36.9919C74.576 37.0734 74.507 37.1546 74.438 37.2358C74.4175 37.2599 74.3971 37.2839 74.3761 37.3087C73.9747 37.7769 73.5496 38.2216 73.1136 38.6574C73.0338 38.7374 72.9542 38.8178 72.8747 38.8982C72.6005 39.1737 72.3232 39.4335 72.0177 39.6746C71.915 39.7568 71.818 39.8427 71.7216 39.9321C71.4044 40.2167 71.06 40.4684 70.7187 40.723C70.685 40.7481 70.6513 40.7733 70.6166 40.7992C67.3011 43.2648 63.3148 44.706 59.2113 45.0784C59.1672 45.0827 59.123 45.0871 59.0775 45.0916C57.5438 45.2252 55.9227 45.2022 54.3974 44.9867C54.3651 44.9821 54.3328 44.9775 54.2995 44.9728C49.7859 44.3294 45.7337 42.4506 41.7799 39.017C41.6957 38.9326 41.608 38.8549 41.5175 38.7774C41.2178 38.5188 40.944 38.2368 40.6865 37.9364C40.5984 37.8354 40.5079 37.7369 40.4167 37.6387C40.1596 37.3615 39.9156 37.0766 39.6808 36.7802C39.6577 36.7512 39.6346 36.7223 39.6108 36.6925C38.7752 35.6434 38.0348 34.5366 37.3993 33.3551C37.361 33.2842 37.3225 33.2134 37.2837 33.1428C36.6658 32.0202 36.1938 30.8402 35.7839 29.6282C35.7669 29.5812 35.75 29.5343 35.7325 29.4859C35.6922 29.3531 35.6922 29.3531 35.6922 29.1697C37.1519 29.1582 38.6116 29.1493 40.0714 29.144C40.2438 29.1433 40.4161 29.1427 40.5885 29.142C40.64 29.1418 40.64 29.1418 40.6925 29.1416C41.248 29.1394 41.8035 29.1354 42.3589 29.1308C42.929 29.1261 43.4991 29.1233 44.0692 29.1223C44.4209 29.1216 44.7726 29.1194 45.1243 29.1153C45.3941 29.1123 45.6639 29.112 45.9337 29.1127C46.0443 29.1125 46.1549 29.1115 46.2655 29.1096C47.1023 29.0957 47.1023 29.0957 47.3442 29.2797C47.4394 29.4083 47.5037 29.5274 47.5663 29.674C47.6053 29.7329 47.6457 29.791 47.6879 29.8476C47.7225 29.8971 47.7571 29.9467 47.7927 29.9978C47.9889 30.2754 48.2055 30.5257 48.4374 30.7743C48.4863 30.8315 48.5351 30.8888 48.5836 30.9463C48.9841 31.4044 49.4237 31.8228 49.9045 32.1956C49.9484 32.2311 49.9923 32.2666 50.0376 32.3032C52.5697 34.3181 55.8414 35.1228 59.0279 34.763C61.3765 34.4657 63.6293 33.4414 65.4005 31.8746C65.4588 31.824 65.4588 31.824 65.5182 31.7724C66.0098 31.3392 66.4652 30.8794 66.8676 30.3617C66.9037 30.3167 66.9398 30.2716 66.977 30.2252C67.9363 29.0194 68.6355 27.6209 69.0682 26.1439C69.0783 26.1094 69.0884 26.075 69.0988 26.0396C69.9726 22.9797 69.5297 19.6315 67.9952 16.8582C67.5381 16.063 66.9931 15.3356 66.3749 14.6583C66.3049 14.5813 66.2355 14.5037 66.1668 14.4255C65.9552 14.1852 65.7376 13.9705 65.4922 13.7654C65.45 13.7283 65.4077 13.6911 65.3642 13.6529C63.7086 12.2052 61.6142 11.2179 59.4405 10.8771C59.3952 10.8698 59.3499 10.8624 59.3032 10.8549C58.0467 10.6604 56.752 10.6749 55.4977 10.8771C55.4538 10.884 55.4098 10.8908 55.3645 10.8979C53.7037 11.1699 52.0629 11.8408 50.6839 12.8026C50.6288 12.8409 50.6288 12.8409 50.5726 12.88C50.1395 13.1839 49.7296 13.5018 49.3481 13.8687C49.2249 13.9868 49.0987 14.0999 48.9704 14.2124C48.7754 14.3876 48.6053 14.5731 48.4374 14.774C48.4003 14.8162 48.3632 14.8585 48.325 14.902C48.0306 15.2388 47.7673 15.5921 47.5124 15.9595C47.4921 15.9884 47.4718 16.0172 47.4509 16.0469C47.3814 16.148 47.3814 16.148 47.3268 16.2564C47.1704 16.5387 47.1704 16.5387 47.0066 16.5998C46.8809 16.6141 46.761 16.615 46.6345 16.6116C46.5869 16.612 46.5393 16.6123 46.4902 16.6127C46.3307 16.6134 46.1714 16.6111 46.0119 16.6088C45.8976 16.6087 45.7833 16.6088 45.6689 16.609C45.4228 16.6091 45.1768 16.6079 44.9307 16.6056C44.5749 16.6023 44.2191 16.6012 43.8633 16.6007C43.286 16.5998 42.7087 16.597 42.1315 16.5931C41.5708 16.5893 41.0101 16.5864 40.4493 16.5847C40.4148 16.5846 40.3802 16.5844 40.3446 16.5843C40.1711 16.5838 39.9977 16.5833 39.8242 16.5828C38.3857 16.5785 36.9473 16.5712 35.5088 16.562C35.5229 16.4894 35.5371 16.4168 35.5514 16.3442C35.5593 16.3038 35.5672 16.2634 35.5753 16.2217C35.6101 16.0583 35.658 15.9013 35.7104 15.7428C35.7263 15.6941 35.7263 15.6941 35.7425 15.6444C35.7769 15.5394 35.8118 15.4346 35.8469 15.3299C35.859 15.2936 35.8711 15.2574 35.8836 15.22C36.1186 14.519 36.3916 13.8414 36.7008 13.1694C36.7345 13.0956 36.7345 13.0956 36.7688 13.0203C37.4012 11.6431 38.1757 10.3473 39.0848 9.1349C39.1058 9.10685 39.1269 9.07879 39.1486 9.04988C39.5029 8.57964 39.8755 8.12541 40.2596 7.67929C40.2958 7.63706 40.2958 7.63706 40.3327 7.59397C40.4826 7.42098 40.6391 7.25753 40.802 7.09681C40.8815 7.01729 40.9552 6.9344 41.0275 6.84832C41.2866 6.54872 41.5681 6.27454 41.8689 6.01718C41.9743 5.92463 42.0765 5.82903 42.1785 5.73285C42.4572 5.47115 42.7455 5.22971 43.0487 4.9971C43.1532 4.91682 43.2554 4.83476 43.356 4.7496C43.7465 4.42163 44.1625 4.13647 44.5863 3.85399C44.6151 3.83475 44.6439 3.81551 44.6736 3.79569C48.1326 1.49023 52.3242 0.0187393 56.5116 0.00219019Z" fill="black"/>
<path d="M33.3313 3.99028C33.3998 4.15959 36.2512 5.74711 36.056 5.96868C35.7604 6.3059 35.4863 6.65639 35.2182 7.01566C35.1412 7.11866 35.0636 7.22116 34.986 7.32365C34.4078 8.09194 33.8799 8.89784 33.3998 9.73094C33.3659 9.78911 33.3659 9.78911 33.3313 9.84846C32.6273 11.0616 32.0487 12.3133 31.5342 13.6167C31.4578 13.8062 31.3757 13.9922 31.2908 14.178C31.2606 14.178 31.2303 14.178 31.1992 14.178C31.1429 14.1191 31.1429 14.1191 31.0788 14.0376C30.9526 13.8861 30.8192 13.758 30.6689 13.6307C30.5844 13.5591 30.5012 13.4866 30.4185 13.413C29.8123 12.877 29.1537 12.4192 28.4484 12.0232C28.4154 12.0047 28.3825 11.9861 28.3485 11.967C27.803 11.663 27.2462 11.4137 26.6604 11.198C26.6269 11.1855 26.5935 11.173 26.559 11.1601C24.6799 10.4651 22.489 10.2668 20.517 10.6479C20.4765 10.655 20.4361 10.6621 20.3944 10.6695C18.5452 10.9983 16.7702 11.7854 15.2905 12.9402C15.2494 12.9716 15.2084 13.0029 15.166 13.0353C14.375 13.6514 13.635 14.376 13.044 15.1866C13.0107 15.2317 13.0108 15.2317 12.9768 15.2777C12.1979 16.3364 11.5643 17.5074 11.1644 18.7626C11.1524 18.7999 11.1405 18.8372 11.1283 18.8757C10.1642 21.9737 10.5485 25.3257 12.05 28.1844C12.4927 28.9997 13.0547 29.7539 13.68 30.4373C13.7628 30.5289 13.8419 30.6222 13.9209 30.7171C14.7617 31.6756 15.8633 32.4315 16.9868 33.0208C17.0241 33.0405 17.0614 33.0602 17.0999 33.0805C19.8935 34.5344 23.2127 34.7817 26.2114 33.8438C26.9063 33.6158 27.5744 33.3192 28.2192 32.975C28.2488 32.9594 28.2784 32.9439 28.3089 32.9278C29.048 32.5371 29.7227 32.0506 30.3544 31.504C30.3832 31.4791 30.412 31.4542 30.4417 31.4286C30.4984 31.3794 30.555 31.33 30.6114 31.2803C30.6374 31.2577 30.6634 31.235 30.6902 31.2117C30.7132 31.1915 30.7362 31.1712 30.7599 31.1504C30.8408 31.0889 30.9239 31.0464 31.0158 31.0036C31.0298 31.0446 31.0438 31.0856 31.0583 31.1278C31.503 32.4235 32.0083 33.6732 32.6204 34.9005C32.6456 34.9512 32.6709 35.0019 32.6969 35.0541C33.5503 36.7568 34.6005 38.3565 35.8225 39.8183C35.8462 39.8467 35.87 39.8752 35.8945 39.9045C35.9447 39.9633 35.9962 40.0211 36.0485 40.078C36.0741 40.1062 36.0998 40.1345 36.1262 40.1635C36.1496 40.1885 36.1729 40.2135 36.197 40.2393C36.2119 40.2627 36.2269 40.2862 36.2422 40.3104C36.192 40.461 36.1675 40.4824 36.0449 40.5728C36.0121 40.597 35.9794 40.6213 35.9456 40.6463C35.9092 40.6726 35.8728 40.6988 35.8354 40.7259C35.7972 40.7536 35.7591 40.7814 35.7198 40.81C34.5861 41.627 33.4095 42.3396 32.1619 42.9695C32.1189 42.9912 32.0759 43.013 32.0315 43.0354C31.3431 43.3809 30.6403 43.672 29.9155 43.9322C29.8616 43.9516 29.8078 43.9709 29.7523 43.9908C28.1274 44.5673 26.4511 44.9487 24.7377 45.1386C24.6872 45.1442 24.6872 45.1442 24.6356 45.1499C23.8397 45.2367 23.0482 45.2714 22.2477 45.2704C22.2057 45.2704 22.1638 45.2703 22.1205 45.2703C18.018 45.263 13.9799 44.1449 10.4767 42.0067C10.4418 41.9857 10.4069 41.9647 10.371 41.943C9.12459 41.1915 7.97301 40.2834 6.90065 39.3018C6.86663 39.2709 6.86663 39.2709 6.83193 39.2393C6.37345 38.8226 5.91599 38.4007 5.51416 37.928C5.41741 37.816 5.31653 37.7082 5.2158 37.5997C4.97613 37.3366 4.75753 37.0602 4.54049 36.7783C4.4674 36.6842 4.3932 36.591 4.31876 36.498C3.38641 35.3273 2.61713 34.0373 1.94926 32.6999C1.92801 32.6578 1.90675 32.6156 1.88486 32.5722C0.0507244 28.9187 -0.638519 24.7369 0.694039 15.7413C1.73435 12.6057 3.40946 9.48965 5.79945 7.16426C5.89025 7.07364 5.97456 6.97994 6.05823 6.88274C6.28476 6.61975 6.5298 6.38459 6.79266 6.15833C6.90138 6.06259 7.00739 5.96446 7.11324 5.86558C7.39991 5.59804 7.69312 5.34366 8.00096 5.10046C8.04573 5.06483 8.04573 5.06483 8.0914 5.02847C8.56779 4.64978 9.05263 4.29071 9.55973 3.95431C9.58939 3.93444 9.61905 3.91456 9.64961 3.89409C14.8986 0.886282 25.4966 -0.488611 33.3313 3.99028Z" fill="black"/>
<path d="M25.0686 19.338C25.717 19.8847 26.2182 20.5337 26.5228 21.33C26.5228 21.3603 26.5228 21.3905 26.5228 21.4217C35.207 21.4217 43.8912 21.4217 52.8385 21.4217C52.9066 21.2174 52.9066 21.2174 52.9761 21.0091C53.4569 19.9411 54.414 19.0594 55.5004 18.6339C56.0696 18.4307 56.6236 18.3325 57.2283 18.3357C57.307 18.3361 57.307 18.3361 57.3873 18.3364C58.6419 18.3544 59.7229 18.8793 60.6209 19.7397C61.488 20.6395 61.9369 21.8469 61.9299 23.0906C61.8957 24.4632 61.3146 25.6081 60.3337 26.5513C59.4618 27.3544 58.2344 27.7308 57.0651 27.7016C55.7648 27.6418 54.6251 27.0827 53.7222 26.1526C53.3922 25.7761 53.0529 25.305 52.9302 24.8143C44.1855 24.8143 35.4408 24.8143 26.4311 24.8143C26.3857 24.9505 26.3857 24.9505 26.3394 25.0894C25.8112 26.1838 24.8651 27.0223 23.7219 27.4323C22.564 27.8247 21.2688 27.803 20.1547 27.2793C19.7305 27.0696 19.3501 26.8364 19.004 26.5106C18.982 26.4907 18.96 26.4707 18.9374 26.4502C18.0121 25.6086 17.5087 24.4681 17.435 23.2201C17.4066 21.9831 17.795 20.7826 18.6373 19.8629C18.6726 19.8239 18.7079 19.7848 18.7443 19.7445C20.3816 18.0199 23.2237 17.8469 25.0686 19.338Z" fill="black"/>
<path d="M310.796 8.77087C312.43 8.77087 314.064 8.77087 315.747 8.77087C315.974 9.13398 315.974 9.13398 316.206 9.50441C316.322 9.68707 316.438 9.86954 316.555 10.0517C316.619 10.151 316.683 10.2503 316.746 10.3495C316.778 10.3994 316.81 10.4493 316.843 10.5007C316.998 10.7415 317.152 10.9826 317.306 11.2236C317.367 11.3187 317.428 11.4137 317.489 11.5088C317.614 11.7045 317.739 11.9003 317.864 12.0962C318.263 12.7196 318.263 12.7196 318.664 13.3412C318.878 13.6701 319.088 14.0007 319.299 14.3317C319.596 14.799 319.894 15.2653 320.193 15.7316C320.316 15.9234 320.439 16.1153 320.561 16.3072C320.622 16.4023 320.683 16.4974 320.744 16.5925C320.9 16.8359 321.055 17.0792 321.211 17.3226C321.61 17.946 321.61 17.946 322.011 18.5676C322.224 18.8966 322.435 19.2272 322.645 19.5581C322.942 20.0255 323.241 20.4917 323.54 20.958C323.663 21.1499 323.785 21.3419 323.908 21.5338C323.969 21.6286 324.03 21.7234 324.09 21.8182C324.232 22.0399 324.374 22.2615 324.516 22.4833C324.566 22.5614 324.615 22.6395 324.665 22.7175C324.728 22.8151 324.79 22.9127 324.852 23.0103C325.007 23.2521 325.163 23.4918 325.327 23.7278C325.375 23.8084 325.375 23.8084 325.375 23.9001C325.405 23.9001 325.436 23.9001 325.467 23.9001C325.479 23.8672 325.491 23.8343 325.503 23.8004C325.56 23.6673 325.627 23.5545 325.705 23.4333C325.735 23.3875 325.764 23.3417 325.795 23.2945C325.842 23.2213 325.842 23.2213 325.891 23.1465C325.924 23.0951 325.957 23.0437 325.99 22.9922C326.058 22.887 326.126 22.7819 326.194 22.6769C326.336 22.4558 326.478 22.2339 326.619 22.0118C326.671 21.9289 326.724 21.8459 326.777 21.7629C326.829 21.6806 326.881 21.5984 326.934 21.5161C327.3 20.9398 327.667 20.3639 328.036 19.7888C328.342 19.3107 328.646 18.8318 328.951 18.3527C329.317 17.7764 329.685 17.2005 330.053 16.6254C330.359 16.1473 330.664 15.6684 330.968 15.1893C331.335 14.6129 331.702 14.0369 332.07 13.4617C332.269 13.1516 332.467 12.8411 332.665 12.5303C332.893 12.1707 333.122 11.8117 333.352 11.4529C333.636 11.0098 333.919 10.5662 334.201 10.1221C334.315 9.94373 334.428 9.7655 334.542 9.58733C334.572 9.54086 334.601 9.49439 334.632 9.44651C334.689 9.35695 334.746 9.26742 334.803 9.1779C334.829 9.13791 334.854 9.09791 334.88 9.0567C334.903 9.02134 334.926 8.98599 334.949 8.94956C335.004 8.8633 335.004 8.8633 335.049 8.77087C336.683 8.77087 338.316 8.77087 340 8.77087C340 17.9241 340 27.0773 340 36.5078C338.472 36.5078 336.944 36.5078 335.369 36.5078C335.354 30.32 335.339 24.1321 335.324 17.7567C335.036 18.1804 334.749 18.604 334.453 19.0404C334.161 19.4693 333.869 19.8982 333.578 20.327C333.204 20.876 332.831 21.4251 332.458 21.9746C332.022 22.6178 331.585 23.2604 331.148 23.903C330.774 24.452 330.401 25.0011 330.028 25.5506C329.592 26.1938 329.155 26.8364 328.718 27.479C328.654 27.5731 328.59 27.6672 328.526 27.7613C328.462 27.8553 328.398 27.9493 328.334 28.0433C328.175 28.277 328.016 28.5108 327.858 28.7449C327.779 28.8626 327.699 28.9803 327.619 29.098C327.581 29.1547 327.543 29.2114 327.505 29.2681C327.451 29.3473 327.398 29.4264 327.344 29.5055C327.313 29.5508 327.283 29.5961 327.251 29.6428C327.222 29.6842 327.193 29.7257 327.163 29.7684C327.137 29.8082 327.111 29.8479 327.085 29.8888C326.946 30.0325 326.872 30.028 326.674 30.0317C326.644 30.0325 326.614 30.0334 326.582 30.0343C326.482 30.0367 326.383 30.0373 326.283 30.0378C326.213 30.0386 326.143 30.0395 326.073 30.0404C325.927 30.042 325.781 30.0426 325.634 30.0427C325.448 30.0429 325.261 30.0465 325.074 30.051C324.93 30.0539 324.786 30.0545 324.642 30.0545C324.573 30.0548 324.504 30.056 324.435 30.058C323.9 30.0724 323.9 30.0724 323.696 29.8898C323.602 29.7615 323.525 29.6333 323.449 29.4934C323.396 29.4146 323.342 29.3364 323.287 29.2589C323.233 29.1795 323.179 29.1001 323.126 29.0206C323.066 28.9321 323.005 28.8436 322.945 28.7552C322.9 28.688 322.9 28.688 322.853 28.6196C322.707 28.4035 322.559 28.1877 322.412 27.9718C322.384 27.9299 322.355 27.888 322.326 27.8448C322.119 27.5411 321.911 27.2377 321.703 26.9344C321.484 26.6139 321.265 26.2929 321.046 25.972C320.862 25.7014 320.677 25.4311 320.492 25.1609C320.249 24.805 320.006 24.4487 319.763 24.0923C319.578 23.8217 319.394 23.5514 319.209 23.2812C318.965 22.9253 318.722 22.569 318.479 22.2126C318.295 21.942 318.11 21.6717 317.925 21.4015C317.566 20.8777 317.209 20.353 316.851 19.8285C316.652 19.5352 316.452 19.2419 316.252 18.9487C316.224 18.9079 316.196 18.8671 316.167 18.8251C316.087 18.7068 316.006 18.5885 315.925 18.4702C315.901 18.4352 315.877 18.4003 315.853 18.3643C315.83 18.3312 315.807 18.2981 315.784 18.2641C315.765 18.2357 315.745 18.2073 315.725 18.178C315.627 18.0367 315.526 17.8969 315.426 17.7567C315.411 23.9446 315.396 30.1325 315.381 36.5078C313.868 36.5078 312.355 36.5078 310.796 36.5078C310.796 27.3546 310.796 18.2014 310.796 8.77087Z" fill="black"/>
<path d="M155.378 8.77087C157.012 8.77087 158.646 8.77087 160.329 8.77087C160.496 9.0432 160.662 9.31553 160.834 9.59611C160.927 9.74293 161.021 9.88913 161.117 10.0345C161.168 10.1117 161.218 10.189 161.269 10.2662C161.295 10.3061 161.321 10.346 161.348 10.3871C161.496 10.6145 161.642 10.8432 161.788 11.0718C161.819 11.1199 161.849 11.1681 161.881 11.2177C161.944 11.3158 162.007 11.414 162.069 11.5122C162.223 11.7523 162.376 11.9923 162.53 12.2323C162.591 12.3278 162.652 12.4233 162.713 12.5188C162.759 12.5897 162.759 12.5897 162.805 12.6621C164.547 15.3842 164.547 15.3842 164.639 15.5276C164.7 15.6228 164.761 15.718 164.822 15.8132C164.977 16.0565 165.133 16.2998 165.289 16.5432C165.687 17.1666 165.687 17.1666 166.089 17.7883C166.302 18.1172 166.513 18.4478 166.723 18.7788C167.02 19.2461 167.319 19.7124 167.617 20.1786C167.74 20.3705 167.863 20.5624 167.986 20.7543C168.047 20.8494 168.108 20.9445 168.169 21.0396C168.324 21.283 168.48 21.5263 168.636 21.7697C168.909 22.1976 169.183 22.6255 169.458 23.052C169.479 23.0832 169.499 23.1144 169.52 23.1465C169.648 23.3453 169.779 23.5421 169.915 23.7366C169.957 23.8084 169.957 23.8084 169.957 23.9001C169.987 23.9001 170.018 23.9001 170.049 23.9001C170.059 23.8701 170.069 23.8401 170.08 23.8092C170.161 23.6247 170.267 23.4618 170.375 23.2927C170.399 23.255 170.423 23.2174 170.448 23.1786C170.529 23.0522 170.61 22.926 170.691 22.7998C170.75 22.7076 170.809 22.6154 170.868 22.5231C170.992 22.3291 171.116 22.1352 171.24 21.9413C171.411 21.6747 171.581 21.4078 171.751 21.1408C171.79 21.079 171.79 21.079 171.83 21.016C171.909 20.8924 171.987 20.7687 172.066 20.645C172.432 20.0687 172.8 19.4929 173.168 18.9177C173.474 18.4397 173.779 17.9607 174.083 17.4817C174.45 16.9053 174.817 16.3295 175.185 15.7543C175.491 15.2763 175.796 14.7973 176.1 14.3183C176.467 13.7418 176.834 13.1659 177.203 12.5907C177.401 12.2805 177.599 11.97 177.797 11.6592C178.025 11.2996 178.255 10.9406 178.484 10.5818C178.726 10.2038 178.968 9.82567 179.209 9.44711C179.236 9.40535 179.263 9.3636 179.29 9.32058C179.315 9.28172 179.34 9.24287 179.365 9.20283C179.387 9.16907 179.408 9.13531 179.43 9.10053C179.498 8.99154 179.564 8.88115 179.631 8.77087C181.249 8.77087 182.868 8.77087 184.536 8.77087C184.536 17.9241 184.536 27.0773 184.536 36.5078C183.023 36.5078 181.51 36.5078 179.952 36.5078C179.936 30.32 179.921 24.1321 179.906 17.7567C179.418 18.4697 179.418 18.4697 178.931 19.1837C178.865 19.2819 178.798 19.3801 178.731 19.4783C178.698 19.5273 178.665 19.5764 178.63 19.6269C178.533 19.7702 178.435 19.9135 178.338 20.0567C177.997 20.5583 177.656 21.06 177.315 21.562C176.879 22.2051 176.442 22.8478 176.005 23.4904C175.631 24.0394 175.258 24.5885 174.886 25.138C174.449 25.7811 174.012 26.4238 173.575 27.0664C173.511 27.1605 173.447 27.2546 173.383 27.3486C173.319 27.443 173.255 27.5373 173.191 27.6316C173.034 27.8614 172.878 28.0914 172.722 28.3216C172.645 28.4354 172.569 28.549 172.492 28.6627C172.455 28.7166 172.419 28.7705 172.382 28.8244C172.299 28.9478 172.215 29.0708 172.13 29.1928C172.056 29.3003 171.989 29.4092 171.925 29.5231C171.785 29.7608 171.667 29.9589 171.401 30.0567C171.21 30.0788 171.028 30.0811 170.836 30.0749C170.767 30.0747 170.697 30.0748 170.628 30.0751C170.483 30.075 170.338 30.0727 170.193 30.0688C170.008 30.0638 169.823 30.0636 169.638 30.0648C169.495 30.0654 169.352 30.064 169.209 30.0618C169.14 30.061 169.072 30.0607 169.004 30.0609C168.476 30.0607 168.476 30.0607 168.287 29.9073C168.205 29.8033 168.14 29.7013 168.077 29.5851C168.041 29.5313 168.004 29.4779 167.967 29.425C167.933 29.3734 167.899 29.3217 167.865 29.2699C167.826 29.2098 167.786 29.1499 167.747 29.0899C167.726 29.0586 167.705 29.0273 167.684 28.995C167.569 28.8229 167.452 28.6524 167.335 28.4819C167.284 28.4076 167.233 28.3334 167.182 28.2591C167.156 28.2211 167.13 28.1832 167.104 28.144C166.964 27.9398 166.824 27.7352 166.685 27.5306C166.656 27.4886 166.627 27.4466 166.598 27.4033C166.481 27.2318 166.364 27.0603 166.247 26.8888C165.924 26.4147 165.601 25.9407 165.277 25.4673C165.057 25.1468 164.839 24.8259 164.62 24.5049C164.435 24.2344 164.251 23.964 164.066 23.6938C163.707 23.17 163.35 22.6454 162.992 22.1208C162.693 21.6821 162.394 21.2435 162.094 20.8055C161.882 20.4953 161.67 20.1849 161.458 19.8743C161.43 19.8324 161.401 19.7906 161.372 19.7475C161.223 19.5297 161.075 19.312 160.927 19.0942C160.897 19.0501 160.867 19.0061 160.836 18.9607C160.779 18.878 160.723 18.7952 160.667 18.7125C160.449 18.3927 160.229 18.0749 160.008 17.7567C159.993 23.9446 159.978 30.1325 159.963 36.5078C158.45 36.5078 156.937 36.5078 155.378 36.5078C155.378 27.3546 155.378 18.2014 155.378 8.77087Z" fill="black"/>
<path d="M136.111 8.44061C136.187 8.44022 136.187 8.44022 136.264 8.43982C136.37 8.43939 136.476 8.43909 136.583 8.43891C136.741 8.43847 136.9 8.43705 137.058 8.4356C137.979 8.43121 138.892 8.50919 139.796 8.69062C139.844 8.7002 139.893 8.70979 139.943 8.71966C140.467 8.82733 140.978 8.97277 141.486 9.13762C141.527 9.15077 141.568 9.16392 141.611 9.17747C143.66 9.84482 145.502 11.0441 147.025 12.556C147.065 12.5956 147.105 12.6351 147.146 12.6758C147.418 12.9493 147.666 13.2363 147.905 13.5389C147.927 13.5668 147.949 13.5947 147.973 13.6234C149.481 15.511 150.44 17.801 150.793 20.1866C150.803 20.2521 150.803 20.2521 150.814 20.3189C151.044 21.8359 151.04 23.4869 150.793 25.0004C150.785 25.0505 150.777 25.1005 150.768 25.1521C150.542 26.5047 150.152 27.7997 149.555 29.0349C149.525 29.0968 149.525 29.0968 149.495 29.16C148.958 30.2607 148.278 31.2863 147.448 32.1881C147.363 32.2806 147.281 32.3749 147.2 32.4705C146.879 32.8369 146.534 33.1689 146.152 33.4716C146.068 33.5389 145.986 33.6079 145.905 33.6786C144.66 34.7624 143.126 35.5113 141.578 36.0494C141.535 36.0641 141.493 36.0789 141.449 36.0942C137.803 37.3358 133.635 36.9637 130.198 35.2913C129.3 34.8444 128.467 34.295 127.687 33.6654C127.662 33.646 127.638 33.6266 127.613 33.6066C126.92 33.0452 126.254 32.4067 125.715 31.694C125.67 31.6363 125.624 31.5787 125.578 31.5211C125.011 30.8028 124.534 30.0285 124.111 29.2183C124.093 29.1852 124.076 29.1522 124.058 29.1182C123.357 27.7594 122.927 26.2392 122.735 24.7253C122.731 24.6945 122.727 24.6637 122.723 24.632C122.639 23.9592 122.627 23.2909 122.629 22.6135C122.629 22.5599 122.629 22.5063 122.629 22.451C122.631 21.6725 122.649 20.9098 122.781 20.1407C122.789 20.0921 122.797 20.0436 122.805 19.9935C123.231 17.4022 124.382 14.9062 126.187 12.9848C126.282 12.8823 126.374 12.7786 126.465 12.6726C126.627 12.4872 126.799 12.3167 126.979 12.1491C127.027 12.1046 127.027 12.1046 127.075 12.0592C127.373 11.7851 127.683 11.5336 128.007 11.2924C128.032 11.2738 128.057 11.2553 128.082 11.2361C130.361 9.52519 133.247 8.45253 136.111 8.44061ZM129.82 15.3408C129.613 15.5686 129.426 15.8114 129.245 16.0604C129.226 16.0867 129.207 16.113 129.187 16.1402C128.629 16.9162 128.224 17.7714 127.916 18.6736C127.903 18.7102 127.89 18.7467 127.877 18.7843C126.916 21.5952 127.108 25.0216 128.39 27.697C129.468 29.8777 131.251 31.537 133.569 32.3272C134.089 32.4967 134.621 32.6089 135.159 32.7026C135.193 32.7087 135.227 32.7148 135.263 32.721C137.634 33.1248 140.298 32.5727 142.266 31.1925C144.412 29.6423 145.671 27.2824 146.099 24.7005C146.566 21.7295 146.098 18.5178 144.309 16.047C144.034 15.6765 143.732 15.3374 143.412 15.0059C143.371 14.9612 143.371 14.9612 143.329 14.9155C141.814 13.3095 139.406 12.5165 137.252 12.4427C137.197 12.4413 137.142 12.4399 137.085 12.4385C137.039 12.4367 136.993 12.4349 136.946 12.433C134.256 12.3726 131.668 13.3794 129.82 15.3408Z" fill="black"/>
<path d="M236.983 8.77087C248.026 8.77087 248.026 8.77087 249.11 8.96572C249.167 8.97563 249.223 8.98554 249.282 8.99575C249.778 9.08588 250.259 9.20525 250.737 9.36688C250.776 9.38004 250.816 9.3932 250.856 9.40677C252.049 9.81653 253.107 10.4429 254.038 11.2924C254.061 11.3134 254.084 11.3344 254.108 11.3561C255.447 12.5924 256.28 14.4746 256.382 16.2919C256.385 16.3901 256.386 16.4881 256.387 16.5862C256.388 16.6224 256.388 16.6586 256.389 16.6959C256.397 17.5076 256.389 18.2933 256.193 19.0863C256.179 19.1451 256.179 19.1451 256.164 19.205C255.649 21.2319 254.417 22.9714 252.619 24.0454C251.817 24.5112 250.945 24.8186 250.05 25.0463C250.305 25.4973 250.567 25.9447 250.832 26.3902C250.87 26.4549 250.909 26.5197 250.947 26.5845C251.202 27.012 251.457 27.4388 251.714 27.8652C251.966 28.2858 252.217 28.7078 252.467 29.1299C252.734 29.5804 253.003 30.03 253.273 30.4788C253.43 30.7409 253.587 31.0034 253.743 31.2665C253.761 31.2969 253.779 31.3273 253.797 31.3586C253.834 31.4208 253.871 31.4831 253.908 31.5453C253.926 31.5764 253.945 31.6075 253.964 31.6395C253.982 31.6706 254.001 31.7017 254.019 31.7337C254.293 32.1948 254.569 32.6536 254.849 33.1111C255.111 33.5421 255.368 33.9764 255.622 34.4126C255.806 34.7288 255.992 35.0436 256.183 35.356C256.201 35.3855 256.219 35.4149 256.237 35.4453C256.324 35.587 256.41 35.7284 256.498 35.8697C256.528 35.92 256.559 35.9703 256.591 36.0222C256.618 36.0663 256.646 36.1104 256.674 36.1558C256.743 36.2786 256.743 36.2786 256.835 36.5078C255.019 36.5078 253.204 36.5078 251.333 36.5078C251.121 36.1296 250.91 35.7514 250.691 35.3617C250.454 34.9539 250.454 34.9539 250.216 34.5467C250.037 34.2408 249.861 33.9331 249.686 33.6253C249.449 33.2101 249.211 32.7955 248.972 32.3817C248.733 31.9679 248.495 31.5533 248.259 31.1381C248.033 30.7414 247.805 30.3459 247.574 29.9518C247.343 29.5578 247.115 29.1622 246.889 28.7656C246.65 28.3467 246.411 27.9282 246.17 27.5105C246.145 27.4679 246.121 27.4252 246.095 27.3812C246.058 27.3158 246.058 27.3158 246.019 27.2491C245.979 27.1751 245.979 27.1751 245.937 27.0997C245.859 26.9625 245.767 26.842 245.669 26.7179C245.023 25.8449 245.113 24.9177 245.146 23.8799C245.152 23.6438 245.155 23.4077 245.159 23.1716C245.165 22.7114 245.176 22.2513 245.19 21.7912C245.234 21.79 245.278 21.7888 245.324 21.7875C245.49 21.783 245.657 21.7782 245.824 21.7735C245.895 21.7715 245.967 21.7695 246.038 21.7675C247.632 21.7239 249.211 21.6051 250.43 20.455C251.313 19.5206 251.684 18.2678 251.67 16.9984C251.629 15.7292 251.249 14.5594 250.316 13.6678C248.138 11.8161 243.587 12.547 241.568 12.5303C241.568 20.4429 241.568 28.3555 241.568 36.5078C240.055 36.5078 238.542 36.5078 236.983 36.5078C236.983 27.3546 236.983 18.2014 236.983 8.77087Z" fill="black"/>
<path d="M291.401 8.76526C291.44 8.7653 291.479 8.76535 291.519 8.76539C291.564 8.76533 291.609 8.76526 291.655 8.7652C291.705 8.76536 291.754 8.76553 291.805 8.7657C291.883 8.76569 291.883 8.76569 291.963 8.76568C292.135 8.76571 292.307 8.76607 292.48 8.76642C292.599 8.76651 292.718 8.76658 292.837 8.76662C293.119 8.76678 293.402 8.76714 293.684 8.7676C294.005 8.76811 294.326 8.76836 294.647 8.76859C295.308 8.76907 295.969 8.76988 296.63 8.7709C296.947 9.6309 297.26 10.4921 297.567 11.3555C297.607 11.4661 297.646 11.5768 297.685 11.6874C297.767 11.9159 297.848 12.1444 297.93 12.3729C298.124 12.9174 298.318 13.4617 298.513 14.006C298.532 14.059 298.551 14.1121 298.57 14.1668C298.865 14.9936 299.161 15.8201 299.458 16.6465C299.758 17.4829 300.057 18.3196 300.356 19.1565C300.634 19.9356 300.912 20.7145 301.192 21.4932C301.489 22.323 301.787 23.153 302.083 23.9833C302.102 24.0364 302.121 24.0896 302.14 24.1443C302.294 24.5753 302.448 25.0064 302.602 25.4374C302.737 25.8142 302.871 26.191 303.006 26.5678C303.025 26.621 303.044 26.6742 303.063 26.7289C303.358 27.5556 303.654 28.3821 303.951 29.2084C304.231 29.9908 304.511 30.7736 304.791 31.5565C305.099 32.4192 305.407 33.2817 305.716 34.1439C305.734 34.1928 305.751 34.2417 305.769 34.2921C305.804 34.3873 305.838 34.4824 305.872 34.5776C305.905 34.6694 305.938 34.7613 305.971 34.8531C306.059 35.0995 306.148 35.3457 306.237 35.5917C306.256 35.6445 306.276 35.6974 306.295 35.7518C306.332 35.8539 306.369 35.9559 306.407 36.0579C306.423 36.1035 306.44 36.1491 306.457 36.1961C306.472 36.2365 306.486 36.2768 306.501 36.3184C306.533 36.4162 306.533 36.4162 306.533 36.5079C304.929 36.5079 303.326 36.5079 301.673 36.5079C301.461 35.8876 301.25 35.2673 301.031 34.6282C300.918 34.3023 300.805 33.9765 300.69 33.6511C300.665 33.5791 300.64 33.507 300.615 33.435C300.602 33.3992 300.589 33.3634 300.576 33.3265C300.552 33.256 300.527 33.1855 300.502 33.1151C300.435 32.9238 300.368 32.7328 300.299 32.5419C300.285 32.5 300.27 32.4582 300.254 32.415C300.226 32.3339 300.197 32.2529 300.167 32.1719C300.154 32.1354 300.142 32.0989 300.128 32.0613C300.117 32.0291 300.105 31.9968 300.093 31.9636C300.069 31.8774 300.069 31.8774 300.069 31.7399C297.164 31.7399 294.259 31.7399 291.266 31.7399C291.298 31.4885 291.335 31.2562 291.396 31.0131C291.405 30.9792 291.413 30.9453 291.422 30.9104C291.45 30.7996 291.477 30.689 291.505 30.5783C291.525 30.5009 291.544 30.4236 291.563 30.3462C291.604 30.1847 291.644 30.0232 291.685 29.8618C291.737 29.6547 291.789 29.4474 291.841 29.2402C291.881 29.0807 291.921 28.9213 291.961 28.7619C291.98 28.6854 291.999 28.609 292.018 28.5325C292.045 28.4261 292.072 28.3196 292.099 28.2132C292.107 28.1815 292.114 28.1499 292.123 28.1172C292.178 27.8993 292.178 27.8993 292.229 27.7971C294.347 27.7971 296.465 27.7971 298.647 27.7971C298.39 27.0709 298.133 26.3447 297.868 25.5965C297.608 24.8474 297.608 24.8474 297.482 24.4789C297.195 23.6425 296.904 22.8077 296.607 21.9746C296.328 21.1891 296.053 20.4019 295.782 19.6135C295.428 18.5858 295.068 17.5606 294.703 16.5364C294.541 16.0802 294.381 15.6234 294.22 15.1665C294.207 15.1296 294.194 15.0927 294.181 15.0546C294.111 14.855 294.041 14.6554 293.971 14.4558C293.755 15.0216 293.553 15.5921 293.353 16.1638C293.032 17.0811 292.707 17.997 292.378 18.9115C292.117 19.6362 291.859 20.3616 291.607 21.0892C291.28 22.0332 290.941 22.9732 290.602 23.913C290.403 24.4633 290.206 25.0141 290.008 25.565C289.972 25.6667 289.935 25.7684 289.899 25.8702C289.826 26.0743 289.753 26.2784 289.679 26.4825C289.516 26.9389 289.352 27.3953 289.189 27.8517C289.098 28.1047 289.007 28.3578 288.917 28.6109C288.88 28.7121 288.844 28.8133 288.808 28.9146C288.781 28.9898 288.781 28.9898 288.753 29.0665C287.419 32.7872 287.419 32.7872 286.085 36.5079C284.542 36.5079 282.999 36.5079 281.409 36.5079C281.512 36.0437 281.512 36.0437 281.577 35.8661C281.591 35.8257 281.606 35.7852 281.621 35.7436C281.644 35.6793 281.644 35.6793 281.668 35.6137C281.693 35.5442 281.693 35.5442 281.719 35.4733C281.774 35.3205 281.829 35.1677 281.885 35.015C281.924 34.9065 281.963 34.798 282.002 34.6895C282.074 34.4912 282.145 34.2929 282.217 34.0946C282.404 33.5774 282.589 33.0594 282.773 32.5414C282.869 32.2728 282.965 32.0042 283.061 31.7356C283.08 31.6825 283.099 31.6294 283.119 31.5747C283.338 30.9605 283.558 30.3466 283.778 29.7326C284.059 28.9502 284.339 28.1674 284.618 27.3845C284.916 26.5514 285.214 25.7185 285.512 24.8859C285.81 24.0561 286.107 23.2261 286.404 22.3958C286.423 22.3427 286.442 22.2895 286.461 22.2348C286.596 21.8577 286.73 21.4806 286.865 21.1035C287.019 20.6728 287.172 20.242 287.326 19.8112C287.345 19.7581 287.364 19.7049 287.384 19.6502C287.679 18.8234 287.975 17.997 288.271 17.1707C288.552 16.3883 288.832 15.6055 289.111 14.8226C289.499 13.736 289.888 12.6497 290.278 11.5637C290.391 11.2474 290.505 10.9311 290.618 10.6147C290.695 10.3993 290.772 10.184 290.85 9.96874C290.886 9.86608 290.923 9.7634 290.96 9.6607C291.01 9.5195 291.061 9.37837 291.112 9.23724C291.127 9.19506 291.142 9.15288 291.157 9.10942C291.178 9.0522 291.178 9.0522 291.199 8.99382C291.211 8.96053 291.223 8.92724 291.235 8.89294C291.278 8.78828 291.286 8.77257 291.401 8.76526Z" fill="black"/>
<path d="M106.021 8.43277C106.074 8.43297 106.127 8.43317 106.182 8.43337C106.954 8.43675 107.714 8.45602 108.477 8.5875C108.55 8.59967 108.55 8.59967 108.625 8.61208C110.98 9.00857 113.215 9.92134 115.079 11.43C115.103 11.4499 115.128 11.4698 115.154 11.4904C115.813 12.0269 116.447 12.6296 116.958 13.3097C116.981 13.3387 117.004 13.3678 117.027 13.3977C117.621 14.1601 118.105 14.9788 118.526 15.8484C118.556 15.9117 118.556 15.9117 118.588 15.9762C118.68 16.1728 118.757 16.3646 118.818 16.573C118.831 16.6143 118.843 16.6557 118.856 16.6983C118.865 16.7299 118.874 16.7614 118.884 16.794C118.175 16.8144 117.467 16.8297 116.758 16.8391C116.429 16.8436 116.1 16.8497 115.771 16.8597C115.484 16.8684 115.197 16.874 114.91 16.8759C114.758 16.8771 114.606 16.8802 114.455 16.8861C113.53 16.9206 113.53 16.9206 113.284 16.7098C113.118 16.5031 113.017 16.2768 112.924 16.0307C112.854 15.8656 112.755 15.7254 112.649 15.5819C112.629 15.5549 112.609 15.5279 112.589 15.5001C112.385 15.2247 112.153 14.9773 111.915 14.7309C111.88 14.6924 111.845 14.6538 111.809 14.6141C110.378 13.0916 108.184 12.5585 106.173 12.4785C104.616 12.45 103.046 12.7619 101.646 13.4472C101.612 13.4635 101.579 13.4797 101.545 13.4965C100.041 14.2373 98.7963 15.4327 97.9786 16.8945C97.9332 16.9755 97.8866 17.0558 97.8399 17.136C96.3605 19.7337 96.2605 23.172 97.0152 26.0091C97.4133 27.4411 98.1179 28.7606 99.1263 29.8537C99.1988 29.9332 99.2667 30.0136 99.3333 30.098C100.632 31.5964 102.758 32.4108 104.672 32.6568C104.719 32.6633 104.719 32.6633 104.767 32.6699C105.165 32.7175 105.566 32.7138 105.967 32.7141C106.025 32.7141 106.025 32.7141 106.084 32.7142C106.693 32.7134 107.283 32.6872 107.881 32.5651C107.921 32.557 107.962 32.5489 108.004 32.5405C108.547 32.4287 109.067 32.2796 109.577 32.0608C109.609 32.0471 109.641 32.0335 109.674 32.0194C111.102 31.3982 112.189 30.4048 112.996 29.0817C113.013 29.0544 113.03 29.0271 113.048 28.999C113.11 28.8969 113.11 28.8969 113.159 28.7809C113.313 28.4644 113.313 28.4644 113.495 28.3974C113.638 28.3823 113.775 28.3822 113.919 28.3869C113.999 28.3868 113.999 28.3868 114.081 28.3867C114.259 28.387 114.436 28.3906 114.613 28.3941C114.736 28.395 114.859 28.3957 114.982 28.3961C115.272 28.3975 115.562 28.4013 115.852 28.4059C116.183 28.411 116.514 28.4135 116.844 28.4158C117.524 28.4206 118.204 28.4287 118.884 28.4389C118.862 28.5052 118.84 28.5716 118.818 28.6379C118.8 28.6933 118.8 28.6933 118.781 28.7498C118.326 30.0891 117.471 31.3744 116.514 32.4048C116.42 32.5062 116.329 32.6093 116.239 32.7141C115.611 33.435 114.831 34.0284 114.024 34.5365C113.997 34.5538 113.969 34.5711 113.941 34.5889C112.033 35.7838 109.928 36.4402 107.697 36.6912C107.657 36.696 107.616 36.7008 107.574 36.7058C106.287 36.8362 104.892 36.8118 103.617 36.5996C103.562 36.5904 103.507 36.5813 103.45 36.572C101.028 36.1561 98.7214 35.1582 96.8319 33.5737C96.7978 33.5458 96.7978 33.5458 96.7631 33.5173C96.1155 32.9855 95.5127 32.4021 94.998 31.7398C94.9562 31.6893 94.9142 31.6388 94.8721 31.5885C93.1178 29.4761 92.1083 26.7599 91.8805 24.0377C91.8754 23.9843 91.8703 23.931 91.8651 23.876C91.5628 20.1145 92.5848 16.3041 95.0353 13.3985C95.1139 13.3072 95.1934 13.2167 95.2731 13.1263C95.3056 13.0886 95.3382 13.051 95.3718 13.0122C95.8319 12.4887 96.325 11.9929 96.8777 11.5675C96.9367 11.521 96.9957 11.4744 97.0546 11.4278C98.7936 10.0644 100.847 9.12011 103.015 8.69066C103.058 8.6821 103.101 8.67355 103.144 8.66473C104.098 8.48744 105.052 8.42584 106.021 8.43277Z" fill="black"/>
<path d="M198.764 8.44062C198.812 8.44036 198.861 8.4401 198.91 8.43983C199.013 8.4394 199.115 8.43909 199.217 8.43892C199.37 8.43848 199.522 8.43705 199.674 8.4356C201.368 8.42723 203.173 8.71237 204.669 9.54901C204.759 9.5993 204.85 9.64777 204.941 9.6962C205.333 9.90686 205.691 10.1406 206.037 10.4213C206.062 10.4413 206.086 10.4613 206.112 10.4819C207.687 11.7678 208.59 13.4996 208.868 15.5054C208.882 15.6746 208.88 15.8448 208.88 16.0146C207.215 16.0146 205.551 16.0146 203.836 16.0146C203.791 15.8179 203.746 15.6212 203.699 15.4186C203.395 14.3913 202.733 13.5535 201.791 13.0331C200.431 12.3084 198.767 12.1745 197.285 12.5775C196.667 12.7661 196.112 13.0606 195.63 13.493C195.601 13.5172 195.573 13.5415 195.544 13.5664C194.871 14.1788 194.624 15.1233 194.581 16.0002C194.549 16.8711 194.797 17.6009 195.361 18.2639C196.632 19.6211 198.707 20.0391 200.429 20.519C206.788 22.2925 206.788 22.2925 208.375 24.9546C208.81 25.7356 209.04 26.5477 209.155 27.4303C209.159 27.4641 209.163 27.4979 209.168 27.5328C209.403 29.5805 208.914 31.6897 207.627 33.3232C207.442 33.5524 207.248 33.7723 207.046 33.9863C207.009 34.0257 206.973 34.0651 206.935 34.1057C205.581 35.5214 203.679 36.327 201.773 36.6454C201.707 36.6566 201.707 36.6566 201.64 36.6681C198.7 37.1463 195.324 36.6368 192.873 34.879C192.638 34.7053 192.42 34.5193 192.207 34.3176C192.111 34.2265 192.013 34.1422 191.911 34.0579C191.684 33.8604 191.504 33.6268 191.32 33.3903C191.269 33.3265 191.269 33.3265 191.217 33.2613C190.477 32.3146 190.036 31.1906 189.859 30.0063C189.854 29.9702 189.848 29.9342 189.842 29.8971C189.794 29.5279 189.807 29.187 189.807 28.8057C191.426 28.8057 193.045 28.8057 194.713 28.8057C194.774 29.1082 194.834 29.4108 194.896 29.7226C195.094 30.3595 195.366 30.9202 195.813 31.4189C195.851 31.4604 195.888 31.502 195.926 31.5448C196.842 32.5126 198.125 32.8518 199.423 32.8946C200.821 32.9221 202.334 32.6469 203.391 31.6652C204.159 30.9114 204.527 29.977 204.538 28.9059C204.535 27.9246 204.235 27.1524 203.553 26.4388C203.288 26.183 203.004 25.9713 202.69 25.7798C202.663 25.7632 202.636 25.7465 202.608 25.7294C201.311 24.9473 199.715 24.6362 198.268 24.2395C193.955 23.0568 193.955 23.0568 192.65 22.0663C192.612 22.0378 192.574 22.0093 192.535 21.9799C191.033 20.815 190.16 19.3396 189.918 17.4466C189.88 17.0899 189.883 16.7311 189.885 16.3727C189.885 16.3333 189.885 16.2938 189.885 16.2532C189.887 15.6754 189.9 15.1117 190.037 14.5475C190.046 14.5089 190.055 14.4704 190.064 14.4307C190.52 12.564 191.687 10.9349 193.331 9.92937C194.963 8.9597 196.865 8.44885 198.764 8.44062Z" fill="black"/>
<path d="M262.153 8.77087C267.131 8.77087 272.108 8.77087 277.237 8.77087C277.237 9.99634 277.237 11.2218 277.237 12.4844C273.545 12.4844 269.854 12.4844 266.05 12.4844C266.05 19.1715 266.05 25.8587 266.05 32.7485C269.742 32.7485 273.433 32.7485 277.237 32.7485C277.237 33.9891 277.237 35.2297 277.237 36.5078C272.259 36.5078 267.282 36.5078 262.153 36.5078C262.153 27.3546 262.153 18.2014 262.153 8.77087Z" fill="black"/>
<path d="M213.098 8.77087C219.482 8.77087 225.867 8.77087 232.445 8.77087C232.445 10.0115 232.445 11.2521 232.445 12.5303C230.024 12.5303 227.603 12.5303 225.109 12.5303C225.109 20.4429 225.109 28.3555 225.109 36.5078C223.596 36.5078 222.084 36.5078 220.525 36.5078C220.525 28.5952 220.525 20.6826 220.525 12.5303C218.074 12.5303 215.623 12.5303 213.098 12.5303C213.098 11.2897 213.098 10.0491 213.098 8.77087Z" fill="black"/>
<path d="M268.251 20.5533C271.216 20.5533 274.182 20.5533 277.237 20.5533C277.237 21.7939 277.237 23.0345 277.237 24.3127C274.272 24.3127 271.306 24.3127 268.251 24.3127C268.251 23.0721 268.251 21.8315 268.251 20.5533Z" fill="black"/>
</svg>
