<svg width="338" height="47" viewBox="0 0 338 47" fill="none" xmlns="http://www.w3.org/2000/svg"><path d="M40.8533 0.890473C40.8924 0.890243 40.9316 0.890013 40.9719 0.889776C41.0975 0.889205 41.2232 0.888994 41.3488 0.888945C41.381 0.888931 41.381 0.888931 41.4138 0.888916C42.0895 0.888867 42.7551 0.899843 43.4251 0.994901C43.4481 0.998144 43.471 1.00139 43.4946 1.00473C46.3687 1.41466 49.0868 2.52168 51.4125 4.38548C51.4605 4.42388 51.4605 4.42388 51.5095 4.46304C51.682 4.60255 51.8493 4.74647 52.013 4.89616C52.0576 4.9365 52.1024 4.97669 52.1483 5.01546C52.3667 5.20093 52.567 5.40461 52.7691 5.60736C52.8326 5.67107 52.8963 5.7346 52.9601 5.79812C53.1575 5.99544 53.3523 6.19267 53.5317 6.40679C53.5592 6.43823 53.5868 6.46966 53.6152 6.50205C55.7409 8.96842 57.0412 12.0965 57.4439 16.4807C57.4446 16.5139 57.4453 16.547 57.446 16.5811C57.4942 19.2731 56.883 21.8664 55.6834 24.2726C55.6696 24.3002 55.6558 24.3279 55.6416 24.3564C55.3252 24.9871 54.9547 25.591 54.5423 26.1635C54.5242 26.1887 54.506 26.2139 54.4873 26.2399C54.2645 26.5479 54.0388 26.8518 53.7925 27.1415C53.7778 27.1589 53.7631 27.1763 53.748 27.1943C53.6991 27.2522 53.6501 27.31 53.6009 27.3677C53.5864 27.3848 53.5719 27.4019 53.5569 27.4196C53.2715 27.7525 52.9692 28.0687 52.6592 28.3786C52.6024 28.4355 52.5458 28.4927 52.4893 28.5498C52.2943 28.7458 52.0971 28.9305 51.8799 29.102C51.8068 29.1604 51.7379 29.2215 51.6693 29.2851C51.4437 29.4874 51.1988 29.6664 50.9561 29.8475C50.9322 29.8654 50.9082 29.8832 50.8836 29.9017C48.5258 31.655 45.6911 32.6799 42.7731 32.9446C42.7417 32.9478 42.7103 32.9509 42.678 32.9541C41.5873 33.049 40.4346 33.0327 39.3499 32.8794C39.3269 32.8762 39.3039 32.8729 39.2803 32.8696C36.0706 32.4121 33.189 31.076 30.3774 28.6343C30.3175 28.5743 30.2552 28.5191 30.1908 28.4639C29.9777 28.28 29.783 28.0795 29.5999 27.8659C29.5372 27.7941 29.4729 27.724 29.408 27.6542C29.2252 27.4571 29.0517 27.2545 28.8847 27.0437C28.8683 27.0231 28.8519 27.0026 28.835 26.9814C28.2408 26.2353 27.7143 25.4483 27.2623 24.6081C27.2351 24.5576 27.2077 24.5073 27.1801 24.4572C26.7407 23.6588 26.4051 22.8197 26.1136 21.9578C26.1015 21.9244 26.0895 21.8911 26.0771 21.8567C26.0484 21.7622 26.0484 21.7622 26.0484 21.6318C27.0864 21.6236 28.1244 21.6173 29.1625 21.6135C29.2851 21.6131 29.4076 21.6126 29.5302 21.6121C29.5668 21.612 29.5668 21.612 29.6042 21.6118C29.9992 21.6103 30.3942 21.6074 30.7892 21.6042C31.1946 21.6008 31.6 21.5988 32.0054 21.5981C32.2555 21.5976 32.5056 21.596 32.7557 21.5931C32.9475 21.591 33.1394 21.5908 33.3312 21.5913C33.4099 21.5912 33.4885 21.5904 33.5672 21.5891C34.1622 21.5792 34.1622 21.5792 34.3343 21.7101C34.4019 21.8015 34.4477 21.8862 34.4922 21.9904C34.5199 22.0323 34.5487 22.0736 34.5787 22.1138C34.6033 22.1491 34.6279 22.1844 34.6532 22.2207C34.7927 22.4181 34.9467 22.5961 35.1117 22.7729C35.1464 22.8135 35.1811 22.8543 35.2156 22.8951C35.5004 23.2209 35.813 23.5185 36.1549 23.7835C36.1861 23.8088 36.2174 23.8341 36.2495 23.8601C38.0502 25.2929 40.3767 25.8652 42.6427 25.6092C44.3128 25.3979 45.9148 24.6695 47.1743 23.5553C47.2157 23.5193 47.2157 23.5193 47.258 23.4826C47.6076 23.1745 47.9314 22.8476 48.2176 22.4795C48.2433 22.4474 48.2689 22.4154 48.2954 22.3824C48.9775 21.5249 49.4748 20.5304 49.7825 19.4801C49.7896 19.4556 49.7968 19.4312 49.8042 19.4059C50.4256 17.23 50.1106 14.8491 49.0194 12.877C48.6944 12.3115 48.3068 11.7942 47.8672 11.3126C47.8174 11.2579 47.7681 11.2027 47.7193 11.147C47.5688 10.9761 47.414 10.8235 47.2395 10.6776C47.2095 10.6512 47.1794 10.6248 47.1485 10.5976C45.9712 9.56817 44.4818 8.86606 42.9361 8.62371C42.9039 8.61852 42.8716 8.61332 42.8384 8.60797C41.9449 8.46967 41.0242 8.47994 40.1323 8.62371C40.1011 8.62862 40.0698 8.63352 40.0376 8.63857C38.8566 8.83195 37.6898 9.30902 36.7092 9.99299C36.67 10.0202 36.67 10.0202 36.63 10.048C36.322 10.2641 36.0305 10.4902 35.7592 10.7511C35.6717 10.8351 35.5819 10.9155 35.4907 10.9955C35.352 11.1201 35.2311 11.252 35.1117 11.3949C35.0853 11.4249 35.0589 11.455 35.0317 11.4859C34.8224 11.7254 34.6351 11.9766 34.4539 12.2379C34.4395 12.2584 34.425 12.2789 34.4101 12.3C34.3607 12.372 34.3607 12.372 34.3219 12.449C34.2106 12.6498 34.2106 12.6498 34.0942 12.6932C34.0048 12.7034 33.9195 12.7041 33.8296 12.7016C33.7957 12.7019 33.7619 12.7021 33.727 12.7024C33.6136 12.7029 33.5003 12.7012 33.3868 12.6996C33.3056 12.6996 33.2243 12.6996 33.143 12.6998C32.968 12.6998 32.793 12.699 32.618 12.6974C32.365 12.695 32.112 12.6942 31.859 12.6938C31.4484 12.6932 31.0379 12.6912 30.6274 12.6885C30.2287 12.6858 29.83 12.6837 29.4313 12.6825C29.4067 12.6824 29.3821 12.6823 29.3568 12.6822C29.2334 12.6818 29.1101 12.6815 28.9867 12.6811C27.9638 12.6781 26.9409 12.6729 25.918 12.6663C25.928 12.6147 25.9381 12.5631 25.9483 12.5115C25.9539 12.4827 25.9595 12.454 25.9653 12.4244C25.99 12.3082 26.0241 12.1965 26.0614 12.0838C26.0726 12.0492 26.0726 12.0492 26.0842 12.0138C26.1086 11.9392 26.1335 11.8646 26.1584 11.7902C26.167 11.7644 26.1756 11.7386 26.1845 11.7121C26.3516 11.2135 26.5458 10.7317 26.7656 10.2538C26.7896 10.2013 26.7896 10.2013 26.814 10.1478C27.2637 9.16843 27.8144 8.24696 28.4609 7.38485C28.4759 7.3649 28.4908 7.34494 28.5062 7.32439C28.7582 6.98999 29.0232 6.66698 29.2963 6.34974C29.3221 6.31971 29.3221 6.31971 29.3483 6.28907C29.4549 6.16606 29.5662 6.04983 29.682 5.93553C29.7385 5.87899 29.791 5.82004 29.8424 5.75883C30.0266 5.54579 30.2268 5.35081 30.4407 5.1678C30.5157 5.10199 30.5883 5.034 30.6609 4.96561C30.859 4.77951 31.0641 4.60782 31.2797 4.44241C31.354 4.38532 31.4267 4.32696 31.4982 4.26641C31.7759 4.03318 32.0717 3.8304 32.3731 3.62953C32.3936 3.61585 32.4141 3.60217 32.4352 3.58807C34.8949 1.94863 37.8756 0.902242 40.8533 0.890473Z" fill="black"/>
<path d="M24.3693 3.72646C24.4179 3.84685 26.4456 4.97576 26.3068 5.13331C26.0966 5.37312 25.9017 5.62236 25.711 5.87784C25.6563 5.95108 25.6011 6.02397 25.5459 6.09685C25.1347 6.64319 24.7594 7.21628 24.4179 7.8087C24.3939 7.85007 24.3939 7.85007 24.3693 7.89227C23.8686 8.75494 23.4572 9.64508 23.0913 10.5719C23.037 10.7066 22.9786 10.8389 22.9183 10.9711C22.8967 10.9711 22.8752 10.9711 22.8531 10.9711C22.8131 10.9292 22.8131 10.9292 22.7675 10.8712C22.6778 10.7635 22.5829 10.6724 22.476 10.5819C22.4159 10.531 22.3568 10.4794 22.2979 10.427C21.8669 10.0459 21.3985 9.72032 20.897 9.43879C20.8735 9.4256 20.8501 9.41241 20.8259 9.39882C20.438 9.18263 20.042 9.00533 19.6255 8.85196C19.6017 8.84306 19.5779 8.83416 19.5534 8.82499C18.2171 8.3308 16.6591 8.18978 15.2568 8.46074C15.2281 8.46581 15.1993 8.47088 15.1697 8.47611C13.8547 8.70994 12.5925 9.26968 11.5402 10.0908C11.511 10.1131 11.4818 10.1355 11.4517 10.1584C10.8892 10.5966 10.363 11.1119 9.94276 11.6883C9.91908 11.7204 9.91908 11.7204 9.89492 11.7531C9.34104 12.5059 8.89051 13.3386 8.60609 14.2312C8.59762 14.2578 8.58915 14.2843 8.58043 14.3116C7.89489 16.5147 8.16815 18.8983 9.23585 20.9311C9.55066 21.5109 9.95037 22.0473 10.395 22.5333C10.4539 22.5983 10.5101 22.6647 10.5663 22.7322C11.1642 23.4138 11.9476 23.9513 12.7465 24.3704C12.773 24.3844 12.7996 24.3984 12.8269 24.4128C14.8135 25.4467 17.1738 25.6226 19.3062 24.9556C19.8004 24.7935 20.2755 24.5826 20.7339 24.3378C20.755 24.3267 20.7761 24.3157 20.7978 24.3043C21.3233 24.0264 21.8031 23.6804 22.2523 23.2918C22.2728 23.2741 22.2933 23.2564 22.3144 23.2381C22.3548 23.2031 22.395 23.168 22.4351 23.1327C22.4536 23.1166 22.4721 23.1005 22.4911 23.0839C22.5075 23.0695 22.5239 23.0551 22.5407 23.0403C22.5982 22.9966 22.6573 22.9664 22.7227 22.9359C22.7326 22.9651 22.7426 22.9942 22.7529 23.0242C23.0691 23.9456 23.4285 24.8343 23.8637 25.7071C23.8817 25.7431 23.8996 25.7791 23.9181 25.8163C24.525 27.0271 25.2718 28.1647 26.1407 29.2041C26.1576 29.2244 26.1745 29.2446 26.1919 29.2655C26.2277 29.3072 26.2643 29.3483 26.3015 29.3889C26.3197 29.4089 26.3379 29.429 26.3567 29.4497C26.3734 29.4674 26.39 29.4852 26.4071 29.5035C26.4177 29.5202 26.4283 29.5369 26.4393 29.5541C26.4036 29.6612 26.3861 29.6764 26.2989 29.7407C26.2756 29.7579 26.2523 29.7752 26.2283 29.793C26.2024 29.8116 26.1766 29.8303 26.1499 29.8495C26.1228 29.8693 26.0957 29.889 26.0677 29.9094C25.2616 30.4903 24.4249 30.9971 23.5377 31.445C23.5071 31.4605 23.4765 31.4759 23.445 31.4919C22.9554 31.7376 22.4556 31.9446 21.9402 32.1296C21.9019 32.1434 21.8636 32.1571 21.8242 32.1713C20.6687 32.5812 19.4767 32.8525 18.2582 32.9875C18.2223 32.9915 18.2223 32.9915 18.1857 32.9955C17.6197 33.0572 17.0568 33.0819 16.4876 33.0812C16.4577 33.0812 16.4279 33.0812 16.3971 33.0811C13.4798 33.0759 10.6083 32.2808 8.11706 30.7604C8.09225 30.7454 8.06745 30.7305 8.04189 30.7151C7.15559 30.1807 6.33669 29.5349 5.57412 28.8369C5.54993 28.8149 5.54993 28.8149 5.52525 28.7924C5.19922 28.4961 4.87392 28.1961 4.58817 27.8599C4.51937 27.7803 4.44764 27.7036 4.37601 27.6265C4.20557 27.4394 4.05013 27.2428 3.89578 27.0424C3.84381 26.9754 3.79104 26.9092 3.73811 26.8431C3.0751 26.0105 2.52806 25.0932 2.05313 24.1422C2.03802 24.1122 2.0229 24.0823 2.00733 24.0514C0.703063 21.4533 0.212934 18.4796 1.16053 12.0827C1.90031 9.85301 3.0915 7.63712 4.79104 5.98351C4.85561 5.91906 4.91557 5.85244 4.97507 5.78331C5.13616 5.5963 5.3104 5.42907 5.49733 5.26818C5.57464 5.2001 5.65003 5.13032 5.7253 5.06C5.92915 4.86975 6.13765 4.68886 6.35656 4.51592C6.3884 4.49058 6.3884 4.49058 6.42088 4.46472C6.75964 4.19543 7.10442 3.94009 7.46502 3.70088C7.48612 3.68674 7.50721 3.67261 7.52894 3.65805C11.2616 1.51917 18.7979 0.541466 24.3693 3.72646Z" fill="black"/>
<path d="M18.4938 14.6404C18.9549 15.0291 19.3113 15.4907 19.5279 16.0569C19.5279 16.0784 19.5279 16.0999 19.5279 16.1221C25.7033 16.1221 31.8787 16.1221 38.2413 16.1221C38.2897 15.9769 38.2897 15.9769 38.3391 15.8287C38.681 15.0693 39.3616 14.4423 40.1342 14.1397C40.5389 13.9952 40.9329 13.9254 41.3629 13.9276C41.4189 13.9279 41.4189 13.9279 41.476 13.9282C42.3682 13.9409 43.1369 14.3142 43.7755 14.926C44.3921 15.5659 44.7113 16.4244 44.7063 17.3088C44.6819 18.2849 44.2687 19.0991 43.5712 19.7698C42.9512 20.3409 42.0784 20.6086 41.2469 20.5878C40.3222 20.5453 39.5117 20.1477 38.8697 19.4863C38.635 19.2186 38.3937 18.8836 38.3065 18.5346C32.0881 18.5346 25.8696 18.5346 19.4627 18.5346C19.4304 18.6315 19.4304 18.6315 19.3975 18.7302C19.0218 19.5085 18.349 20.1048 17.5361 20.3963C16.7127 20.6753 15.7917 20.6599 14.9994 20.2875C14.6978 20.1384 14.4273 19.9726 14.1812 19.7409C14.1656 19.7267 14.1499 19.7125 14.1338 19.6979C13.4758 19.0994 13.1179 18.2885 13.0655 17.401C13.0453 16.5213 13.3214 15.6677 13.9204 15.0136C13.9455 14.9859 13.9707 14.9581 13.9965 14.9295C15.1608 13.703 17.1819 13.58 18.4938 14.6404Z" fill="black"/>
<path d="M221.677 7.12598C222.839 7.12598 224.001 7.12598 225.198 7.12598C225.359 7.38418 225.359 7.38418 225.524 7.6476C225.606 7.77749 225.689 7.90725 225.772 8.03679C225.818 8.10738 225.863 8.17798 225.908 8.24857C225.931 8.28404 225.954 8.3195 225.977 8.35604C226.087 8.52734 226.197 8.69876 226.306 8.87017C226.349 8.93775 226.393 9.00533 226.436 9.07291C226.525 9.21213 226.614 9.35137 226.703 9.49062C226.987 9.93393 226.987 9.93393 227.272 10.376C227.424 10.6099 227.574 10.845 227.723 11.0803C227.934 11.4126 228.147 11.7442 228.359 12.0758C228.446 12.2122 228.534 12.3487 228.621 12.4852C228.664 12.5528 228.708 12.6204 228.751 12.6881C228.862 12.8611 228.972 13.0341 229.083 13.2072C229.367 13.6505 229.367 13.6505 229.652 14.0926C229.804 14.3265 229.954 14.5616 230.103 14.7969C230.314 15.1292 230.527 15.4608 230.739 15.7924C230.826 15.9289 230.914 16.0653 231.001 16.2018C231.044 16.2693 231.087 16.3367 231.131 16.4041C231.231 16.5617 231.332 16.7193 231.433 16.8771C231.468 16.9326 231.504 16.9881 231.539 17.0436C231.584 17.113 231.628 17.1824 231.672 17.2518C231.782 17.4238 231.894 17.5942 232.01 17.762C232.044 17.8194 232.044 17.8194 232.044 17.8846C232.066 17.8846 232.087 17.8846 232.109 17.8846C232.118 17.8611 232.127 17.8377 232.135 17.8136C232.176 17.719 232.223 17.6388 232.279 17.5526C232.3 17.52 232.321 17.4874 232.343 17.4539C232.376 17.4018 232.376 17.4018 232.411 17.3487C232.435 17.3121 232.458 17.2755 232.482 17.2389C232.53 17.1641 232.578 17.0894 232.626 17.0147C232.728 16.8575 232.828 16.6997 232.928 16.5418C232.966 16.4828 233.003 16.4238 233.041 16.3648C233.078 16.3063 233.115 16.2478 233.153 16.1893C233.413 15.7794 233.674 15.3699 233.936 14.961C234.154 14.621 234.371 14.2804 234.587 13.9397C234.848 13.5299 235.109 13.1204 235.371 12.7114C235.588 12.3715 235.805 12.0309 236.022 11.6902C236.282 11.2803 236.543 10.8707 236.805 10.4617C236.946 10.2411 237.087 10.0203 237.228 9.79932C237.39 9.54364 237.553 9.28831 237.717 9.03318C237.919 8.71808 238.12 8.40262 238.321 8.08684C238.401 7.96001 238.482 7.83326 238.563 7.70657C238.584 7.67352 238.605 7.64048 238.627 7.60643C238.667 7.54275 238.708 7.47907 238.749 7.41542C238.767 7.38698 238.785 7.35853 238.804 7.32923C238.82 7.30409 238.836 7.27894 238.852 7.25304C238.891 7.1917 238.891 7.1917 238.923 7.12598C240.085 7.12598 241.247 7.12598 242.444 7.12598C242.444 13.6349 242.444 20.1439 242.444 26.85C241.357 26.85 240.271 26.85 239.151 26.85C239.141 22.4498 239.13 18.0495 239.119 13.5159C238.914 13.8172 238.71 14.1184 238.499 14.4288C238.292 14.7338 238.085 15.0388 237.877 15.3437C237.612 15.7341 237.346 16.1246 237.081 16.5153C236.771 16.9726 236.46 17.4297 236.149 17.8866C235.884 18.277 235.618 18.6675 235.353 19.0582C235.043 19.5156 234.732 19.9726 234.421 20.4296C234.376 20.4965 234.33 20.5634 234.285 20.6303C234.239 20.6971 234.194 20.764 234.148 20.8308C234.035 20.997 233.922 21.1632 233.81 21.3297C233.753 21.4134 233.697 21.4971 233.64 21.5808C233.613 21.6211 233.586 21.6615 233.558 21.7018C233.52 21.7581 233.482 21.8144 233.444 21.8706C233.423 21.9028 233.401 21.935 233.378 21.9682C233.358 21.9977 233.337 22.0272 233.316 22.0576C233.297 22.0858 233.279 22.1141 233.26 22.1432C233.161 22.2454 233.108 22.2422 232.968 22.2448C232.946 22.2454 232.925 22.246 232.903 22.2466C232.832 22.2483 232.761 22.2488 232.69 22.2491C232.64 22.2497 232.59 22.2504 232.541 22.251C232.437 22.2521 232.333 22.2526 232.229 22.2526C232.096 22.2528 231.963 22.2553 231.83 22.2585C231.728 22.2606 231.625 22.261 231.523 22.261C231.474 22.2612 231.425 22.2621 231.376 22.2635C230.995 22.2737 230.995 22.2737 230.85 22.1439C230.783 22.0527 230.728 21.9615 230.675 21.862C230.637 21.806 230.599 21.7504 230.56 21.6953C230.521 21.6388 230.483 21.5823 230.445 21.5258C230.402 21.4629 230.359 21.3999 230.316 21.337C230.284 21.2893 230.284 21.2893 230.251 21.2406C230.147 21.0869 230.042 20.9335 229.937 20.78C229.917 20.7502 229.897 20.7204 229.876 20.6897C229.728 20.4737 229.581 20.2579 229.433 20.0422C229.277 19.8143 229.122 19.5861 228.966 19.3579C228.835 19.1655 228.704 18.9732 228.572 18.7811C228.399 18.528 228.226 18.2747 228.053 18.0212C227.922 17.8288 227.791 17.6366 227.659 17.4444C227.486 17.1914 227.313 16.938 227.14 16.6845C227.009 16.4921 226.878 16.2999 226.746 16.1078C226.491 15.7353 226.237 15.3622 225.983 14.9891C225.841 14.7806 225.699 14.5721 225.556 14.3636C225.537 14.3345 225.517 14.3055 225.496 14.2756C225.439 14.1915 225.382 14.1074 225.324 14.0233C225.307 13.9984 225.29 13.9736 225.273 13.9479C225.257 13.9244 225.241 13.9009 225.224 13.8767C225.21 13.8565 225.196 13.8363 225.182 13.8155C225.112 13.715 225.041 13.6156 224.97 13.5159C224.959 17.9162 224.948 22.3164 224.937 26.85C223.861 26.85 222.785 26.85 221.677 26.85C221.677 20.3411 221.677 13.8322 221.677 7.12598Z" fill="black"/>
<path d="M111.157 7.12598C112.319 7.12598 113.481 7.12598 114.678 7.12598C114.797 7.31963 114.915 7.51329 115.037 7.71281C115.104 7.81722 115.17 7.92118 115.239 8.02456C115.274 8.07948 115.31 8.13441 115.346 8.18935C115.365 8.21771 115.383 8.24607 115.402 8.27528C115.508 8.43703 115.611 8.59961 115.715 8.76218C115.737 8.79641 115.759 8.83064 115.782 8.86591C115.826 8.93573 115.871 9.00555 115.916 9.07538C116.025 9.24612 116.134 9.41676 116.243 9.58741C116.287 9.65533 116.33 9.72325 116.374 9.79117C116.406 9.8416 116.406 9.8416 116.439 9.89305C117.678 11.8288 117.678 11.8288 117.743 11.9307C117.786 11.9984 117.829 12.0661 117.873 12.1338C117.984 12.3069 118.094 12.4799 118.205 12.653C118.488 13.0963 118.488 13.0963 118.774 13.5383C118.926 13.7722 119.075 14.0074 119.225 14.2427C119.436 14.575 119.648 14.9066 119.861 15.2382C119.948 15.3746 120.036 15.5111 120.123 15.6475C120.166 15.7152 120.209 15.7828 120.253 15.8504C120.363 16.0235 120.474 16.1965 120.585 16.3696C120.779 16.6739 120.974 16.9781 121.17 17.2814C121.184 17.3036 121.199 17.3258 121.213 17.3487C121.305 17.49 121.398 17.63 121.494 17.7683C121.525 17.8194 121.525 17.8194 121.525 17.8846C121.546 17.8846 121.568 17.8846 121.59 17.8846C121.597 17.8632 121.604 17.8419 121.612 17.8199C121.669 17.6887 121.745 17.5729 121.822 17.4526C121.839 17.4258 121.856 17.399 121.874 17.3714C121.931 17.2816 121.989 17.1918 122.046 17.1021C122.088 17.0365 122.13 16.971 122.172 16.9054C122.26 16.7674 122.349 16.6295 122.437 16.4916C122.558 16.3021 122.679 16.1123 122.8 15.9223C122.828 15.8784 122.828 15.8784 122.857 15.8336C122.912 15.7457 122.968 15.6578 123.024 15.5698C123.285 15.16 123.546 14.7505 123.808 14.3415C124.025 14.0016 124.242 13.661 124.459 13.3203C124.719 12.9105 124.98 12.501 125.242 12.092C125.46 11.752 125.677 11.4115 125.893 11.0708C126.154 10.6609 126.415 10.2513 126.677 9.84226C126.818 9.6217 126.959 9.40091 127.099 9.17989C127.262 8.9242 127.425 8.66888 127.589 8.41375C127.761 8.14496 127.933 7.87605 128.104 7.60685C128.123 7.57716 128.142 7.54747 128.161 7.51688C128.179 7.48925 128.197 7.46162 128.215 7.43315C128.23 7.40914 128.245 7.38513 128.261 7.3604C128.31 7.28289 128.357 7.20439 128.404 7.12598C129.555 7.12598 130.706 7.12598 131.892 7.12598C131.892 13.6349 131.892 20.1439 131.892 26.85C130.816 26.85 129.74 26.85 128.632 26.85C128.621 22.4498 128.61 18.0495 128.599 13.5159C128.252 14.0229 128.252 14.0229 127.906 14.5307C127.859 14.6005 127.811 14.6703 127.764 14.7401C127.74 14.775 127.717 14.8099 127.692 14.8458C127.623 14.9477 127.554 15.0496 127.484 15.1515C127.242 15.5081 126.999 15.8649 126.757 16.2219C126.447 16.6792 126.136 17.1363 125.825 17.5932C125.56 17.9836 125.294 18.3741 125.029 18.7648C124.719 19.2222 124.408 19.6792 124.097 20.1362C124.052 20.203 124.006 20.2699 123.961 20.3368C123.915 20.4039 123.87 20.471 123.824 20.538C123.713 20.7015 123.602 20.865 123.491 21.0288C123.436 21.1096 123.382 21.1904 123.327 21.2713C123.301 21.3096 123.275 21.3479 123.249 21.3863C123.19 21.474 123.13 21.5615 123.07 21.6482C123.017 21.7246 122.969 21.8021 122.924 21.8831C122.825 22.0522 122.741 22.193 122.551 22.2626C122.415 22.2783 122.286 22.2799 122.15 22.2755C122.1 22.2754 122.051 22.2754 122.001 22.2756C121.898 22.2756 121.796 22.274 121.692 22.2711C121.561 22.2676 121.43 22.2674 121.298 22.2683C121.196 22.2688 121.094 22.2677 120.992 22.2662C120.944 22.2656 120.895 22.2654 120.847 22.2656C120.471 22.2654 120.471 22.2654 120.337 22.1563C120.279 22.0824 120.233 22.0098 120.188 21.9272C120.162 21.889 120.136 21.851 120.109 21.8133C120.085 21.7766 120.061 21.7399 120.037 21.703C120.009 21.6604 119.981 21.6177 119.953 21.5751C119.938 21.5528 119.923 21.5305 119.908 21.5076C119.827 21.3852 119.743 21.264 119.66 21.1427C119.624 21.0899 119.588 21.0371 119.552 20.9843C119.533 20.9573 119.515 20.9303 119.495 20.9025C119.396 20.7572 119.297 20.6117 119.198 20.4662C119.177 20.4363 119.157 20.4065 119.136 20.3757C119.053 20.2537 118.97 20.1318 118.887 20.0098C118.657 19.6727 118.427 19.3356 118.196 18.999C118.04 18.7711 117.885 18.5429 117.729 18.3146C117.598 18.1222 117.467 17.93 117.335 17.7379C117.08 17.3654 116.826 16.9923 116.572 16.6192C116.359 16.3073 116.147 15.9954 115.933 15.6839C115.782 15.4634 115.632 15.2426 115.481 15.0217C115.461 14.992 115.44 14.9622 115.42 14.9316C115.314 14.7767 115.209 14.6219 115.103 14.467C115.082 14.4357 115.06 14.4043 115.038 14.3721C114.998 14.3132 114.958 14.2544 114.918 14.1956C114.763 13.9682 114.607 13.7422 114.45 13.5159C114.439 17.9162 114.428 22.3164 114.417 26.85C113.342 26.85 112.266 26.85 111.157 26.85C111.157 20.3411 111.157 13.8322 111.157 7.12598Z" fill="black"/>
<path d="M97.4564 6.89114C97.5101 6.89086 97.5101 6.89086 97.565 6.89058C97.6406 6.89027 97.7163 6.89006 97.7919 6.88993C97.9046 6.88962 98.0172 6.88861 98.1299 6.88758C98.7847 6.88446 99.434 6.93991 100.077 7.06892C100.111 7.07574 100.146 7.08255 100.181 7.08958C100.554 7.16614 100.917 7.26956 101.279 7.38679C101.308 7.39614 101.337 7.40549 101.367 7.41513C102.824 7.88969 104.134 8.74254 105.218 9.81766C105.246 9.84577 105.274 9.87388 105.304 9.90285C105.497 10.0973 105.673 10.3014 105.843 10.5166C105.859 10.5364 105.875 10.5562 105.891 10.5767C106.964 11.919 107.646 13.5474 107.897 15.2438C107.904 15.2904 107.904 15.2904 107.912 15.3379C108.076 16.4167 108.073 17.5907 107.897 18.667C107.891 18.7026 107.885 18.7382 107.879 18.7749C107.718 19.7367 107.441 20.6576 107.017 21.536C106.996 21.58 106.996 21.58 106.974 21.625C106.592 22.4076 106.109 23.1369 105.518 23.7782C105.458 23.844 105.4 23.9111 105.342 23.979C105.114 24.2396 104.868 24.4757 104.597 24.6909C104.537 24.7388 104.479 24.7878 104.421 24.8382C103.536 25.6088 102.445 26.1414 101.344 26.524C101.314 26.5345 101.284 26.545 101.252 26.5559C98.6598 27.4389 95.6959 27.1742 93.2517 25.9849C92.6127 25.6672 92.021 25.2765 91.4657 24.8287C91.4485 24.815 91.4313 24.8012 91.4136 24.787C90.9202 24.3877 90.4469 23.9337 90.0638 23.4269C90.0314 23.3858 89.9988 23.3449 89.9663 23.304C89.5632 22.7932 89.2242 22.2426 88.9227 21.6664C88.9104 21.6429 88.8981 21.6194 88.8855 21.5952C88.3872 20.629 88.081 19.5479 87.9447 18.4714C87.9419 18.4495 87.9391 18.4276 87.9362 18.405C87.8766 17.9266 87.8677 17.4513 87.8693 16.9697C87.8694 16.9315 87.8694 16.8934 87.8695 16.8541C87.8709 16.3005 87.8836 15.7581 87.9773 15.2112C87.9829 15.1767 87.9885 15.1421 87.9942 15.1065C88.2975 13.2638 89.1158 11.4889 90.3995 10.1225C90.4671 10.0496 90.5323 9.97594 90.597 9.90056C90.712 9.76869 90.8344 9.64749 90.9624 9.52832C90.9963 9.49666 90.9963 9.49666 91.031 9.46436C91.2424 9.26941 91.4632 9.0906 91.6939 8.91907C91.7114 8.90587 91.7289 8.89267 91.747 8.87907C93.3677 7.6624 95.4199 6.89962 97.4564 6.89114ZM92.9831 11.7979C92.8357 11.9599 92.7028 12.1326 92.5741 12.3097C92.5605 12.3284 92.5469 12.3471 92.5328 12.3664C92.1361 12.9182 91.8479 13.5264 91.6287 14.168C91.6197 14.1939 91.6106 14.2199 91.6013 14.2467C90.9177 16.2455 91.0541 18.682 91.9661 20.5846C92.7326 22.1353 94.0005 23.3152 95.6489 23.8772C96.0187 23.9977 96.3969 24.0775 96.7798 24.1441C96.8039 24.1484 96.8281 24.1528 96.853 24.1572C98.5397 24.4444 100.434 24.0518 101.833 23.0703C103.359 21.9679 104.254 20.2898 104.559 18.4537C104.891 16.341 104.558 14.0571 103.286 12.3001C103.09 12.0366 102.876 11.7955 102.648 11.5598C102.619 11.528 102.619 11.528 102.589 11.4955C101.512 10.3535 99.7996 9.78952 98.2676 9.73705C98.2285 9.73608 98.1894 9.73511 98.149 9.73412C98.1163 9.73281 98.0836 9.73151 98.0498 9.73017C96.137 9.68721 94.2969 10.4032 92.9831 11.7979Z" fill="black"/>
<path d="M169.188 7.12598C177.041 7.12598 177.041 7.12598 177.812 7.26453C177.852 7.27158 177.892 7.27863 177.934 7.28589C178.287 7.34998 178.629 7.43487 178.969 7.5498C178.997 7.55916 179.025 7.56852 179.053 7.57817C179.901 7.86955 180.654 8.31501 181.316 8.91907C181.333 8.93401 181.349 8.94894 181.366 8.96433C182.318 9.84349 182.911 11.182 182.983 12.4743C182.985 12.5441 182.986 12.6138 182.987 12.6836C182.987 12.7093 182.987 12.735 182.988 12.7616C182.993 13.3388 182.988 13.8975 182.849 14.4614C182.838 14.5032 182.838 14.5032 182.828 14.5458C182.462 15.9871 181.586 17.2241 180.307 17.9878C179.737 18.3191 179.117 18.5377 178.48 18.6996C178.662 19.0203 178.848 19.3385 179.036 19.6552C179.064 19.7013 179.091 19.7474 179.118 19.7934C179.299 20.0975 179.481 20.401 179.663 20.7041C179.843 21.0033 180.021 21.3034 180.199 21.6035C180.389 21.9238 180.58 22.2436 180.772 22.5627C180.884 22.7491 180.995 22.9358 181.106 23.1229C181.119 23.1445 181.132 23.1661 181.145 23.1883C181.171 23.2326 181.197 23.2769 181.224 23.3212C181.237 23.3433 181.25 23.3654 181.263 23.3881C181.276 23.4102 181.29 23.4323 181.303 23.4551C181.497 23.783 181.694 24.1093 181.893 24.4346C182.079 24.7411 182.262 25.0499 182.443 25.3601C182.574 25.5849 182.706 25.8088 182.841 26.0309C182.854 26.0519 182.867 26.0729 182.88 26.0945C182.942 26.1952 183.003 26.2958 183.065 26.3962C183.087 26.432 183.109 26.4678 183.132 26.5047C183.151 26.536 183.17 26.5674 183.19 26.5997C183.24 26.687 183.24 26.687 183.305 26.85C182.014 26.85 180.723 26.85 179.393 26.85C179.242 26.5811 179.092 26.3121 178.936 26.035C178.768 25.745 178.768 25.745 178.598 25.4554C178.471 25.2379 178.346 25.0191 178.221 24.8002C178.053 24.505 177.884 24.2101 177.714 23.9159C177.544 23.6216 177.375 23.3268 177.206 23.0316C177.046 22.7495 176.884 22.4682 176.719 22.188C176.555 21.9078 176.393 21.6265 176.232 21.3444C176.063 21.0466 175.892 20.749 175.721 20.4519C175.704 20.4216 175.686 20.3913 175.668 20.36C175.641 20.3135 175.641 20.3135 175.614 20.266C175.585 20.2134 175.585 20.2134 175.556 20.1598C175.5 20.0622 175.435 19.9766 175.365 19.8883C174.906 19.2675 174.97 18.6081 174.993 17.8702C174.998 17.7023 175 17.5344 175.002 17.3665C175.007 17.0392 175.014 16.7121 175.024 16.3849C175.056 16.384 175.087 16.3832 175.119 16.3823C175.238 16.379 175.356 16.3757 175.475 16.3723C175.526 16.3709 175.577 16.3694 175.628 16.368C176.761 16.337 177.883 16.2525 178.751 15.4347C179.379 14.7702 179.642 13.8793 179.633 12.9766C179.603 12.0741 179.333 11.2422 178.669 10.6083C177.121 9.29144 173.885 9.81119 172.449 9.79932C172.449 15.4261 172.449 21.0528 172.449 26.85C171.373 26.85 170.297 26.85 169.188 26.85C169.188 20.3411 169.188 13.8322 169.188 7.12598Z" fill="black"/>
<path d="M207.884 7.12199C207.912 7.12202 207.94 7.12205 207.969 7.12208C208.001 7.12204 208.033 7.12199 208.065 7.12195C208.101 7.12207 208.136 7.12218 208.172 7.1223C208.227 7.1223 208.227 7.1223 208.284 7.12229C208.407 7.12231 208.529 7.12257 208.652 7.12282C208.736 7.12288 208.821 7.12293 208.906 7.12296C209.107 7.12307 209.307 7.12333 209.508 7.12366C209.736 7.12402 209.965 7.1242 210.193 7.12436C210.663 7.12471 211.133 7.12528 211.603 7.126C211.828 7.73756 212.051 8.34998 212.269 8.96393C212.297 9.0426 212.325 9.12128 212.354 9.19995C212.412 9.36244 212.469 9.52495 212.527 9.68746C212.665 10.0746 212.804 10.4617 212.942 10.8487C212.955 10.8865 212.969 10.9242 212.983 10.9631C213.193 11.551 213.403 12.1388 213.614 12.7264C213.827 13.3212 214.04 13.9162 214.252 14.5113C214.45 15.0654 214.648 15.6192 214.847 16.173C215.059 16.7631 215.27 17.3533 215.481 17.9437C215.494 17.9815 215.508 18.0193 215.522 18.0582C215.631 18.3647 215.74 18.6712 215.85 18.9778C215.945 19.2457 216.041 19.5137 216.137 19.7816C216.15 19.8194 216.164 19.8572 216.178 19.8962C216.388 20.484 216.598 21.0717 216.809 21.6593C217.008 22.2157 217.207 22.7723 217.406 23.3291C217.625 23.9425 217.845 24.5559 218.064 25.169C218.077 25.2038 218.089 25.2386 218.102 25.2744C218.126 25.3421 218.151 25.4098 218.175 25.4774C218.198 25.5427 218.222 25.608 218.245 25.6734C218.308 25.8486 218.371 26.0236 218.435 26.1986C218.448 26.2361 218.462 26.2737 218.476 26.3124C218.502 26.385 218.529 26.4576 218.555 26.5301C218.567 26.5625 218.579 26.595 218.591 26.6284C218.601 26.6571 218.612 26.6858 218.623 26.7154C218.645 26.7849 218.645 26.7849 218.645 26.8501C217.505 26.8501 216.364 26.8501 215.189 26.8501C215.039 26.409 214.888 25.9679 214.733 25.5134C214.652 25.2816 214.572 25.05 214.49 24.8186C214.472 24.7674 214.454 24.7161 214.436 24.6649C214.428 24.6395 214.419 24.614 214.409 24.5877C214.392 24.5376 214.374 24.4875 214.357 24.4374C214.309 24.3014 214.261 24.1656 214.212 24.0298C214.202 24.0001 214.191 23.9703 214.18 23.9396C214.16 23.8819 214.139 23.8243 214.118 23.7667C214.109 23.7408 214.1 23.7148 214.091 23.6881C214.082 23.6651 214.074 23.6422 214.066 23.6186C214.048 23.5573 214.048 23.5573 214.048 23.4595C211.983 23.4595 209.917 23.4595 207.789 23.4595C207.811 23.2808 207.837 23.1156 207.881 22.9427C207.887 22.9186 207.893 22.8945 207.899 22.8696C207.919 22.7909 207.939 22.7122 207.959 22.6335C207.973 22.5785 207.986 22.5234 208 22.4684C208.029 22.3536 208.058 22.2388 208.087 22.124C208.124 21.9767 208.161 21.8293 208.197 21.682C208.226 21.5686 208.254 21.4552 208.283 21.3418C208.296 21.2875 208.31 21.2331 208.324 21.1787C208.343 21.103 208.362 21.0273 208.381 20.9517C208.386 20.9291 208.392 20.9066 208.398 20.8834C208.437 20.7284 208.437 20.7284 208.473 20.6557C209.98 20.6557 211.486 20.6557 213.038 20.6557C212.855 20.1393 212.672 19.6229 212.483 19.0909C212.298 18.5582 212.298 18.5582 212.209 18.2961C212.005 17.7013 211.798 17.1077 211.587 16.5153C211.388 15.9567 211.193 15.3969 211 14.8363C210.748 14.1055 210.492 13.3764 210.233 12.6482C210.118 12.3237 210.003 11.9989 209.889 11.674C209.88 11.6477 209.871 11.6215 209.862 11.5944C209.812 11.4525 209.762 11.3106 209.712 11.1686C209.558 11.5709 209.415 11.9766 209.273 12.3832C209.044 13.0355 208.813 13.6868 208.579 14.3371C208.394 14.8524 208.211 15.3683 208.031 15.8857C207.798 16.557 207.558 17.2254 207.316 17.8937C207.175 18.2851 207.034 18.6767 206.894 19.0684C206.868 19.1408 206.842 19.2131 206.816 19.2855C206.764 19.4306 206.712 19.5758 206.66 19.7209C206.544 20.0455 206.428 20.37 206.311 20.6945C206.247 20.8745 206.182 21.0545 206.118 21.2344C206.092 21.3064 206.066 21.3784 206.04 21.4504C206.021 21.5039 206.021 21.5039 206.002 21.5584C205.053 24.2042 205.053 24.2042 204.105 26.8501C203.007 26.8501 201.91 26.8501 200.779 26.8501C200.853 26.52 200.853 26.52 200.898 26.3937C200.909 26.3649 200.919 26.3362 200.93 26.3066C200.946 26.2609 200.946 26.2609 200.963 26.2142C200.981 26.1648 200.981 26.1648 200.999 26.1144C201.039 26.0057 201.078 25.8971 201.118 25.7885C201.145 25.7113 201.173 25.6342 201.201 25.557C201.252 25.416 201.303 25.275 201.354 25.1339C201.487 24.7662 201.618 24.3978 201.749 24.0295C201.818 23.8384 201.886 23.6474 201.954 23.4564C201.967 23.4187 201.981 23.3809 201.995 23.342C202.151 22.9053 202.307 22.4687 202.464 22.0321C202.664 21.4757 202.863 20.9191 203.061 20.3623C203.273 19.7699 203.485 19.1776 203.697 18.5855C203.909 17.9954 204.12 17.4052 204.331 16.8148C204.344 16.777 204.358 16.7392 204.372 16.7003C204.467 16.4322 204.563 16.164 204.659 15.8959C204.768 15.5896 204.878 15.2832 204.987 14.9769C205 14.9391 205.014 14.9013 205.028 14.8624C205.238 14.2745 205.448 13.6868 205.659 13.0992C205.859 12.5428 206.058 11.9862 206.256 11.4294C206.532 10.6567 206.809 9.88423 207.086 9.11202C207.167 8.88709 207.247 8.66211 207.328 8.43711C207.383 8.28399 207.438 8.13089 207.492 7.9778C207.519 7.9048 207.545 7.83178 207.571 7.75875C207.607 7.65834 207.643 7.55798 207.679 7.45763C207.69 7.42763 207.7 7.39763 207.711 7.36673C207.726 7.32604 207.726 7.32604 207.741 7.28452C207.749 7.26085 207.758 7.23718 207.767 7.21278C207.797 7.13836 207.803 7.12719 207.884 7.12199Z" fill="black"/>
<path d="M76.0593 6.88556C76.097 6.8857 76.1346 6.88584 76.1734 6.88599C76.7229 6.88839 77.2628 6.90209 77.8055 6.99559C77.8579 7.00425 77.8579 7.00425 77.9113 7.01307C79.5859 7.29502 81.1746 7.9441 82.5002 9.0169C82.5178 9.03108 82.5353 9.04525 82.5534 9.05985C83.0224 9.4414 83.4729 9.86996 83.8369 10.3536C83.8529 10.3742 83.869 10.3949 83.8856 10.4162C84.3079 10.9583 84.6525 11.5405 84.9514 12.1589C84.9732 12.2039 84.9732 12.2039 84.9955 12.2498C85.0611 12.3896 85.1156 12.526 85.1595 12.6741C85.1683 12.7036 85.177 12.733 85.186 12.7633C85.1927 12.7857 85.1993 12.8082 85.2061 12.8313C84.7023 12.8458 84.1984 12.8567 83.6944 12.8634C83.4604 12.8666 83.2264 12.8709 82.9924 12.878C82.7884 12.8842 82.5844 12.8882 82.3802 12.8896C82.2721 12.8904 82.1644 12.8926 82.0564 12.8968C81.3992 12.9214 81.3992 12.9214 81.2239 12.7715C81.1061 12.6244 81.0344 12.4635 80.9677 12.2886C80.9181 12.1711 80.8478 12.0715 80.7723 11.9694C80.7582 11.9502 80.7442 11.931 80.7297 11.9112C80.5848 11.7154 80.4195 11.5394 80.2507 11.3642C80.2257 11.3368 80.2007 11.3094 80.175 11.2812C79.1578 10.1985 77.5976 9.8194 76.1675 9.76254C75.0599 9.74223 73.9437 9.96404 72.9479 10.4514C72.9241 10.4629 72.9004 10.4745 72.8759 10.4864C71.8068 11.0133 70.9216 11.8633 70.3402 12.9028C70.3079 12.9604 70.2747 13.0175 70.2415 13.0745C69.1895 14.9218 69.1184 17.3668 69.6551 19.3843C69.9382 20.4026 70.4392 21.3409 71.1563 22.1182C71.2079 22.1748 71.2561 22.2319 71.3035 22.2919C72.227 23.3575 73.7387 23.9366 75.0996 24.1115C75.1333 24.1161 75.1333 24.1161 75.1677 24.1208C75.4508 24.1547 75.7359 24.1521 76.0206 24.1523C76.062 24.1523 76.062 24.1523 76.1042 24.1523C76.5369 24.1518 76.9566 24.1332 77.3817 24.0463C77.4105 24.0406 77.4393 24.0348 77.469 24.0288C77.8554 23.9493 78.2254 23.8433 78.588 23.6877C78.6107 23.678 78.6333 23.6683 78.6567 23.6583C79.6727 23.2165 80.4452 22.5101 81.0193 21.5692C81.0315 21.5498 81.0437 21.5304 81.0562 21.5104C81.1002 21.4378 81.1002 21.4378 81.1354 21.3554C81.2447 21.1303 81.2447 21.1303 81.3742 21.0826C81.4759 21.0719 81.573 21.0718 81.6753 21.0751C81.7325 21.0751 81.7325 21.0751 81.791 21.075C81.917 21.0752 82.0428 21.0778 82.1688 21.0803C82.2563 21.0809 82.3437 21.0814 82.4311 21.0817C82.6376 21.0827 82.844 21.0854 83.0504 21.0887C83.2855 21.0923 83.5206 21.0941 83.7558 21.0958C84.2393 21.0992 84.7227 21.1049 85.2061 21.1122C85.1905 21.1593 85.1749 21.2065 85.1593 21.2536C85.1462 21.293 85.1462 21.293 85.1329 21.3332C84.8091 22.2856 84.2017 23.1996 83.521 23.9323C83.4542 24.0044 83.3895 24.0778 83.3254 24.1523C82.8785 24.6649 82.3237 25.0869 81.7503 25.4482C81.7309 25.4605 81.7114 25.4728 81.6913 25.4855C80.3344 26.3352 78.8376 26.802 77.2513 26.9805C77.2224 26.9839 77.1934 26.9873 77.1636 26.9908C76.2485 27.0836 75.2566 27.0662 74.3497 26.9153C74.3106 26.9088 74.2715 26.9023 74.2312 26.8956C72.5085 26.5999 70.8684 25.8903 69.5247 24.7636C69.5005 24.7437 69.5005 24.7437 69.4758 24.7235C69.0153 24.3453 68.5866 23.9304 68.2206 23.4595C68.1909 23.4235 68.161 23.3877 68.1311 23.3519C66.8835 21.8497 66.1657 19.9182 66.0037 17.9824C66.0001 17.9444 65.9965 17.9065 65.9927 17.8674C65.7778 15.1926 66.5045 12.4829 68.2471 10.4167C68.303 10.3518 68.3595 10.2875 68.4162 10.2232C68.4394 10.1964 68.4625 10.1696 68.4864 10.142C68.8136 9.76977 69.1643 9.41718 69.5573 9.11471C69.5992 9.08161 69.6412 9.0485 69.6831 9.01537C70.9197 8.04585 72.3796 7.37434 73.9218 7.06895C73.9521 7.06286 73.9824 7.05678 74.0136 7.05051C74.6919 6.92444 75.3705 6.88064 76.0593 6.88556Z" fill="black"/>
<path d="M142.01 6.89114C142.044 6.89096 142.079 6.89077 142.114 6.89058C142.187 6.89027 142.26 6.89006 142.332 6.88993C142.441 6.88962 142.549 6.88861 142.657 6.88758C143.861 6.88162 145.146 7.08439 146.209 7.67933C146.273 7.71509 146.338 7.74957 146.403 7.784C146.681 7.93381 146.936 8.10005 147.182 8.29964C147.2 8.31386 147.217 8.32807 147.235 8.34272C148.356 9.25715 148.998 10.4886 149.195 11.915C149.205 12.0353 149.203 12.1563 149.203 12.2771C148.02 12.2771 146.836 12.2771 145.617 12.2771C145.585 12.1372 145.553 11.9973 145.519 11.8532C145.303 11.1227 144.833 10.527 144.162 10.1569C143.195 9.6416 142.012 9.54638 140.958 9.83294C140.519 9.96702 140.124 10.1765 139.781 10.484C139.761 10.5012 139.741 10.5184 139.72 10.5362C139.242 10.9716 139.066 11.6433 139.036 12.2668C139.013 12.8862 139.189 13.4051 139.59 13.8766C140.494 14.8417 141.969 15.139 143.194 15.4802C147.716 16.7414 147.716 16.7414 148.845 18.6344C149.154 19.1898 149.318 19.7673 149.399 20.3949C149.402 20.4189 149.405 20.443 149.408 20.4678C149.576 21.924 149.228 23.4238 148.313 24.5854C148.181 24.7484 148.043 24.9048 147.899 25.0569C147.873 25.085 147.847 25.113 147.821 25.1419C146.858 26.1486 145.505 26.7214 144.15 26.9479C144.103 26.9559 144.103 26.9559 144.055 26.964C141.965 27.304 139.564 26.9418 137.821 25.6918C137.654 25.5682 137.499 25.436 137.348 25.2925C137.279 25.2278 137.209 25.1678 137.137 25.1079C136.975 24.9675 136.848 24.8013 136.717 24.6331C136.68 24.5877 136.68 24.5877 136.643 24.5414C136.117 23.8682 135.803 23.0689 135.678 22.2267C135.674 22.2011 135.67 22.1755 135.666 22.1491C135.631 21.8865 135.641 21.6441 135.641 21.373C136.792 21.373 137.943 21.373 139.129 21.373C139.172 21.5881 139.215 21.8033 139.26 22.025C139.401 22.4779 139.594 22.8766 139.912 23.2313C139.938 23.2608 139.965 23.2903 139.992 23.3208C140.643 24.009 141.555 24.2502 142.479 24.2806C143.473 24.3002 144.549 24.1045 145.3 23.4064C145.847 22.8703 146.108 22.2059 146.116 21.4443C146.114 20.7464 145.9 20.1973 145.415 19.6899C145.227 19.5079 145.025 19.3574 144.802 19.2212C144.783 19.2094 144.764 19.1976 144.744 19.1854C143.821 18.6292 142.686 18.408 141.657 18.1259C138.59 17.2849 138.59 17.2849 137.662 16.5805C137.635 16.5602 137.608 16.54 137.58 16.5191C136.512 15.6907 135.892 14.6415 135.719 13.2954C135.692 13.0417 135.695 12.7866 135.696 12.5318C135.696 12.5037 135.696 12.4756 135.696 12.4467C135.698 12.0359 135.707 11.635 135.804 11.2338C135.81 11.2064 135.817 11.179 135.824 11.1508C136.147 9.82333 136.977 8.66485 138.147 7.94981C139.307 7.26027 140.66 6.897 142.01 6.89114Z" fill="black"/>
<path d="M187.087 7.12598C190.626 7.12598 194.166 7.12598 197.813 7.12598C197.813 7.99742 197.813 8.86887 197.813 9.76672C195.188 9.76672 192.563 9.76672 189.858 9.76672C189.858 14.522 189.858 19.2773 189.858 24.1767C192.483 24.1767 195.108 24.1767 197.813 24.1767C197.813 25.0589 197.813 25.9411 197.813 26.85C194.273 26.85 190.734 26.85 187.087 26.85C187.087 20.3411 187.087 13.8322 187.087 7.12598Z" fill="black"/>
<path d="M152.203 7.12598C156.743 7.12598 161.283 7.12598 165.961 7.12598C165.961 8.00818 165.961 8.89038 165.961 9.79932C164.24 9.79932 162.518 9.79932 160.745 9.79932C160.745 15.4261 160.745 21.0528 160.745 26.85C159.669 26.85 158.593 26.85 157.485 26.85C157.485 21.2233 157.485 15.5966 157.485 9.79932C155.742 9.79932 153.999 9.79932 152.203 9.79932C152.203 8.91712 152.203 8.03491 152.203 7.12598Z" fill="black"/>
<path d="M191.423 15.5046C193.532 15.5046 195.64 15.5046 197.813 15.5046C197.813 16.3868 197.813 17.269 197.813 18.178C195.704 18.178 193.595 18.178 191.423 18.178C191.423 17.2958 191.423 16.4136 191.423 15.5046Z" fill="black"/>
</svg>
